G04*
G04 #@! TF.GenerationSoftware,Altium Limited,Altium Designer,23.2.1 (34)*
G04*
G04 Layer_Color=65535*
%FSLAX25Y25*%
%MOIN*%
G70*
G04*
G04 #@! TF.SameCoordinates,DCD1C9D7-C552-47EB-8D17-ADC449AF66F1*
G04*
G04*
G04 #@! TF.FilePolarity,Positive*
G04*
G01*
G75*
%ADD10C,0.01500*%
%ADD11C,0.00591*%
%ADD12C,0.00984*%
%ADD13C,0.02362*%
%ADD14C,0.00787*%
%ADD15C,0.01000*%
%ADD16C,0.00500*%
G36*
X197802Y230595D02*
X197274D01*
Y231123D01*
X197802D01*
Y230595D01*
D02*
G37*
G36*
X228949D02*
Y230067D01*
X227893D01*
Y229539D01*
X226309D01*
Y230067D01*
X225781D01*
Y229539D01*
X224198D01*
Y230067D01*
X224726D01*
Y230595D01*
X222086D01*
Y231123D01*
X228949D01*
Y230595D01*
D02*
G37*
G36*
X221558D02*
X222086D01*
Y230067D01*
X218919D01*
Y229012D01*
X218391D01*
Y228484D01*
X217863D01*
Y227956D01*
X217335D01*
Y228484D01*
X216807D01*
Y227956D01*
X215751D01*
Y228484D01*
X215223D01*
Y229012D01*
X214167D01*
Y229539D01*
X213639D01*
Y230067D01*
X212584D01*
Y230595D01*
X211000D01*
Y231123D01*
X221558D01*
Y230595D01*
D02*
G37*
G36*
X196747D02*
X196219D01*
Y230067D01*
X194107D01*
Y229539D01*
X193579D01*
Y229012D01*
X193051D01*
Y228484D01*
X191995D01*
Y227956D01*
X191467D01*
Y226900D01*
X190939D01*
Y226372D01*
X190412D01*
Y226900D01*
X189884D01*
Y226372D01*
X190412D01*
Y225844D01*
X189884D01*
Y225316D01*
X189356D01*
Y224788D01*
X188828D01*
Y225316D01*
X188300D01*
Y224788D01*
X188828D01*
Y223732D01*
X188300D01*
Y223205D01*
X188828D01*
Y222677D01*
X188300D01*
Y223205D01*
X187244D01*
Y222677D01*
X187772D01*
Y221621D01*
X187244D01*
Y220565D01*
X186716D01*
Y217398D01*
X186188D01*
Y216870D01*
X186716D01*
Y214230D01*
X187244D01*
Y213702D01*
X186716D01*
Y213174D01*
X187244D01*
Y212119D01*
X186716D01*
Y211591D01*
X187244D01*
Y207895D01*
X187772D01*
Y206839D01*
X187244D01*
Y206312D01*
X188300D01*
Y205784D01*
X187772D01*
Y203144D01*
X188300D01*
Y202616D01*
X188828D01*
Y202088D01*
X188300D01*
Y200505D01*
X187772D01*
Y199449D01*
X188828D01*
Y196281D01*
X189356D01*
Y194698D01*
X189884D01*
Y194170D01*
X189356D01*
Y193642D01*
X188828D01*
Y190474D01*
X188300D01*
Y189946D01*
X188828D01*
Y189419D01*
X188300D01*
Y189946D01*
X187772D01*
Y189419D01*
X188300D01*
Y188891D01*
X188828D01*
Y187307D01*
X188300D01*
Y186251D01*
X189356D01*
Y185195D01*
X188828D01*
Y184140D01*
X189356D01*
Y184667D01*
X189884D01*
Y183612D01*
X190412D01*
Y183084D01*
X189356D01*
Y182556D01*
X189884D01*
Y182028D01*
X190939D01*
Y180972D01*
X191467D01*
Y180444D01*
X191995D01*
Y179916D01*
X191467D01*
Y179388D01*
X191995D01*
Y178860D01*
X192523D01*
Y178332D01*
X191995D01*
Y177805D01*
X192523D01*
Y176749D01*
X191995D01*
Y176221D01*
X192523D01*
Y175693D01*
X191995D01*
Y176221D01*
X190939D01*
Y175693D01*
X191467D01*
Y175165D01*
X190412D01*
Y174637D01*
X189884D01*
Y174109D01*
X189356D01*
Y173581D01*
X188300D01*
Y173054D01*
X186716D01*
Y172526D01*
X185661D01*
Y171998D01*
X184077D01*
Y171470D01*
X183549D01*
Y231123D01*
X196747D01*
Y230595D01*
D02*
G37*
G36*
X206777Y228484D02*
X208361D01*
Y227956D01*
X209944D01*
Y227428D01*
X211000D01*
Y226900D01*
X212056D01*
Y226372D01*
X213112D01*
Y225844D01*
X213639D01*
Y225316D01*
X214167D01*
Y224788D01*
X214695D01*
Y224260D01*
X215223D01*
Y223732D01*
X215751D01*
Y223205D01*
X216279D01*
Y222149D01*
X216807D01*
Y221093D01*
X217335D01*
Y217398D01*
X217863D01*
Y208951D01*
X218391D01*
Y204200D01*
X218919D01*
Y196809D01*
X219446D01*
Y196281D01*
D01*
D01*
X219974D01*
Y199977D01*
X220502D01*
Y201032D01*
X219974D01*
Y201560D01*
X220502D01*
Y202616D01*
X219974D01*
Y208951D01*
X220502D01*
Y210007D01*
X219974D01*
Y214230D01*
X220502D01*
Y215286D01*
X219974D01*
Y223732D01*
X219446D01*
Y224788D01*
X218919D01*
Y227428D01*
X222614D01*
Y226900D01*
X228949D01*
Y225316D01*
X225781D01*
Y225844D01*
X222614D01*
Y225316D01*
X220502D01*
Y224260D01*
X228949D01*
Y213174D01*
X228421D01*
Y213702D01*
X227365D01*
Y214230D01*
X226837D01*
Y214758D01*
X226309D01*
Y215286D01*
X225781D01*
Y214758D01*
X225254D01*
Y214230D01*
X223670D01*
Y213702D01*
X225254D01*
Y213174D01*
X225781D01*
Y212647D01*
X226309D01*
Y212119D01*
X226837D01*
Y211591D01*
X225254D01*
Y211063D01*
X222614D01*
Y210535D01*
X221558D01*
Y210007D01*
X221030D01*
Y209479D01*
X223142D01*
Y210007D01*
X224726D01*
Y210535D01*
X225781D01*
Y211063D01*
X227365D01*
Y211591D01*
X228949D01*
Y200505D01*
Y199977D01*
Y193114D01*
X220502D01*
Y191002D01*
X221030D01*
Y190474D01*
X228949D01*
Y180444D01*
Y179916D01*
X228421D01*
Y180444D01*
X227893D01*
Y179388D01*
X228949D01*
Y177805D01*
X228421D01*
Y176749D01*
X228949D01*
Y165135D01*
X224726D01*
Y165663D01*
X224198D01*
Y165135D01*
X223142D01*
Y165663D01*
X223670D01*
Y166191D01*
X222614D01*
Y165135D01*
X222086D01*
Y166719D01*
X221030D01*
Y166191D01*
X221558D01*
Y165663D01*
X221030D01*
Y166191D01*
X220502D01*
Y166719D01*
X219446D01*
Y166191D01*
X219974D01*
Y165663D01*
X221030D01*
Y165135D01*
X217863D01*
Y167774D01*
X216807D01*
Y168830D01*
X217335D01*
Y171470D01*
X216279D01*
Y170414D01*
X215751D01*
Y169886D01*
X215223D01*
Y168830D01*
X214167D01*
Y166719D01*
X213639D01*
Y166191D01*
X213112D01*
Y165135D01*
X205721D01*
Y165663D01*
X203609D01*
Y165135D01*
X202026D01*
Y165663D01*
X201498D01*
Y166719D01*
X202026D01*
Y167246D01*
X204665D01*
Y166719D01*
X203609D01*
Y166191D01*
X206249D01*
Y166719D01*
X206777D01*
Y167246D01*
X206249D01*
Y167774D01*
X205721D01*
Y168302D01*
X204665D01*
Y168830D01*
X203609D01*
Y169358D01*
X203081D01*
Y169886D01*
X202554D01*
Y170414D01*
X201498D01*
Y170942D01*
X198858D01*
Y171470D01*
X198330D01*
Y171998D01*
X197274D01*
Y172526D01*
X196747D01*
Y173054D01*
X196219D01*
Y169886D01*
X195691D01*
Y169358D01*
X196219D01*
Y166191D01*
X196747D01*
Y165135D01*
X192523D01*
Y165663D01*
X193051D01*
Y166191D01*
X192523D01*
Y168302D01*
X193051D01*
Y168830D01*
X192523D01*
Y169358D01*
X193051D01*
Y170414D01*
X193579D01*
Y171470D01*
X194107D01*
Y171998D01*
X194635D01*
Y172526D01*
X195163D01*
Y173054D01*
X195691D01*
Y174109D01*
X195163D01*
Y174637D01*
X195691D01*
Y175165D01*
X195163D01*
Y176221D01*
X194635D01*
Y175693D01*
X194107D01*
Y174637D01*
X193579D01*
Y173054D01*
X193051D01*
Y171470D01*
X191995D01*
Y170414D01*
X192523D01*
Y169886D01*
X191995D01*
Y170414D01*
X191467D01*
Y170942D01*
X190939D01*
Y169886D01*
X191467D01*
Y168302D01*
X190939D01*
Y166719D01*
X191467D01*
Y165135D01*
X189356D01*
Y165663D01*
X188828D01*
Y165135D01*
X188300D01*
Y166191D01*
X187772D01*
Y166719D01*
X187244D01*
Y166191D01*
X186716D01*
Y167246D01*
X186188D01*
Y166191D01*
D01*
D01*
X186716D01*
Y165135D01*
X183549D01*
Y168302D01*
X184077D01*
Y168830D01*
X185133D01*
Y169358D01*
X186716D01*
Y169886D01*
X187772D01*
Y170414D01*
X188828D01*
Y170942D01*
X189356D01*
Y171470D01*
X191467D01*
Y172526D01*
X191995D01*
Y174109D01*
X192523D01*
Y175165D01*
X193051D01*
Y175693D01*
X193579D01*
Y176221D01*
X194107D01*
Y176749D01*
X195163D01*
Y177805D01*
X194635D01*
Y180972D01*
X194107D01*
Y182028D01*
X193051D01*
Y182556D01*
X192523D01*
Y183612D01*
X191995D01*
Y184667D01*
X191467D01*
Y185723D01*
X190939D01*
Y187307D01*
X190412D01*
Y191530D01*
X190939D01*
Y192058D01*
X192523D01*
Y191002D01*
X191995D01*
Y190474D01*
X192523D01*
Y189946D01*
X193051D01*
Y187307D01*
X192523D01*
Y186251D01*
X193051D01*
Y185723D01*
X194107D01*
Y186251D01*
X193579D01*
Y186779D01*
X194107D01*
Y188363D01*
X194635D01*
Y195226D01*
X195163D01*
Y196809D01*
X195691D01*
Y197337D01*
X196219D01*
Y198921D01*
X196747D01*
Y199977D01*
X197274D01*
Y198921D01*
X197802D01*
Y201560D01*
X199386D01*
Y201032D01*
X199914D01*
Y201560D01*
X200442D01*
Y202616D01*
X200970D01*
Y202088D01*
X202026D01*
Y202616D01*
X200970D01*
Y203672D01*
X201498D01*
Y204200D01*
X202026D01*
Y204728D01*
X202554D01*
Y204200D01*
X203081D01*
Y204728D01*
X202554D01*
Y205256D01*
X203081D01*
Y204728D01*
X204137D01*
Y205256D01*
X205721D01*
Y204728D01*
X204665D01*
Y202088D01*
X205721D01*
Y202616D01*
X205193D01*
Y203672D01*
X206249D01*
Y204200D01*
X208888D01*
Y203672D01*
X209416D01*
Y202616D01*
X209944D01*
Y202088D01*
X211000D01*
Y201560D01*
X213112D01*
Y202088D01*
X213639D01*
Y201560D01*
X214167D01*
Y201032D01*
X214695D01*
Y200505D01*
X215223D01*
Y198921D01*
X216279D01*
Y197337D01*
X216807D01*
Y196281D01*
X217335D01*
Y195226D01*
X217863D01*
Y193114D01*
X218391D01*
Y189419D01*
X218919D01*
Y187307D01*
X219446D01*
Y187835D01*
X219974D01*
Y189419D01*
X219446D01*
Y190474D01*
X219974D01*
Y189946D01*
X220502D01*
Y191002D01*
X219974D01*
Y192058D01*
X219446D01*
Y192586D01*
X218919D01*
Y194698D01*
X218391D01*
Y196809D01*
X217863D01*
Y198393D01*
X217335D01*
Y199449D01*
X216807D01*
Y200505D01*
X216279D01*
Y201032D01*
X215751D01*
Y201560D01*
X215223D01*
Y202616D01*
X214167D01*
Y203144D01*
X213639D01*
Y203672D01*
X213112D01*
Y204200D01*
X212584D01*
Y204728D01*
X211000D01*
Y205256D01*
X210472D01*
Y205784D01*
X208888D01*
Y206312D01*
X203081D01*
Y205784D01*
X202026D01*
Y205256D01*
X200970D01*
Y204728D01*
X199914D01*
Y204200D01*
X198858D01*
Y203672D01*
X198330D01*
Y203144D01*
X197802D01*
Y202616D01*
X197274D01*
Y202088D01*
X196747D01*
Y201560D01*
X196219D01*
Y201032D01*
X195691D01*
Y200505D01*
X195163D01*
Y199449D01*
X194635D01*
Y198921D01*
X194107D01*
Y197865D01*
X193579D01*
Y196281D01*
X193051D01*
Y193642D01*
X192523D01*
Y193114D01*
X191995D01*
Y196281D01*
X191467D01*
Y203144D01*
X190939D01*
Y206839D01*
X190412D01*
Y211063D01*
X189884D01*
Y220037D01*
X190412D01*
Y221621D01*
X190939D01*
Y222149D01*
X191467D01*
Y223205D01*
X191995D01*
Y223732D01*
X192523D01*
Y224260D01*
X193051D01*
Y224788D01*
X193579D01*
Y225316D01*
X194107D01*
Y225844D01*
X195163D01*
Y226372D01*
X195691D01*
Y226900D01*
X196747D01*
Y227428D01*
X197274D01*
Y227956D01*
X198858D01*
Y228484D01*
X202026D01*
Y229012D01*
X206777D01*
Y228484D01*
D02*
G37*
G36*
X190412Y192586D02*
X189884D01*
Y192058D01*
Y191530D01*
X189356D01*
Y193114D01*
X189884D01*
Y193642D01*
X190412D01*
Y192586D01*
D02*
G37*
G36*
X193051Y178860D02*
X192523D01*
Y179388D01*
X193051D01*
Y178860D01*
D02*
G37*
G36*
X199386Y169886D02*
X200442D01*
Y169358D01*
X202026D01*
Y168830D01*
X201498D01*
Y168302D01*
X200970D01*
Y167246D01*
X200442D01*
Y166719D01*
X200970D01*
Y165135D01*
X199386D01*
Y166191D01*
X198858D01*
Y166719D01*
X197802D01*
Y167246D01*
X197274D01*
Y167774D01*
X196747D01*
Y168302D01*
X197274D01*
Y167774D01*
X197802D01*
Y168830D01*
X197274D01*
Y169358D01*
X197802D01*
Y168830D01*
X198330D01*
Y168302D01*
X198858D01*
Y167774D01*
D01*
D01*
X199386D01*
Y168302D01*
X198858D01*
Y168830D01*
X198330D01*
Y169358D01*
X197802D01*
Y169886D01*
X197274D01*
Y170414D01*
X197802D01*
Y169886D01*
X198330D01*
Y169358D01*
X198858D01*
Y169886D01*
X198330D01*
Y170414D01*
X199386D01*
Y169886D01*
D02*
G37*
G36*
X203609Y167774D02*
X202026D01*
Y168302D01*
X203609D01*
Y167774D01*
D02*
G37*
G36*
X216279Y167246D02*
X216807D01*
Y166719D01*
X215751D01*
Y167774D01*
X216279D01*
Y167246D01*
D02*
G37*
G36*
Y165663D02*
Y165135D01*
X214695D01*
Y165663D01*
X215751D01*
Y166191D01*
X216279D01*
Y165663D01*
D02*
G37*
G36*
X197802Y165135D02*
X197274D01*
Y165663D01*
X197802D01*
Y165135D01*
D02*
G37*
G36*
X187772D02*
X187244D01*
Y165663D01*
X187772D01*
Y165135D01*
D02*
G37*
%LPC*%
G36*
X217863Y229539D02*
X217335D01*
Y229012D01*
X217863D01*
Y229539D01*
D02*
G37*
G36*
X188828Y196281D02*
X188300D01*
Y195226D01*
X188828D01*
Y196281D01*
D02*
G37*
G36*
X188300Y188891D02*
X187772D01*
Y188363D01*
X188300D01*
Y188891D01*
D02*
G37*
G36*
X197274Y220565D02*
X196747D01*
Y218981D01*
Y218454D01*
Y217926D01*
X197274D01*
Y220565D01*
D02*
G37*
G36*
X197802Y217398D02*
X197274D01*
Y213174D01*
X197802D01*
Y215814D01*
Y216342D01*
Y217398D01*
D02*
G37*
G36*
X195691Y214230D02*
X195163D01*
Y212119D01*
X195691D01*
Y211591D01*
X196219D01*
Y212119D01*
X195691D01*
Y214230D01*
D02*
G37*
G36*
X194107Y210007D02*
X193579D01*
Y209479D01*
X194107D01*
Y210007D01*
D02*
G37*
G36*
X208361Y203144D02*
X207833D01*
Y202616D01*
X208361D01*
Y201560D01*
X209944D01*
Y202088D01*
X208888D01*
Y202616D01*
X208361D01*
Y203144D01*
D02*
G37*
G36*
X219446Y196281D02*
X218919D01*
Y195754D01*
X219446D01*
Y196281D01*
D01*
D01*
D02*
G37*
G36*
X213112Y196809D02*
X210472D01*
Y196281D01*
X209416D01*
Y195226D01*
X208888D01*
Y195754D01*
X208361D01*
Y196281D01*
X205721D01*
Y195754D01*
X204137D01*
Y196281D01*
X203081D01*
Y196809D01*
X202554D01*
Y196281D01*
X200442D01*
Y195754D01*
X199386D01*
Y194698D01*
X200442D01*
Y195226D01*
X202026D01*
Y194698D01*
X201498D01*
Y194170D01*
X200442D01*
Y193642D01*
X199386D01*
Y193114D01*
X198330D01*
Y193642D01*
X197802D01*
Y193114D01*
X198330D01*
Y192586D01*
X197802D01*
Y191530D01*
X197274D01*
Y191002D01*
X197802D01*
Y190474D01*
X198330D01*
Y189946D01*
X200970D01*
Y190474D01*
X202554D01*
Y191002D01*
X203609D01*
Y191530D01*
X204665D01*
Y192058D01*
X205193D01*
Y192586D01*
X205721D01*
Y193642D01*
X206249D01*
Y194698D01*
X207833D01*
Y194170D01*
X208361D01*
Y193642D01*
X208888D01*
Y192586D01*
X209416D01*
Y192058D01*
X210472D01*
Y191530D01*
X211528D01*
Y191002D01*
X215223D01*
Y191530D01*
X215751D01*
Y192058D01*
X216279D01*
Y193642D01*
X215751D01*
Y194170D01*
X214695D01*
Y194698D01*
X213112D01*
Y195226D01*
X212584D01*
Y195754D01*
X213639D01*
Y195226D01*
X214695D01*
Y195754D01*
X213639D01*
Y196281D01*
X213112D01*
Y196809D01*
D02*
G37*
G36*
X198858Y194170D02*
X198330D01*
Y193642D01*
X198858D01*
Y194170D01*
D02*
G37*
G36*
X217863Y188363D02*
X217335D01*
Y187835D01*
X217863D01*
Y188363D01*
D02*
G37*
G36*
X206777D02*
X206249D01*
Y187835D01*
X206777D01*
Y188363D01*
D02*
G37*
G36*
X220502Y186779D02*
X219974D01*
Y186251D01*
X220502D01*
Y186779D01*
D02*
G37*
G36*
X218391D02*
X217863D01*
Y186251D01*
X218391D01*
Y186779D01*
D02*
G37*
G36*
X224726Y186251D02*
X224198D01*
Y185723D01*
X224726D01*
Y186251D01*
D02*
G37*
G36*
X196747Y188363D02*
X195691D01*
Y187835D01*
X196219D01*
Y187307D01*
X195691D01*
Y186251D01*
X196219D01*
Y185195D01*
X196747D01*
Y188363D01*
D02*
G37*
G36*
X201498Y185195D02*
X200970D01*
Y184667D01*
X201498D01*
Y185195D01*
D02*
G37*
G36*
X210472Y189946D02*
X209944D01*
Y188891D01*
X210472D01*
Y188363D01*
X211000D01*
Y187307D01*
X212056D01*
Y186251D01*
X212584D01*
Y185723D01*
X213112D01*
Y185195D01*
X213639D01*
Y184667D01*
Y184140D01*
X214167D01*
Y183612D01*
X214695D01*
Y184140D01*
X215751D01*
Y185195D01*
X216279D01*
Y186251D01*
X213112D01*
Y187835D01*
X212056D01*
Y188891D01*
X211000D01*
Y189419D01*
X210472D01*
Y189946D01*
D02*
G37*
G36*
X205721D02*
X204665D01*
Y189419D01*
X204137D01*
Y188891D01*
X203609D01*
Y186779D01*
X204137D01*
Y186251D01*
X204665D01*
Y185195D01*
X205193D01*
Y183612D01*
X204665D01*
Y184140D01*
X204137D01*
Y183612D01*
X202554D01*
Y183084D01*
X200970D01*
Y182028D01*
X200442D01*
Y181500D01*
X200970D01*
Y176221D01*
X201498D01*
Y175165D01*
X202026D01*
Y174637D01*
X202554D01*
Y173581D01*
X203081D01*
Y172526D01*
X204137D01*
Y171998D01*
X205193D01*
Y171470D01*
X205721D01*
Y170942D01*
X206777D01*
Y171470D01*
X207305D01*
Y170942D01*
X207833D01*
Y171470D01*
X209416D01*
Y171998D01*
X211000D01*
Y172526D01*
X212056D01*
Y173054D01*
X212584D01*
Y173581D01*
X213112D01*
Y174109D01*
X213639D01*
Y175693D01*
X214167D01*
Y179916D01*
X213639D01*
Y180444D01*
X214167D01*
Y183084D01*
X213639D01*
Y183612D01*
X212584D01*
Y183084D01*
X211528D01*
Y183612D01*
X211000D01*
Y184140D01*
X210472D01*
Y185195D01*
X209944D01*
Y185723D01*
X210472D01*
Y187307D01*
X209416D01*
Y187835D01*
X208888D01*
Y187307D01*
X208361D01*
Y186779D01*
X207833D01*
Y186251D01*
X207305D01*
Y187307D01*
X205721D01*
Y186779D01*
X204137D01*
Y188363D01*
X204665D01*
Y188891D01*
X205721D01*
Y189946D01*
D02*
G37*
G36*
X222614Y183084D02*
X222086D01*
Y182556D01*
X221558D01*
Y182028D01*
X221030Y181500D01*
Y180972D01*
X221558D01*
Y181500D01*
X222614D01*
Y180444D01*
X223670D01*
Y180972D01*
X224198D01*
Y182028D01*
X223142D01*
Y181500D01*
X222614D01*
Y183084D01*
D02*
G37*
G36*
X218919Y185195D02*
X218391D01*
Y184140D01*
X217863D01*
Y180972D01*
X217335D01*
Y179916D01*
X216807D01*
Y180444D01*
X216279D01*
Y179916D01*
X216807D01*
Y178860D01*
X217335D01*
Y174637D01*
X216807D01*
Y171998D01*
X217335D01*
Y171470D01*
X217863D01*
Y170942D01*
X218391D01*
Y169886D01*
X218919D01*
Y167774D01*
X219446D01*
Y169886D01*
X218919D01*
Y170414D01*
X219446D01*
Y170942D01*
X218919D01*
Y171470D01*
X218391D01*
Y171998D01*
X218919D01*
Y173054D01*
X218391D01*
Y175165D01*
X218919D01*
Y175693D01*
X218391D01*
Y176221D01*
X218919D01*
Y182556D01*
X219446D01*
Y183084D01*
X219974D01*
Y183612D01*
X220502D01*
Y184140D01*
X218919D01*
Y185195D01*
D02*
G37*
G36*
X197802Y177277D02*
X197274D01*
Y176221D01*
X198330D01*
Y176749D01*
X197802D01*
Y177277D01*
D02*
G37*
G36*
X225781Y176221D02*
X222614D01*
Y175693D01*
X225781D01*
Y176221D01*
D02*
G37*
G36*
X227365D02*
X226309D01*
Y174637D01*
X226837D01*
Y175165D01*
X227365D01*
Y176221D01*
D02*
G37*
G36*
X226309Y174637D02*
X225781D01*
Y173581D01*
X226309D01*
Y174637D01*
D02*
G37*
G36*
X225781Y173581D02*
X225254D01*
Y172526D01*
X225781D01*
Y173581D01*
D02*
G37*
G36*
X225254Y172526D02*
X224726D01*
Y171998D01*
X224198Y171470D01*
Y169886D01*
X224726D01*
Y170942D01*
Y171470D01*
X225254D01*
Y172526D01*
D02*
G37*
G36*
X190939Y169358D02*
X190412D01*
Y168830D01*
X190939D01*
Y169358D01*
D02*
G37*
G36*
X224198D02*
X223670D01*
Y168830D01*
Y168302D01*
X224198D01*
Y169358D01*
D02*
G37*
G36*
X190412Y167774D02*
X189884D01*
Y167246D01*
Y166719D01*
X190412D01*
Y167774D01*
D02*
G37*
G36*
X185661Y167246D02*
X185133D01*
Y166719D01*
X185661D01*
Y167246D01*
D02*
G37*
G36*
X184605Y166719D02*
X184077D01*
Y166191D01*
X184605D01*
Y166719D01*
D02*
G37*
G36*
X190939Y166191D02*
X190412D01*
Y165663D01*
X190939D01*
Y166191D01*
D02*
G37*
G36*
X186188D02*
X185661D01*
Y165663D01*
X186188D01*
Y166191D01*
D01*
D01*
D02*
G37*
%LPD*%
G36*
X213639Y192058D02*
X215223D01*
Y191530D01*
X212056D01*
Y192058D01*
X211000D01*
Y192586D01*
X213639D01*
Y192058D01*
D02*
G37*
G36*
X203081Y191530D02*
X202554D01*
Y191002D01*
X200442D01*
Y190474D01*
X198330D01*
Y191002D01*
X199386D01*
Y191530D01*
X201498D01*
Y192058D01*
X203081D01*
Y191530D01*
D02*
G37*
G36*
X208361Y183084D02*
X208888D01*
Y182556D01*
X208361D01*
Y181500D01*
X211528D01*
Y180972D01*
X212056D01*
Y180444D01*
X212584D01*
Y178860D01*
X212056D01*
Y178332D01*
X212584D01*
Y176749D01*
X212056D01*
Y175165D01*
X211528D01*
Y174637D01*
X210472D01*
Y175693D01*
X209944D01*
Y174637D01*
X209416D01*
Y175165D01*
X208888D01*
Y174109D01*
X207833D01*
Y173581D01*
X207305D01*
Y174109D01*
X205193D01*
Y175165D01*
X204137D01*
Y174109D01*
X203609D01*
Y175693D01*
X204137D01*
Y176221D01*
X203609D01*
Y177805D01*
X203081D01*
Y178332D01*
X202554D01*
Y178860D01*
X202026D01*
Y179916D01*
X203081D01*
Y180444D01*
X204137D01*
Y180972D01*
X206249D01*
Y181500D01*
X206777D01*
Y183612D01*
X207305D01*
Y184140D01*
X207833D01*
Y184667D01*
X208361D01*
Y183084D01*
D02*
G37*
%LPC*%
G36*
X209416Y179916D02*
X206249D01*
Y179388D01*
X205721D01*
Y178860D01*
X206777D01*
Y176749D01*
X206249D01*
Y176221D01*
X207305D01*
Y176749D01*
X208361D01*
Y177277D01*
X208888D01*
Y178332D01*
X209416D01*
Y178860D01*
Y179388D01*
Y179916D01*
D02*
G37*
%LPD*%
G36*
X207305Y178860D02*
X206777D01*
Y179388D01*
X207305D01*
Y178860D01*
D02*
G37*
G36*
X208888Y178332D02*
X208361D01*
Y178860D01*
X208888D01*
Y178332D01*
D02*
G37*
%LPC*%
G36*
X199914Y169358D02*
X199386D01*
Y168830D01*
X199914D01*
Y169358D01*
D02*
G37*
G36*
X198858Y167774D02*
X198330D01*
Y167246D01*
X198858D01*
Y166719D01*
X199386D01*
Y167246D01*
X198858D01*
Y167774D01*
D01*
D01*
D02*
G37*
%LPD*%
D10*
X389705Y259800D02*
G03*
X389705Y259800I-500J0D01*
G01*
D11*
X410695Y267700D02*
G03*
X410695Y267700I-5295J0D01*
G01*
X356295Y267800D02*
G03*
X356295Y267800I-5295J0D01*
G01*
X410695Y288300D02*
G03*
X410695Y288300I-5295J0D01*
G01*
X356495Y287700D02*
G03*
X356495Y287700I-5295J0D01*
G01*
X299795Y381200D02*
G03*
X299795Y381200I-5295J0D01*
G01*
Y351200D02*
G03*
X299795Y351200I-5295J0D01*
G01*
X229045Y413400D02*
G03*
X229045Y413400I-5295J0D01*
G01*
X334795Y366200D02*
G03*
X334795Y366200I-5295J0D01*
G01*
X299795D02*
G03*
X299795Y366200I-5295J0D01*
G01*
X334795Y381200D02*
G03*
X334795Y381200I-5295J0D01*
G01*
X104795Y367950D02*
G03*
X104795Y367950I-5295J0D01*
G01*
X73795Y245200D02*
G03*
X73795Y245200I-5295J0D01*
G01*
Y222200D02*
G03*
X73795Y222200I-5295J0D01*
G01*
X172842Y249146D02*
G03*
X172842Y249146I-5295J0D01*
G01*
X83195Y334500D02*
G03*
X83195Y334500I-5295J0D01*
G01*
X215295Y413400D02*
G03*
X215295Y413400I-5295J0D01*
G01*
X242795D02*
G03*
X242795Y413400I-5295J0D01*
G01*
X104795Y353400D02*
G03*
X104795Y353400I-5295J0D01*
G01*
Y382500D02*
G03*
X104795Y382500I-5295J0D01*
G01*
D12*
X51449Y373298D02*
G03*
X51449Y373298I-492J0D01*
G01*
X186081Y320303D02*
G03*
X186081Y320303I-492J0D01*
G01*
X178428Y344135D02*
G03*
X178428Y344135I-492J0D01*
G01*
X81992Y146039D02*
G03*
X81992Y146039I-492J0D01*
G01*
X56646Y282872D02*
G03*
X56646Y282872I-492J0D01*
G01*
X311813Y429381D02*
G03*
X311813Y429381I-492J0D01*
G01*
X304987Y187976D02*
G03*
X304987Y187976I-492J0D01*
G01*
X274548Y262023D02*
G03*
X274548Y262023I-492J0D01*
G01*
X278148Y268910D02*
G03*
X278148Y268910I-492J0D01*
G01*
X104364Y252847D02*
G03*
X104364Y252847I-492J0D01*
G01*
X243352Y251019D02*
G03*
X243352Y251019I-492J0D01*
G01*
X435416Y277594D02*
G03*
X435416Y277594I-492J0D01*
G01*
X492947Y303695D02*
G03*
X492947Y303695I-492J0D01*
G01*
X51577Y353398D02*
G03*
X51577Y353398I-492J0D01*
G01*
X51477Y363198D02*
G03*
X51477Y363198I-492J0D01*
G01*
D13*
X62276Y291238D02*
G03*
X62276Y291238I-1181J0D01*
G01*
X113419Y247905D02*
G03*
X113419Y247905I-1181J0D01*
G01*
D14*
X135652Y344106D02*
G03*
X135652Y344106I-394J0D01*
G01*
X320713Y266570D02*
X334887D01*
X320713Y287830D02*
X334887D01*
X320713Y266570D02*
Y287830D01*
X334887Y266570D02*
Y287830D01*
X54106Y370624D02*
X58437D01*
X54106Y375759D02*
X58437D01*
X344100Y154824D02*
Y164776D01*
X351624Y172300D02*
X361576D01*
X369100Y154824D02*
Y164776D01*
X444100Y154824D02*
Y164776D01*
X451624Y172300D02*
X461576D01*
X469100Y154824D02*
Y164776D01*
X144100Y154824D02*
Y164776D01*
X151624Y172300D02*
X161576D01*
X169100Y154824D02*
Y164776D01*
X244100Y154824D02*
Y164776D01*
X251624Y172300D02*
X261576D01*
X269100Y154824D02*
Y164776D01*
X175352Y318335D02*
X177124D01*
X182734Y325520D02*
Y331228D01*
X175352Y338413D02*
X177124D01*
X169742Y325520D02*
Y331228D01*
X173015Y351615D02*
X175869D01*
X209531D02*
X212385D01*
Y388131D02*
Y390985D01*
Y351615D02*
Y354469D01*
X173015Y390985D02*
X175869D01*
X209531D02*
X212385D01*
X173015Y388131D02*
Y390985D01*
Y351615D02*
Y354469D01*
X66000Y148598D02*
X118999D01*
Y197810D01*
X66000D02*
X118999D01*
X66000Y148598D02*
Y197810D01*
X520924Y147300D02*
X530876D01*
X513400Y154824D02*
Y164776D01*
X520924Y172300D02*
X530876D01*
X520924Y347300D02*
X530876D01*
X513400Y354824D02*
Y364776D01*
X520924Y372300D02*
X530876D01*
X57157Y287301D02*
X76842D01*
X57157Y299899D02*
X76842D01*
X57157Y287301D02*
Y299899D01*
X76842Y287301D02*
Y299899D01*
X298920Y425345D02*
Y426822D01*
X300396D01*
X298920Y413830D02*
Y415306D01*
Y413830D02*
X300396D01*
X310435D02*
X311912D01*
Y415306D01*
Y425345D02*
Y426822D01*
X310435D02*
X311912D01*
X316896Y190535D02*
Y192012D01*
X315420Y190535D02*
X316896D01*
Y202051D02*
Y203528D01*
X315420D02*
X316896D01*
X303904D02*
X305380D01*
X303904Y202051D02*
Y203528D01*
Y190535D02*
Y192012D01*
Y190535D02*
X305380D01*
X520924Y247300D02*
X530876D01*
X513400Y254824D02*
Y264776D01*
X520924Y272300D02*
X530876D01*
X274984Y265081D02*
Y266853D01*
X273213Y265081D02*
X274984D01*
X253528D02*
X255299D01*
X253528D02*
Y266853D01*
Y284766D02*
Y286538D01*
X255299D01*
X274984Y284766D02*
Y286538D01*
X273213D02*
X274984D01*
X108301Y232157D02*
Y251842D01*
X120899Y232157D02*
Y251842D01*
X108301D02*
X120899D01*
X108301Y232157D02*
X120899D01*
X245222Y258008D02*
X253490D01*
X245222Y247968D02*
X253490D01*
X430888Y289996D02*
X432365D01*
Y288520D02*
Y289996D01*
X419372D02*
X420849D01*
X419372Y288520D02*
Y289996D01*
Y277004D02*
Y278480D01*
Y277004D02*
X420849D01*
X430888D02*
X432365D01*
Y278480D01*
X488420Y316096D02*
X489896D01*
Y314620D02*
Y316096D01*
X476904D02*
X478380D01*
X476904Y314620D02*
Y316096D01*
Y303104D02*
Y304580D01*
Y303104D02*
X478380D01*
X488420D02*
X489896D01*
Y304580D01*
X244100Y454824D02*
Y464776D01*
X251624Y447300D02*
X261576D01*
X269100Y454824D02*
Y464776D01*
X144100Y454824D02*
Y464776D01*
X151624Y447300D02*
X161576D01*
X169100Y454824D02*
Y464776D01*
X469100Y454824D02*
Y464776D01*
X451624Y447300D02*
X461576D01*
X444100Y454824D02*
Y464776D01*
X369100Y454824D02*
Y464776D01*
X351624Y447300D02*
X361576D01*
X344100Y454824D02*
Y464776D01*
X54235Y355859D02*
X58565D01*
X54235Y350724D02*
X58565D01*
X54135Y365659D02*
X58465D01*
X54135Y360524D02*
X58465D01*
X520924Y472300D02*
X530876D01*
X513400Y454824D02*
Y464776D01*
X520924Y447300D02*
X530876D01*
D15*
X361205Y262800D02*
X395205D01*
Y292800D01*
X361205D02*
X395205D01*
X361205Y262800D02*
Y292800D01*
X362233Y212662D02*
Y210996D01*
X361400Y210163D01*
X365565Y212662D02*
Y210996D01*
X364732Y210163D01*
X368064Y206830D02*
Y210163D01*
X369731Y211829D01*
X371397Y210163D01*
Y206830D01*
Y209330D01*
X368064D01*
X373063Y206830D02*
X374729D01*
X373896D01*
Y211829D01*
X373063D01*
X377228Y206830D02*
X378894D01*
X378061D01*
Y211829D01*
X377228D01*
X386392Y206830D02*
X388891D01*
X389724Y207663D01*
X388891Y208496D01*
X387225D01*
X386392Y209330D01*
X387225Y210163D01*
X389724D01*
X391390Y206830D02*
X393056D01*
X392223D01*
Y210163D01*
X391390D01*
X395556Y206830D02*
Y210163D01*
X398055D01*
X398888Y209330D01*
Y206830D01*
X400554D02*
X403053D01*
X403886Y207663D01*
X403053Y208496D01*
X401387D01*
X400554Y209330D01*
X401387Y210163D01*
X403886D01*
X411384D02*
X413050D01*
X413883Y209330D01*
Y206830D01*
X411384D01*
X410551Y207663D01*
X411384Y208496D01*
X413883D01*
X415549Y210163D02*
Y206830D01*
Y208496D01*
X416382Y209330D01*
X417215Y210163D01*
X418048D01*
X423047Y206830D02*
X421381D01*
X420547Y207663D01*
Y209330D01*
X421381Y210163D01*
X423047D01*
X423880Y209330D01*
Y208496D01*
X420547D01*
X431377Y206830D02*
Y210996D01*
Y209330D01*
X430544D01*
X432210D01*
X431377D01*
Y210996D01*
X432210Y211829D01*
X435543Y206830D02*
X437209D01*
X438042Y207663D01*
Y209330D01*
X437209Y210163D01*
X435543D01*
X434710Y209330D01*
Y207663D01*
X435543Y206830D01*
X439708Y210163D02*
Y206830D01*
Y208496D01*
X440541Y209330D01*
X441374Y210163D01*
X442207D01*
X446373Y205164D02*
X447206D01*
X448039Y205997D01*
Y210163D01*
X445539D01*
X444706Y209330D01*
Y207663D01*
X445539Y206830D01*
X448039D01*
X449705D02*
X451371D01*
X450538D01*
Y210163D01*
X449705D01*
X453870D02*
X455536Y206830D01*
X457202Y210163D01*
X461368Y206830D02*
X459701D01*
X458868Y207663D01*
Y209330D01*
X459701Y210163D01*
X461368D01*
X462201Y209330D01*
Y208496D01*
X458868D01*
X463867Y206830D02*
Y210163D01*
X466366D01*
X467199Y209330D01*
Y206830D01*
X474697Y210163D02*
X476363D01*
X477196Y209330D01*
Y206830D01*
X474697D01*
X473864Y207663D01*
X474697Y208496D01*
X477196D01*
X479695Y210996D02*
Y210163D01*
X478862D01*
X480528D01*
X479695D01*
Y207663D01*
X480528Y206830D01*
X488026D02*
X489692D01*
X488859D01*
Y211829D01*
X488026Y210996D01*
X492191D02*
X493024Y211829D01*
X494690D01*
X495523Y210996D01*
Y210163D01*
X494690Y209330D01*
X493857D01*
X494690D01*
X495523Y208496D01*
Y207663D01*
X494690Y206830D01*
X493024D01*
X492191Y207663D01*
X502188Y206830D02*
Y211829D01*
X503854Y210163D01*
X505520Y211829D01*
Y206830D01*
X507186Y211829D02*
Y206830D01*
Y209330D01*
X510518D01*
Y211829D01*
Y206830D01*
X512184Y210163D02*
X515517D01*
X512184Y206830D01*
X515517D01*
X518016Y212662D02*
Y210996D01*
X517183Y210163D01*
X521348Y212662D02*
Y210996D01*
X520515Y210163D01*
X361400Y199265D02*
X364732D01*
X371397Y196766D02*
Y200098D01*
X373063Y201764D01*
X374729Y200098D01*
Y196766D01*
Y199265D01*
X371397D01*
X376395Y196766D02*
X378061D01*
X377228D01*
Y201764D01*
X376395D01*
X381394Y200098D02*
X383060D01*
X383893Y199265D01*
Y196766D01*
X381394D01*
X380560Y197599D01*
X381394Y198432D01*
X383893D01*
X385559Y196766D02*
Y200098D01*
X388058D01*
X388891Y199265D01*
Y196766D01*
X390557D02*
X393056D01*
X393889Y197599D01*
X393056Y198432D01*
X391390D01*
X390557Y199265D01*
X391390Y200098D01*
X393889D01*
X396389Y196766D02*
X398055D01*
X398888Y197599D01*
Y199265D01*
X398055Y200098D01*
X396389D01*
X395556Y199265D01*
Y197599D01*
X396389Y196766D01*
X400554D02*
Y200098D01*
X403053D01*
X403886Y199265D01*
Y196766D01*
X413883Y200931D02*
X413050Y201764D01*
X411384D01*
X410551Y200931D01*
Y200098D01*
X411384Y199265D01*
X413050D01*
X413883Y198432D01*
Y197599D01*
X413050Y196766D01*
X411384D01*
X410551Y197599D01*
X416382Y200098D02*
X418048D01*
X418881Y199265D01*
Y196766D01*
X416382D01*
X415549Y197599D01*
X416382Y198432D01*
X418881D01*
X420547Y196766D02*
Y200098D01*
X421381D01*
X422214Y199265D01*
Y196766D01*
Y199265D01*
X423047Y200098D01*
X423880Y199265D01*
Y196766D01*
X425546Y195100D02*
Y200098D01*
X428045D01*
X428878Y199265D01*
Y197599D01*
X428045Y196766D01*
X425546D01*
X430544D02*
X432210D01*
X431377D01*
Y201764D01*
X430544D01*
X437209Y196766D02*
X435543D01*
X434710Y197599D01*
Y199265D01*
X435543Y200098D01*
X437209D01*
X438042Y199265D01*
Y198432D01*
X434710D01*
X379199Y412393D02*
X375200D01*
Y406395D01*
X379199D01*
X375200Y409394D02*
X377199D01*
X385197Y412393D02*
X381198D01*
Y406395D01*
X385197D01*
X381198Y409394D02*
X383197D01*
X391195Y411394D02*
X390195Y412393D01*
X388196D01*
X387196Y411394D01*
Y407395D01*
X388196Y406395D01*
X390195D01*
X391195Y407395D01*
X397193Y411394D02*
X396193Y412393D01*
X394194D01*
X393194Y411394D01*
Y410394D01*
X394194Y409394D01*
X396193D01*
X397193Y408395D01*
Y407395D01*
X396193Y406395D01*
X394194D01*
X393194Y407395D01*
X408189Y406395D02*
Y412393D01*
X405190Y409394D01*
X409189D01*
X411188Y412393D02*
X415187D01*
Y411394D01*
X411188Y407395D01*
Y406395D01*
X417186Y411394D02*
X418186Y412393D01*
X420186D01*
X421185Y411394D01*
Y410394D01*
X420186Y409394D01*
X419186D01*
X420186D01*
X421185Y408395D01*
Y407395D01*
X420186Y406395D01*
X418186D01*
X417186Y407395D01*
X433181Y412393D02*
X429182D01*
Y409394D01*
X431182D01*
X429182D01*
Y406395D01*
X439179D02*
X435181D01*
X439179Y410394D01*
Y411394D01*
X438180Y412393D01*
X436180D01*
X435181Y411394D01*
X441179D02*
X442178Y412393D01*
X444178D01*
X445177Y411394D01*
Y410394D01*
X444178Y409394D01*
X443178D01*
X444178D01*
X445177Y408395D01*
Y407395D01*
X444178Y406395D01*
X442178D01*
X441179Y407395D01*
X375200Y396798D02*
Y402796D01*
X377199Y400796D01*
X379199Y402796D01*
Y396798D01*
X382198Y400796D02*
X384197D01*
X385197Y399797D01*
Y396798D01*
X382198D01*
X381198Y397797D01*
X382198Y398797D01*
X385197D01*
X387196Y396798D02*
X389195D01*
X388196D01*
Y400796D01*
X387196D01*
X392195D02*
X396193D01*
X392195Y396798D01*
X396193D01*
X401192D02*
X399192D01*
X398193Y397797D01*
Y399797D01*
X399192Y400796D01*
X401192D01*
X402191Y399797D01*
Y398797D01*
X398193D01*
X410189Y402796D02*
X414187D01*
X412188D01*
Y396798D01*
X417186D02*
X419186D01*
X420186Y397797D01*
Y399797D01*
X419186Y400796D01*
X417186D01*
X416187Y399797D01*
Y397797D01*
X417186Y396798D01*
X422185D02*
X425184D01*
X426184Y397797D01*
X425184Y398797D01*
X423184D01*
X422185Y399797D01*
X423184Y400796D01*
X426184D01*
X428183Y396798D02*
X431182D01*
X432182Y397797D01*
X431182Y398797D01*
X429182D01*
X428183Y399797D01*
X429182Y400796D01*
X432182D01*
X379199Y392198D02*
X378199Y393198D01*
X376200D01*
X375200Y392198D01*
Y388200D01*
X376200Y387200D01*
X378199D01*
X379199Y388200D01*
X382198Y387200D02*
X384197D01*
X385197Y388200D01*
Y390199D01*
X384197Y391199D01*
X382198D01*
X381198Y390199D01*
Y388200D01*
X382198Y387200D01*
X387196Y391199D02*
Y387200D01*
Y389199D01*
X388196Y390199D01*
X389195Y391199D01*
X390195D01*
X393194Y387200D02*
Y391199D01*
X396193D01*
X397193Y390199D01*
Y387200D01*
X399192Y393198D02*
Y387200D01*
Y390199D01*
X400192Y391199D01*
X402191D01*
X403191Y390199D01*
Y387200D01*
X406190D02*
X408189D01*
X409189Y388200D01*
Y390199D01*
X408189Y391199D01*
X406190D01*
X405190Y390199D01*
Y388200D01*
X406190Y387200D01*
X411188D02*
X413188D01*
X412188D01*
Y393198D01*
X411188D01*
X419186Y387200D02*
X417186D01*
X416187Y388200D01*
Y390199D01*
X417186Y391199D01*
X419186D01*
X420186Y390199D01*
Y389199D01*
X416187D01*
X428183Y393198D02*
Y387200D01*
X431182D01*
X432182Y388200D01*
Y389199D01*
X431182Y390199D01*
X428183D01*
X431182D01*
X432182Y391199D01*
Y392198D01*
X431182Y393198D01*
X428183D01*
X435181Y387200D02*
X437180D01*
X438180Y388200D01*
Y390199D01*
X437180Y391199D01*
X435181D01*
X434181Y390199D01*
Y388200D01*
X435181Y387200D01*
X441179Y391199D02*
X443178D01*
X444178Y390199D01*
Y387200D01*
X441179D01*
X440179Y388200D01*
X441179Y389199D01*
X444178D01*
X446177Y391199D02*
Y387200D01*
Y389199D01*
X447177Y390199D01*
X448176Y391199D01*
X449176D01*
X456174Y393198D02*
Y387200D01*
X453175D01*
X452175Y388200D01*
Y390199D01*
X453175Y391199D01*
X456174D01*
X464171Y393198D02*
Y388200D01*
X465171Y387200D01*
X467170D01*
X468170Y388200D01*
Y393198D01*
X470169Y387200D02*
Y391199D01*
X473168D01*
X474168Y390199D01*
Y387200D01*
X476167D02*
X478167D01*
X477167D01*
Y391199D01*
X476167D01*
X482165Y392198D02*
Y391199D01*
X481166D01*
X483165D01*
X482165D01*
Y388200D01*
X483165Y387200D01*
X375500Y371924D02*
Y376923D01*
X378832Y371924D01*
Y376923D01*
X381331Y375257D02*
X382998D01*
X383831Y374424D01*
Y371924D01*
X381331D01*
X380498Y372758D01*
X381331Y373591D01*
X383831D01*
X386330Y376090D02*
Y375257D01*
X385497D01*
X387163D01*
X386330D01*
Y372758D01*
X387163Y371924D01*
X389662Y376923D02*
Y371924D01*
Y374424D01*
X390495Y375257D01*
X392161D01*
X392994Y374424D01*
Y371924D01*
X395494Y375257D02*
X397160D01*
X397993Y374424D01*
Y371924D01*
X395494D01*
X394660Y372758D01*
X395494Y373591D01*
X397993D01*
X399659Y371924D02*
Y375257D01*
X402158D01*
X402991Y374424D01*
Y371924D01*
X404657D02*
X406323D01*
X405490D01*
Y375257D01*
X404657D01*
X411322Y371924D02*
X409656D01*
X408822Y372758D01*
Y374424D01*
X409656Y375257D01*
X411322D01*
X412155Y374424D01*
Y373591D01*
X408822D01*
X413821Y371924D02*
X415487D01*
X414654D01*
Y376923D01*
X413821D01*
X422985D02*
Y371924D01*
Y373591D01*
X426317Y376923D01*
X423818Y374424D01*
X426317Y371924D01*
X428816Y375257D02*
X430482D01*
X431315Y374424D01*
Y371924D01*
X428816D01*
X427983Y372758D01*
X428816Y373591D01*
X431315D01*
X432981Y371924D02*
X434648D01*
X433814D01*
Y376923D01*
X432981D01*
X437980Y375257D02*
X439646D01*
X440479Y374424D01*
Y371924D01*
X437980D01*
X437147Y372758D01*
X437980Y373591D01*
X440479D01*
X442145Y371924D02*
Y375257D01*
X444644D01*
X445477Y374424D01*
Y371924D01*
X447976Y376090D02*
Y375257D01*
X447144D01*
X448810D01*
X447976D01*
Y372758D01*
X448810Y371924D01*
X452142Y375257D02*
X453808D01*
X454641Y374424D01*
Y371924D01*
X452142D01*
X451309Y372758D01*
X452142Y373591D01*
X454641D01*
X456307Y375257D02*
Y371924D01*
Y373591D01*
X457140Y374424D01*
X457973Y375257D01*
X458806D01*
X378832Y368525D02*
X375500D01*
Y363526D01*
X378832D01*
X375500Y366026D02*
X377166D01*
X380498Y366859D02*
X382165Y363526D01*
X383831Y366859D01*
X386330D02*
X387996D01*
X388829Y366026D01*
Y363526D01*
X386330D01*
X385497Y364359D01*
X386330Y365193D01*
X388829D01*
X390495Y363526D02*
Y366859D01*
X392994D01*
X393827Y366026D01*
Y363526D01*
X403824Y368525D02*
X400492D01*
Y363526D01*
X403824D01*
X400492Y366026D02*
X402158D01*
X405490Y363526D02*
X407156D01*
X406323D01*
Y366859D01*
X405490D01*
X412988Y368525D02*
Y363526D01*
X410489D01*
X409656Y364359D01*
Y366026D01*
X410489Y366859D01*
X412988D01*
X415487Y367692D02*
Y366859D01*
X414654D01*
X416320D01*
X415487D01*
Y364359D01*
X416320Y363526D01*
X375500Y355128D02*
Y360127D01*
X377166Y358461D01*
X378832Y360127D01*
Y355128D01*
X381331Y358461D02*
X382998D01*
X383831Y357628D01*
Y355128D01*
X381331D01*
X380498Y355961D01*
X381331Y356795D01*
X383831D01*
X385497Y355128D02*
X387163D01*
X386330D01*
Y358461D01*
X385497D01*
X390495D02*
X392161D01*
X392994Y357628D01*
Y355128D01*
X390495D01*
X389662Y355961D01*
X390495Y356795D01*
X392994D01*
X399659Y360127D02*
Y355128D01*
Y357628D01*
X402991D01*
Y360127D01*
Y355128D01*
X407156D02*
X405490D01*
X404657Y355961D01*
Y357628D01*
X405490Y358461D01*
X407156D01*
X407990Y357628D01*
Y356795D01*
X404657D01*
X409656Y358461D02*
Y355128D01*
Y356795D01*
X410489Y357628D01*
X411322Y358461D01*
X412155D01*
X414654D02*
Y355128D01*
Y356795D01*
X415487Y357628D01*
X416320Y358461D01*
X417153D01*
X419652Y355128D02*
X421318D01*
X420485D01*
Y358461D01*
X419652D01*
X423818Y355128D02*
Y358461D01*
X426317D01*
X427150Y357628D01*
Y355128D01*
X430482Y353462D02*
X431315D01*
X432148Y354295D01*
Y358461D01*
X429649D01*
X428816Y357628D01*
Y355961D01*
X429649Y355128D01*
X432148D01*
X434648Y359294D02*
Y358461D01*
X433814D01*
X435481D01*
X434648D01*
Y355961D01*
X435481Y355128D01*
X438813D02*
X440479D01*
X441312Y355961D01*
Y357628D01*
X440479Y358461D01*
X438813D01*
X437980Y357628D01*
Y355961D01*
X438813Y355128D01*
X442978D02*
Y358461D01*
X445477D01*
X446310Y357628D01*
Y355128D01*
X378832Y350063D02*
X375500D01*
Y345064D01*
X378832D01*
X375500Y347563D02*
X377166D01*
X380498Y345064D02*
X382165D01*
X381331D01*
Y350063D01*
X380498D01*
X384664D02*
Y345064D01*
Y347563D01*
X385497Y348396D01*
X387163D01*
X387996Y347563D01*
Y345064D01*
X390495Y348396D02*
X392161D01*
X392994Y347563D01*
Y345064D01*
X390495D01*
X389662Y345897D01*
X390495Y346730D01*
X392994D01*
X394660Y345064D02*
Y348396D01*
X395494D01*
X396327Y347563D01*
Y345064D01*
Y347563D01*
X397160Y348396D01*
X397993Y347563D01*
Y345064D01*
X404657Y350063D02*
X406323D01*
X405490D01*
Y345064D01*
X404657D01*
X406323D01*
X408822D02*
X411322D01*
X412155Y345897D01*
X411322Y346730D01*
X409656D01*
X408822Y347563D01*
X409656Y348396D01*
X412155D01*
X413821Y345064D02*
X415487D01*
X414654D01*
Y350063D01*
X413821D01*
X418819Y348396D02*
X420485D01*
X421318Y347563D01*
Y345064D01*
X418819D01*
X417986Y345897D01*
X418819Y346730D01*
X421318D01*
X422985Y345064D02*
Y348396D01*
X423818D01*
X424651Y347563D01*
Y345064D01*
Y347563D01*
X425484Y348396D01*
X426317Y347563D01*
Y345064D01*
X378832Y341665D02*
X377166D01*
X377999D01*
Y337499D01*
X377166Y336666D01*
X376333D01*
X375500Y337499D01*
X381331Y336666D02*
X382998D01*
X383831Y337499D01*
Y339165D01*
X382998Y339998D01*
X381331D01*
X380498Y339165D01*
Y337499D01*
X381331Y336666D01*
X385497D02*
X387996D01*
X388829Y337499D01*
X387996Y338332D01*
X386330D01*
X385497Y339165D01*
X386330Y339998D01*
X388829D01*
X392994Y336666D02*
X391328D01*
X390495Y337499D01*
Y339165D01*
X391328Y339998D01*
X392994D01*
X393827Y339165D01*
Y338332D01*
X390495D01*
X400492Y341665D02*
Y338332D01*
X402158Y336666D01*
X403824Y338332D01*
Y341665D01*
X406323Y339998D02*
X407990D01*
X408822Y339165D01*
Y336666D01*
X406323D01*
X405490Y337499D01*
X406323Y338332D01*
X408822D01*
X410489Y339998D02*
Y336666D01*
Y338332D01*
X411322Y339165D01*
X412155Y339998D01*
X412988D01*
X417153Y335000D02*
X417986D01*
X418819Y335833D01*
Y339998D01*
X416320D01*
X415487Y339165D01*
Y337499D01*
X416320Y336666D01*
X418819D01*
X421318Y339998D02*
X422985D01*
X423818Y339165D01*
Y336666D01*
X421318D01*
X420485Y337499D01*
X421318Y338332D01*
X423818D01*
X425484Y336666D02*
X427983D01*
X428816Y337499D01*
X427983Y338332D01*
X426317D01*
X425484Y339165D01*
X426317Y339998D01*
X428816D01*
X110185Y426102D02*
Y431100D01*
X107685D01*
X106852Y430267D01*
Y429434D01*
X107685Y428601D01*
X110185D01*
X107685D01*
X106852Y427768D01*
Y426935D01*
X107685Y426102D01*
X110185D01*
X105186D02*
Y431100D01*
X101854D01*
X96856Y426102D02*
X100188D01*
Y431100D01*
X96856D01*
X100188Y428601D02*
X98522D01*
X90191Y431100D02*
Y426102D01*
X88525Y427768D01*
X86859Y426102D01*
Y431100D01*
X84360D02*
X82693D01*
X81861Y430267D01*
Y428601D01*
X82693Y427768D01*
X84360D01*
X85193Y428601D01*
Y430267D01*
X84360Y431100D01*
X76862Y426102D02*
Y431100D01*
X79361D01*
X80194Y430267D01*
Y428601D01*
X79361Y427768D01*
X76862D01*
X75196D02*
Y430267D01*
X74363Y431100D01*
X71864D01*
Y427768D01*
X70198Y431100D02*
X68531D01*
X69365D01*
Y426102D01*
X70198D01*
X63533Y431100D02*
X65199D01*
X66032Y430267D01*
Y428601D01*
X65199Y427768D01*
X63533D01*
X62700Y428601D01*
Y429434D01*
X66032D01*
X139096Y469900D02*
Y466568D01*
X137430Y464902D01*
X135764Y466568D01*
Y469900D01*
Y467401D01*
X139096D01*
X134098Y469900D02*
X132431D01*
X133265D01*
Y464902D01*
X134098Y465735D01*
X126600Y469900D02*
X129932D01*
X126600Y466568D01*
Y465735D01*
X127433Y464902D01*
X129099D01*
X129932Y465735D01*
X238030Y469900D02*
Y466568D01*
X236364Y464902D01*
X234698Y466568D01*
Y469900D01*
Y467401D01*
X238030D01*
X233031Y469900D02*
X231365D01*
X232198D01*
Y464902D01*
X233031Y465735D01*
X228866Y469900D02*
X227200D01*
X228033D01*
Y464902D01*
X228866Y465735D01*
X339296Y469900D02*
Y466568D01*
X337630Y464902D01*
X335964Y466568D01*
Y469900D01*
Y467401D01*
X339296D01*
X334298Y469900D02*
X332631D01*
X333465D01*
Y464902D01*
X334298Y465735D01*
X330132D02*
X329299Y464902D01*
X327633D01*
X326800Y465735D01*
Y469067D01*
X327633Y469900D01*
X329299D01*
X330132Y469067D01*
Y465735D01*
X438531Y469900D02*
Y466568D01*
X436865Y464902D01*
X435198Y466568D01*
Y469900D01*
Y467401D01*
X438531D01*
X433532Y469067D02*
X432699Y469900D01*
X431033D01*
X430200Y469067D01*
Y465735D01*
X431033Y464902D01*
X432699D01*
X433532Y465735D01*
Y466568D01*
X432699Y467401D01*
X430200D01*
X536700Y179569D02*
X533368D01*
X531702Y181236D01*
X533368Y182902D01*
X536700D01*
X534201D01*
Y179569D01*
X531702Y187900D02*
Y184568D01*
X534201D01*
X533368Y186234D01*
Y187067D01*
X534201Y187900D01*
X535867D01*
X536700Y187067D01*
Y185401D01*
X535867Y184568D01*
X536700Y278669D02*
X533368D01*
X531702Y280335D01*
X533368Y282002D01*
X536700D01*
X534201D01*
Y278669D01*
X531702Y287000D02*
X532535Y285334D01*
X534201Y283668D01*
X535867D01*
X536700Y284501D01*
Y286167D01*
X535867Y287000D01*
X535034D01*
X534201Y286167D01*
Y283668D01*
X536700Y378169D02*
X533368D01*
X531702Y379836D01*
X533368Y381502D01*
X536700D01*
X534201D01*
Y378169D01*
X531702Y383168D02*
Y386500D01*
X532535D01*
X535867Y383168D01*
X536700D01*
Y433469D02*
X533368D01*
X531702Y435136D01*
X533368Y436802D01*
X536700D01*
X534201D01*
Y433469D01*
X532535Y438468D02*
X531702Y439301D01*
Y440967D01*
X532535Y441800D01*
X533368D01*
X534201Y440967D01*
X535034Y441800D01*
X535867D01*
X536700Y440967D01*
Y439301D01*
X535867Y438468D01*
X535034D01*
X534201Y439301D01*
X533368Y438468D01*
X532535D01*
X534201Y439301D02*
Y440967D01*
X473269Y148700D02*
Y152032D01*
X474935Y153698D01*
X476602Y152032D01*
Y148700D01*
Y151199D01*
X473269D01*
X480767Y148700D02*
Y153698D01*
X478268Y151199D01*
X481600D01*
X374069Y148700D02*
Y152032D01*
X375735Y153698D01*
X377402Y152032D01*
Y148700D01*
Y151199D01*
X374069D01*
X379068Y152865D02*
X379901Y153698D01*
X381567D01*
X382400Y152865D01*
Y152032D01*
X381567Y151199D01*
X380734D01*
X381567D01*
X382400Y150366D01*
Y149533D01*
X381567Y148700D01*
X379901D01*
X379068Y149533D01*
X274469Y148700D02*
Y152032D01*
X276135Y153698D01*
X277802Y152032D01*
Y148700D01*
Y151199D01*
X274469D01*
X282800Y148700D02*
X279468D01*
X282800Y152032D01*
Y152865D01*
X281967Y153698D01*
X280301D01*
X279468Y152865D01*
X173435Y148700D02*
Y152032D01*
X175102Y153698D01*
X176768Y152032D01*
Y148700D01*
Y151199D01*
X173435D01*
X178434Y148700D02*
X180100D01*
X179267D01*
Y153698D01*
X178434Y152865D01*
X50726Y208664D02*
Y203666D01*
X53225D01*
X54058Y204499D01*
Y205332D01*
X53225Y206165D01*
X50726D01*
X53225D01*
X54058Y206998D01*
Y207831D01*
X53225Y208664D01*
X50726D01*
X56557Y206998D02*
X58223D01*
X59057Y206165D01*
Y203666D01*
X56557D01*
X55724Y204499D01*
X56557Y205332D01*
X59057D01*
X61556Y207831D02*
Y206998D01*
X60723D01*
X62389D01*
X61556D01*
Y204499D01*
X62389Y203666D01*
X65721Y207831D02*
Y206998D01*
X64888D01*
X66554D01*
X65721D01*
Y204499D01*
X66554Y203666D01*
X71552D02*
X69886D01*
X69053Y204499D01*
Y206165D01*
X69886Y206998D01*
X71552D01*
X72386Y206165D01*
Y205332D01*
X69053D01*
X74052Y206998D02*
Y203666D01*
Y205332D01*
X74885Y206165D01*
X75718Y206998D01*
X76551D01*
X79050D02*
Y204499D01*
X79883Y203666D01*
X82382D01*
Y202833D01*
X81549Y202000D01*
X80716D01*
X82382Y203666D02*
Y206998D01*
X92379Y207831D02*
X91546Y208664D01*
X89880D01*
X89047Y207831D01*
Y204499D01*
X89880Y203666D01*
X91546D01*
X92379Y204499D01*
X94878Y203666D02*
X96544D01*
X97378Y204499D01*
Y206165D01*
X96544Y206998D01*
X94878D01*
X94045Y206165D01*
Y204499D01*
X94878Y203666D01*
X99044D02*
Y206998D01*
X101543D01*
X102376Y206165D01*
Y203666D01*
X104042D02*
Y206998D01*
X106541D01*
X107374Y206165D01*
Y203666D01*
X111539D02*
X109873D01*
X109040Y204499D01*
Y206165D01*
X109873Y206998D01*
X111539D01*
X112373Y206165D01*
Y205332D01*
X109040D01*
X117371Y206998D02*
X114872D01*
X114039Y206165D01*
Y204499D01*
X114872Y203666D01*
X117371D01*
X119870Y207831D02*
Y206998D01*
X119037D01*
X120703D01*
X119870D01*
Y204499D01*
X120703Y203666D01*
X125702D02*
X124036D01*
X123202Y204499D01*
Y206165D01*
X124036Y206998D01*
X125702D01*
X126535Y206165D01*
Y205332D01*
X123202D01*
X128201Y206998D02*
Y203666D01*
Y205332D01*
X129034Y206165D01*
X129867Y206998D01*
X130700D01*
X62000Y455006D02*
X58001D01*
Y457005D01*
X58668Y457672D01*
X60001D01*
X60667Y457005D01*
Y455006D01*
X62000Y459004D02*
Y460337D01*
Y459671D01*
X59334D01*
Y459004D01*
X62000Y462337D02*
X59334D01*
Y464336D01*
X60001Y465003D01*
X62000D01*
Y472334D02*
X58001D01*
X60001Y470334D01*
Y473000D01*
X114700Y456039D02*
X110701D01*
Y458038D01*
X111368Y458705D01*
X112701D01*
X113367Y458038D01*
Y456039D01*
X114700Y460037D02*
Y461370D01*
Y460704D01*
X112034D01*
Y460037D01*
X114700Y463370D02*
X112034D01*
Y465369D01*
X112701Y466036D01*
X114700D01*
Y471367D02*
Y472700D01*
Y472034D01*
X110701D01*
X111368Y471367D01*
X125301Y178000D02*
X129300D01*
X55901Y178399D02*
X59900D01*
X57901Y180399D02*
Y176400D01*
X151766Y418232D02*
X151099Y418899D01*
X149767D01*
X149100Y418232D01*
Y417566D01*
X149767Y416899D01*
X151099D01*
X151766Y416233D01*
Y415566D01*
X151099Y414900D01*
X149767D01*
X149100Y415566D01*
X153099Y418899D02*
Y414900D01*
X154432Y416233D01*
X155764Y414900D01*
Y418899D01*
X159763Y418232D02*
X159097Y418899D01*
X157764D01*
X157097Y418232D01*
Y415566D01*
X157764Y414900D01*
X159097D01*
X159763Y415566D01*
X161096Y418899D02*
Y414900D01*
X163762D01*
X165095Y418899D02*
Y414900D01*
Y416233D01*
X167761Y418899D01*
X165761Y416899D01*
X167761Y414900D01*
X151766Y398232D02*
X151099Y398899D01*
X149767D01*
X149100Y398232D01*
Y397566D01*
X149767Y396899D01*
X151099D01*
X151766Y396233D01*
Y395566D01*
X151099Y394900D01*
X149767D01*
X149100Y395566D01*
X153099Y398899D02*
Y394900D01*
X154432Y396233D01*
X155764Y394900D01*
Y398899D01*
X159097D02*
X157764D01*
X157097Y398232D01*
Y395566D01*
X157764Y394900D01*
X159097D01*
X159763Y395566D01*
Y398232D01*
X159097Y398899D01*
X151766Y408232D02*
X151099Y408899D01*
X149767D01*
X149100Y408232D01*
Y405566D01*
X149767Y404900D01*
X151099D01*
X151766Y405566D01*
Y406899D01*
X150433D01*
X153099Y404900D02*
Y408899D01*
X155764Y404900D01*
Y408899D01*
X157097D02*
Y404900D01*
X159097D01*
X159763Y405566D01*
Y408232D01*
X159097Y408899D01*
X157097D01*
X105772Y418232D02*
X105105Y418899D01*
X103772D01*
X103106Y418232D01*
Y417566D01*
X103772Y416899D01*
X105105D01*
X105772Y416233D01*
Y415566D01*
X105105Y414900D01*
X103772D01*
X103106Y415566D01*
X107105Y418899D02*
Y414900D01*
X108437Y416233D01*
X109770Y414900D01*
Y418899D01*
X111103D02*
Y414900D01*
X113103D01*
X113769Y415566D01*
Y418232D01*
X113103Y418899D01*
X111103D01*
X115102D02*
X116435D01*
X115768D01*
Y414900D01*
X115102D01*
X116435D01*
X120433Y418899D02*
X119101D01*
X118434Y418232D01*
Y415566D01*
X119101Y414900D01*
X120433D01*
X121100Y415566D01*
Y418232D01*
X120433Y418899D01*
X106438Y404900D02*
Y408899D01*
X109104Y404900D01*
Y408899D01*
X110437Y404900D02*
Y408899D01*
X112436D01*
X113103Y408232D01*
Y406899D01*
X112436Y406233D01*
X110437D01*
X111770D02*
X113103Y404900D01*
X117101Y408232D02*
X116435Y408899D01*
X115102D01*
X114436Y408232D01*
Y407566D01*
X115102Y406899D01*
X116435D01*
X117101Y406233D01*
Y405566D01*
X116435Y404900D01*
X115102D01*
X114436Y405566D01*
X118434Y408899D02*
X121100D01*
X119767D01*
Y404900D01*
X110437Y398232D02*
X111103Y398899D01*
X112436D01*
X113103Y398232D01*
Y397566D01*
X112436Y396899D01*
X111770D01*
X112436D01*
X113103Y396233D01*
Y395566D01*
X112436Y394900D01*
X111103D01*
X110437Y395566D01*
X114436Y398899D02*
Y396233D01*
X115768Y394900D01*
X117101Y396233D01*
Y398899D01*
X118434Y398232D02*
X119101Y398899D01*
X120433D01*
X121100Y398232D01*
Y397566D01*
X120433Y396899D01*
X119767D01*
X120433D01*
X121100Y396233D01*
Y395566D01*
X120433Y394900D01*
X119101D01*
X118434Y395566D01*
X331467Y256301D02*
X330801Y255634D01*
Y254301D01*
X331467Y253635D01*
X334133D01*
X334799Y254301D01*
Y255634D01*
X334133Y256301D01*
X334799Y259633D02*
X330801D01*
X332800Y257634D01*
Y260299D01*
X334799Y261632D02*
Y262965D01*
Y262299D01*
X330801D01*
X331467Y261632D01*
X403334Y298833D02*
X402668Y299499D01*
X401335D01*
X400668Y298833D01*
Y296167D01*
X401335Y295501D01*
X402668D01*
X403334Y296167D01*
Y297500D01*
X402001D01*
X404667Y295501D02*
Y299499D01*
X407333Y295501D01*
Y299499D01*
X408666D02*
Y295501D01*
X410665D01*
X411332Y296167D01*
Y298833D01*
X410665Y299499D01*
X408666D01*
X345868Y295634D02*
Y298300D01*
X347201Y299633D01*
X348534Y298300D01*
Y295634D01*
Y297633D01*
X345868D01*
X349867Y294967D02*
X352533D01*
X353866Y295634D02*
Y299633D01*
X356532Y295634D01*
Y299633D01*
X400668Y256734D02*
Y259400D01*
X402001Y260733D01*
X403334Y259400D01*
Y256734D01*
Y258733D01*
X400668D01*
X404667Y256067D02*
X407333D01*
X411332Y260066D02*
X410665Y260733D01*
X409332D01*
X408666Y260066D01*
Y259400D01*
X409332Y258733D01*
X410665D01*
X411332Y258067D01*
Y257400D01*
X410665Y256734D01*
X409332D01*
X408666Y257400D01*
X346268Y256734D02*
Y259400D01*
X347601Y260733D01*
X348934Y259400D01*
Y256734D01*
Y258733D01*
X346268D01*
X350267Y256067D02*
X352933D01*
X354266Y256734D02*
Y260733D01*
X356265D01*
X356932Y260066D01*
Y258733D01*
X356265Y258067D01*
X354266D01*
X31468Y437901D02*
Y441899D01*
X32801Y440566D01*
X34134Y441899D01*
Y437901D01*
X35467Y441899D02*
Y437901D01*
Y439900D01*
X38133D01*
Y441899D01*
Y437901D01*
X41465D02*
Y441899D01*
X39466Y439900D01*
X42132D01*
X479968Y437101D02*
Y441099D01*
X481301Y439766D01*
X482634Y441099D01*
Y437101D01*
X483967Y441099D02*
Y437101D01*
Y439100D01*
X486633D01*
Y441099D01*
Y437101D01*
X487966Y440433D02*
X488632Y441099D01*
X489965D01*
X490632Y440433D01*
Y439766D01*
X489965Y439100D01*
X489299D01*
X489965D01*
X490632Y438434D01*
Y437767D01*
X489965Y437101D01*
X488632D01*
X487966Y437767D01*
X480016Y182350D02*
Y186348D01*
X481349Y185015D01*
X482682Y186348D01*
Y182350D01*
X484015Y186348D02*
Y182350D01*
Y184349D01*
X486680D01*
Y186348D01*
Y182350D01*
X490679D02*
X488013D01*
X490679Y185015D01*
Y185682D01*
X490013Y186348D01*
X488680D01*
X488013Y185682D01*
X29383Y182350D02*
Y186348D01*
X30716Y185015D01*
X32048Y186348D01*
Y182350D01*
X33381Y186348D02*
Y182350D01*
Y184349D01*
X36047D01*
Y186348D01*
Y182350D01*
X37380D02*
X38713D01*
X38046D01*
Y186348D01*
X37380Y185682D01*
X127067Y428299D02*
X125734D01*
X126401D01*
Y424967D01*
X125734Y424301D01*
X125068D01*
X124402Y424967D01*
X128400Y424301D02*
X129733D01*
X129067D01*
Y428299D01*
X128400Y427633D01*
X133732Y424301D02*
Y428299D01*
X131733Y426300D01*
X134398D01*
X109934Y369083D02*
X109268Y369749D01*
X107935D01*
X107268Y369083D01*
Y366417D01*
X107935Y365751D01*
X109268D01*
X109934Y366417D01*
Y367750D01*
X108601D01*
X111267Y365751D02*
Y369749D01*
X113933Y365751D01*
Y369749D01*
X115266D02*
Y365751D01*
X117265D01*
X117932Y366417D01*
Y369083D01*
X117265Y369749D01*
X115266D01*
X51634Y246533D02*
X50968Y247199D01*
X49635D01*
X48968Y246533D01*
Y243867D01*
X49635Y243201D01*
X50968D01*
X51634Y243867D01*
Y245200D01*
X50301D01*
X52967Y243201D02*
Y247199D01*
X55633Y243201D01*
Y247199D01*
X56966D02*
Y243201D01*
X58965D01*
X59632Y243867D01*
Y246533D01*
X58965Y247199D01*
X56966D01*
X86168Y336033D02*
X86835Y336699D01*
X88168D01*
X88834Y336033D01*
Y335366D01*
X88168Y334700D01*
X87501D01*
X88168D01*
X88834Y334034D01*
Y333367D01*
X88168Y332701D01*
X86835D01*
X86168Y333367D01*
X90167Y336699D02*
Y334034D01*
X91500Y332701D01*
X92833Y334034D01*
Y336699D01*
X96832D02*
X95499Y336033D01*
X94166Y334700D01*
Y333367D01*
X94832Y332701D01*
X96165D01*
X96832Y333367D01*
Y334034D01*
X96165Y334700D01*
X94166D01*
X176115Y250278D02*
X176781Y250945D01*
X178114D01*
X178781Y250278D01*
Y249612D01*
X178114Y248945D01*
X177448D01*
X178114D01*
X178781Y248279D01*
Y247613D01*
X178114Y246946D01*
X176781D01*
X176115Y247613D01*
X180114Y250945D02*
Y248279D01*
X181447Y246946D01*
X182780Y248279D01*
Y250945D01*
X184112Y250278D02*
X184779Y250945D01*
X186112D01*
X186778Y250278D01*
Y249612D01*
X186112Y248945D01*
X185445D01*
X186112D01*
X186778Y248279D01*
Y247613D01*
X186112Y246946D01*
X184779D01*
X184112Y247613D01*
X40370Y224099D02*
Y221434D01*
X41703Y220101D01*
X43036Y221434D01*
Y224099D01*
X44368D02*
Y220101D01*
X46368D01*
X47034Y220767D01*
Y221434D01*
X46368Y222100D01*
X44368D01*
X46368D01*
X47034Y222766D01*
Y223433D01*
X46368Y224099D01*
X44368D01*
X48367Y220101D02*
Y222766D01*
X49700Y224099D01*
X51033Y222766D01*
Y220101D01*
Y222100D01*
X48367D01*
X52366Y224099D02*
X55032D01*
X53699D01*
Y220101D01*
X56365Y224099D02*
X59030D01*
X57697D01*
Y220101D01*
X107536Y355499D02*
Y351501D01*
X110201D01*
X114200Y355499D02*
X111534D01*
Y351501D01*
X114200D01*
X111534Y353500D02*
X112867D01*
X115533Y355499D02*
Y351501D01*
X117532D01*
X118199Y352167D01*
Y354833D01*
X117532Y355499D01*
X115533D01*
X119532Y351501D02*
X120864D01*
X120198D01*
Y355499D01*
X119532Y354833D01*
X107369Y384599D02*
Y380601D01*
X110035D01*
X114033Y384599D02*
X111368D01*
Y380601D01*
X114033D01*
X111368Y382600D02*
X112701D01*
X115366Y384599D02*
Y380601D01*
X117366D01*
X118032Y381267D01*
Y383933D01*
X117366Y384599D01*
X115366D01*
X119365Y383933D02*
X120032Y384599D01*
X121364D01*
X122031Y383933D01*
Y381267D01*
X121364Y380601D01*
X120032D01*
X119365Y381267D01*
Y383933D01*
X236167Y424334D02*
X235501Y423668D01*
Y422335D01*
X236167Y421668D01*
X238833D01*
X239499Y422335D01*
Y423668D01*
X238833Y424334D01*
X237500D01*
Y423001D01*
X239499Y425667D02*
X235501D01*
X239499Y428333D01*
X235501D01*
Y429666D02*
X239499D01*
Y431665D01*
X238833Y432332D01*
X236167D01*
X235501Y431665D01*
Y429666D01*
X212499Y421668D02*
X208501D01*
Y423667D01*
X209167Y424334D01*
X210500D01*
X211166Y423667D01*
Y421668D01*
Y423001D02*
X212499Y424334D01*
X208501Y425667D02*
X212499Y428332D01*
X208501D02*
X212499Y425667D01*
X221601Y421368D02*
Y424034D01*
Y422701D01*
X225599D01*
X221601Y425366D02*
X225599Y428032D01*
X221601D02*
X225599Y425366D01*
X340234Y367733D02*
X339568Y368399D01*
X338235D01*
X337568Y367733D01*
Y365067D01*
X338235Y364401D01*
X339568D01*
X340234Y365067D01*
Y366400D01*
X338901D01*
X341567Y364401D02*
Y368399D01*
X344233Y364401D01*
Y368399D01*
X345566D02*
Y364401D01*
X347565D01*
X348232Y365067D01*
Y367733D01*
X347565Y368399D01*
X345566D01*
X340034Y382233D02*
X339367Y382899D01*
X338034D01*
X337368Y382233D01*
Y379567D01*
X338034Y378901D01*
X339367D01*
X340034Y379567D01*
X344032Y382233D02*
X343366Y382899D01*
X342033D01*
X341367Y382233D01*
Y381566D01*
X342033Y380900D01*
X343366D01*
X344032Y380234D01*
Y379567D01*
X343366Y378901D01*
X342033D01*
X341367Y379567D01*
X302236Y364201D02*
Y368199D01*
X303568Y366866D01*
X304901Y368199D01*
Y364201D01*
X308234Y368199D02*
X306901D01*
X306234Y367533D01*
Y364867D01*
X306901Y364201D01*
X308234D01*
X308900Y364867D01*
Y367533D01*
X308234Y368199D01*
X312899Y367533D02*
X312232Y368199D01*
X310899D01*
X310233Y367533D01*
Y366866D01*
X310899Y366200D01*
X312232D01*
X312899Y365534D01*
Y364867D01*
X312232Y364201D01*
X310899D01*
X310233Y364867D01*
X314232Y368199D02*
X315564D01*
X314898D01*
Y364201D01*
X314232D01*
X315564D01*
X302102Y349301D02*
Y353299D01*
X303435Y351966D01*
X304768Y353299D01*
Y349301D01*
X306101Y353299D02*
X307434D01*
X306767D01*
Y349301D01*
X306101D01*
X307434D01*
X312099Y352633D02*
X311433Y353299D01*
X310100D01*
X309433Y352633D01*
Y351966D01*
X310100Y351300D01*
X311433D01*
X312099Y350634D01*
Y349967D01*
X311433Y349301D01*
X310100D01*
X309433Y349967D01*
X315431Y353299D02*
X314098D01*
X313432Y352633D01*
Y349967D01*
X314098Y349301D01*
X315431D01*
X316098Y349967D01*
Y352633D01*
X315431Y353299D01*
X304834Y382533D02*
X304168Y383199D01*
X302835D01*
X302168Y382533D01*
Y381866D01*
X302835Y381200D01*
X304168D01*
X304834Y380534D01*
Y379867D01*
X304168Y379201D01*
X302835D01*
X302168Y379867D01*
X308833Y382533D02*
X308166Y383199D01*
X306834D01*
X306167Y382533D01*
Y379867D01*
X306834Y379201D01*
X308166D01*
X308833Y379867D01*
X310166Y383199D02*
Y379201D01*
Y380534D01*
X312832Y383199D01*
X310832Y381200D01*
X312832Y379201D01*
X257267Y239101D02*
X256601Y238434D01*
Y237101D01*
X257267Y236435D01*
X259933D01*
X260599Y237101D01*
Y238434D01*
X259933Y239101D01*
X260599Y243099D02*
Y240434D01*
X257934Y243099D01*
X257267D01*
X256601Y242433D01*
Y241100D01*
X257267Y240434D01*
X260599Y244432D02*
Y245765D01*
Y245099D01*
X256601D01*
X257267Y244432D01*
X236867Y237434D02*
X236201Y236768D01*
Y235435D01*
X236867Y234768D01*
X239533D01*
X240199Y235435D01*
Y236768D01*
X239533Y237434D01*
X240199Y241433D02*
Y238767D01*
X237534Y241433D01*
X236867D01*
X236201Y240766D01*
Y239434D01*
X236867Y238767D01*
Y242766D02*
X236201Y243432D01*
Y244765D01*
X236867Y245432D01*
X239533D01*
X240199Y244765D01*
Y243432D01*
X239533Y242766D01*
X236867D01*
X331167Y328967D02*
X330501Y328301D01*
Y326968D01*
X331167Y326302D01*
X333833D01*
X334499Y326968D01*
Y328301D01*
X333833Y328967D01*
X334499Y330300D02*
Y331633D01*
Y330967D01*
X330501D01*
X331167Y330300D01*
X333833Y333633D02*
X334499Y334299D01*
Y335632D01*
X333833Y336298D01*
X331167D01*
X330501Y335632D01*
Y334299D01*
X331167Y333633D01*
X331834D01*
X332500Y334299D01*
Y336298D01*
X314792Y310533D02*
X314125Y311199D01*
X312792D01*
X312126Y310533D01*
Y307867D01*
X312792Y307201D01*
X314125D01*
X314792Y307867D01*
X316125Y307201D02*
X317458D01*
X316791D01*
Y311199D01*
X316125Y310533D01*
X319457D02*
X320123Y311199D01*
X321456D01*
X322123Y310533D01*
Y309866D01*
X321456Y309200D01*
X322123Y308534D01*
Y307867D01*
X321456Y307201D01*
X320123D01*
X319457Y307867D01*
Y308534D01*
X320123Y309200D01*
X319457Y309866D01*
Y310533D01*
X320123Y309200D02*
X321456D01*
X314692Y303333D02*
X314025Y303999D01*
X312692D01*
X312026Y303333D01*
Y300667D01*
X312692Y300001D01*
X314025D01*
X314692Y300667D01*
X316025Y300001D02*
X317358D01*
X316691D01*
Y303999D01*
X316025Y303333D01*
X319357Y303999D02*
X322023D01*
Y303333D01*
X319357Y300667D01*
Y300001D01*
X338167Y328735D02*
X337501Y328069D01*
Y326736D01*
X338167Y326069D01*
X340833D01*
X341499Y326736D01*
Y328069D01*
X340833Y328735D01*
X341499Y330068D02*
Y331401D01*
Y330734D01*
X337501D01*
X338167Y330068D01*
X337501Y336066D02*
X338167Y334733D01*
X339500Y333400D01*
X340833D01*
X341499Y334067D01*
Y335400D01*
X340833Y336066D01*
X340166D01*
X339500Y335400D01*
Y333400D01*
X344867Y315635D02*
X344201Y314969D01*
Y313636D01*
X344867Y312969D01*
X347533D01*
X348199Y313636D01*
Y314969D01*
X347533Y315635D01*
X348199Y316968D02*
Y318301D01*
Y317635D01*
X344201D01*
X344867Y316968D01*
X344201Y322966D02*
Y320300D01*
X346200D01*
X345534Y321633D01*
Y322300D01*
X346200Y322966D01*
X347533D01*
X348199Y322300D01*
Y320967D01*
X347533Y320300D01*
X338267Y315635D02*
X337601Y314969D01*
Y313636D01*
X338267Y312969D01*
X340933D01*
X341599Y313636D01*
Y314969D01*
X340933Y315635D01*
X341599Y316968D02*
Y318301D01*
Y317635D01*
X337601D01*
X338267Y316968D01*
X341599Y322300D02*
X337601D01*
X339600Y320300D01*
Y322966D01*
X331267Y315435D02*
X330601Y314769D01*
Y313436D01*
X331267Y312769D01*
X333933D01*
X334599Y313436D01*
Y314769D01*
X333933Y315435D01*
X334599Y316768D02*
Y318101D01*
Y317435D01*
X330601D01*
X331267Y316768D01*
Y320100D02*
X330601Y320767D01*
Y322100D01*
X331267Y322766D01*
X331934D01*
X332600Y322100D01*
Y321433D01*
Y322100D01*
X333266Y322766D01*
X333933D01*
X334599Y322100D01*
Y320767D01*
X333933Y320100D01*
X316267Y255033D02*
X315601Y255699D01*
X314268D01*
X313602Y255033D01*
Y252367D01*
X314268Y251701D01*
X315601D01*
X316267Y252367D01*
X317600Y251701D02*
X318933D01*
X318267D01*
Y255699D01*
X317600Y255033D01*
X323598Y251701D02*
X320933D01*
X323598Y254366D01*
Y255033D01*
X322932Y255699D01*
X321599D01*
X320933Y255033D01*
X316234Y248433D02*
X315567Y249099D01*
X314234D01*
X313568Y248433D01*
Y245767D01*
X314234Y245101D01*
X315567D01*
X316234Y245767D01*
X317567Y245101D02*
X318900D01*
X318233D01*
Y249099D01*
X317567Y248433D01*
X320899Y245101D02*
X322232D01*
X321566D01*
Y249099D01*
X320899Y248433D01*
X331167Y302135D02*
X330501Y301469D01*
Y300136D01*
X331167Y299469D01*
X333833D01*
X334499Y300136D01*
Y301469D01*
X333833Y302135D01*
X334499Y303468D02*
Y304801D01*
Y304134D01*
X330501D01*
X331167Y303468D01*
Y306800D02*
X330501Y307467D01*
Y308800D01*
X331167Y309466D01*
X333833D01*
X334499Y308800D01*
Y307467D01*
X333833Y306800D01*
X331167D01*
X338367Y303901D02*
X337701Y303235D01*
Y301902D01*
X338367Y301236D01*
X341033D01*
X341699Y301902D01*
Y303235D01*
X341033Y303901D01*
Y305234D02*
X341699Y305901D01*
Y307234D01*
X341033Y307900D01*
X338367D01*
X337701Y307234D01*
Y305901D01*
X338367Y305234D01*
X339034D01*
X339700Y305901D01*
Y307900D01*
X284967Y334234D02*
X284301Y333567D01*
Y332234D01*
X284967Y331568D01*
X287633D01*
X288299Y332234D01*
Y333567D01*
X287633Y334234D01*
X284967Y335566D02*
X284301Y336233D01*
Y337566D01*
X284967Y338232D01*
X285634D01*
X286300Y337566D01*
X286966Y338232D01*
X287633D01*
X288299Y337566D01*
Y336233D01*
X287633Y335566D01*
X286966D01*
X286300Y336233D01*
X285634Y335566D01*
X284967D01*
X286300Y336233D02*
Y337566D01*
X286034Y225033D02*
X285367Y225699D01*
X284034D01*
X283368Y225033D01*
Y222367D01*
X284034Y221701D01*
X285367D01*
X286034Y222367D01*
X290032Y225699D02*
X288699Y225033D01*
X287367Y223700D01*
Y222367D01*
X288033Y221701D01*
X289366D01*
X290032Y222367D01*
Y223034D01*
X289366Y223700D01*
X287367D01*
X286134Y231233D02*
X285467Y231899D01*
X284134D01*
X283468Y231233D01*
Y228567D01*
X284134Y227901D01*
X285467D01*
X286134Y228567D01*
X290132Y231899D02*
X287467D01*
Y229900D01*
X288799Y230566D01*
X289466D01*
X290132Y229900D01*
Y228567D01*
X289466Y227901D01*
X288133D01*
X287467Y228567D01*
X286134Y218233D02*
X285467Y218899D01*
X284134D01*
X283468Y218233D01*
Y215567D01*
X284134Y214901D01*
X285467D01*
X286134Y215567D01*
X287467Y218899D02*
X290132D01*
Y218233D01*
X287467Y215567D01*
Y214901D01*
X279134Y294833D02*
X278467Y295499D01*
X277134D01*
X276468Y294833D01*
Y292167D01*
X277134Y291501D01*
X278467D01*
X279134Y292167D01*
X280467Y294833D02*
X281133Y295499D01*
X282466D01*
X283132Y294833D01*
Y294166D01*
X282466Y293500D01*
X281799D01*
X282466D01*
X283132Y292834D01*
Y292167D01*
X282466Y291501D01*
X281133D01*
X280467Y292167D01*
X279000Y310151D02*
X278334Y310818D01*
X277001D01*
X276334Y310151D01*
Y307485D01*
X277001Y306819D01*
X278334D01*
X279000Y307485D01*
X280333Y306819D02*
X281666D01*
X280999D01*
Y310818D01*
X280333Y310151D01*
X279134Y301833D02*
X278467Y302499D01*
X277134D01*
X276468Y301833D01*
Y299167D01*
X277134Y298501D01*
X278467D01*
X279134Y299167D01*
X283132Y298501D02*
X280467D01*
X283132Y301166D01*
Y301833D01*
X282466Y302499D01*
X281133D01*
X280467Y301833D01*
X276868Y278168D02*
Y282167D01*
X278867D01*
X279534Y281501D01*
Y280168D01*
X278867Y279501D01*
X276868D01*
X278201D02*
X279534Y278168D01*
X280867D02*
X282200D01*
X281533D01*
Y282167D01*
X280867Y281501D01*
X284199Y278168D02*
X285532D01*
X284865D01*
Y282167D01*
X284199Y281501D01*
X438235Y255869D02*
X437568Y255202D01*
Y253869D01*
X438235Y253203D01*
X440900D01*
X441567Y253869D01*
Y255202D01*
X440900Y255869D01*
X441567Y259867D02*
Y257202D01*
X438901Y259867D01*
X438235D01*
X437568Y259201D01*
Y257868D01*
X438235Y257202D01*
X441567Y263866D02*
Y261200D01*
X438901Y263866D01*
X438235D01*
X437568Y263200D01*
Y261867D01*
X438235Y261200D01*
X441567Y265199D02*
X440900D01*
Y265865D01*
X441567D01*
Y265199D01*
Y270531D02*
X437568D01*
X439568Y268531D01*
Y271197D01*
X320569Y435073D02*
X319902Y435740D01*
X318569D01*
X317903Y435073D01*
Y432407D01*
X318569Y431741D01*
X319902D01*
X320569Y432407D01*
X324567Y431741D02*
X321902D01*
X324567Y434407D01*
Y435073D01*
X323901Y435740D01*
X322568D01*
X321902Y435073D01*
X328566Y431741D02*
X325900D01*
X328566Y434407D01*
Y435073D01*
X327900Y435740D01*
X326567D01*
X325900Y435073D01*
X329899Y431741D02*
Y432407D01*
X330566D01*
Y431741D01*
X329899D01*
X333231Y435073D02*
X333898Y435740D01*
X335231D01*
X335897Y435073D01*
Y434407D01*
X335231Y433740D01*
X334564D01*
X335231D01*
X335897Y433074D01*
Y432407D01*
X335231Y431741D01*
X333898D01*
X333231Y432407D01*
X495967Y281369D02*
X495301Y280702D01*
Y279369D01*
X495967Y278703D01*
X498633D01*
X499299Y279369D01*
Y280702D01*
X498633Y281369D01*
X499299Y285367D02*
Y282702D01*
X496634Y285367D01*
X495967D01*
X495301Y284701D01*
Y283368D01*
X495967Y282702D01*
X499299Y289366D02*
Y286700D01*
X496634Y289366D01*
X495967D01*
X495301Y288700D01*
Y287367D01*
X495967Y286700D01*
X499299Y290699D02*
X498633D01*
Y291366D01*
X499299D01*
Y290699D01*
Y296697D02*
Y294031D01*
X496634Y296697D01*
X495967D01*
X495301Y296031D01*
Y294698D01*
X495967Y294031D01*
X284257Y185057D02*
X283591Y185723D01*
X282258D01*
X281591Y185057D01*
Y182391D01*
X282258Y181725D01*
X283591D01*
X284257Y182391D01*
X288256Y181725D02*
X285590D01*
X288256Y184390D01*
Y185057D01*
X287590Y185723D01*
X286257D01*
X285590Y185057D01*
X292255Y181725D02*
X289589D01*
X292255Y184390D01*
Y185057D01*
X291588Y185723D01*
X290255D01*
X289589Y185057D01*
X293588Y181725D02*
Y182391D01*
X294254D01*
Y181725D01*
X293588D01*
X296920D02*
X298253D01*
X297586D01*
Y185723D01*
X296920Y185057D01*
X215534Y342433D02*
X214868Y343099D01*
X213535D01*
X212868Y342433D01*
Y339767D01*
X213535Y339101D01*
X214868D01*
X215534Y339767D01*
X216867Y342433D02*
X217534Y343099D01*
X218866D01*
X219533Y342433D01*
Y341766D01*
X218866Y341100D01*
X218200D01*
X218866D01*
X219533Y340434D01*
Y339767D01*
X218866Y339101D01*
X217534D01*
X216867Y339767D01*
X223532Y339101D02*
X220866D01*
X223532Y341766D01*
Y342433D01*
X222865Y343099D01*
X221532D01*
X220866Y342433D01*
X229167Y357534D02*
X228501Y356868D01*
Y355535D01*
X229167Y354868D01*
X231833D01*
X232499Y355535D01*
Y356868D01*
X231833Y357534D01*
X229167Y358867D02*
X228501Y359534D01*
Y360866D01*
X229167Y361533D01*
X229834D01*
X230500Y360866D01*
Y360200D01*
Y360866D01*
X231166Y361533D01*
X231833D01*
X232499Y360866D01*
Y359534D01*
X231833Y358867D01*
X229167Y362866D02*
X228501Y363532D01*
Y364865D01*
X229167Y365532D01*
X231833D01*
X232499Y364865D01*
Y363532D01*
X231833Y362866D01*
X229167D01*
Y388534D02*
X228501Y387868D01*
Y386535D01*
X229167Y385868D01*
X231833D01*
X232499Y386535D01*
Y387868D01*
X231833Y388534D01*
X232499Y392533D02*
Y389867D01*
X229834Y392533D01*
X229167D01*
X228501Y391866D01*
Y390534D01*
X229167Y389867D01*
X231833Y393866D02*
X232499Y394532D01*
Y395865D01*
X231833Y396532D01*
X229167D01*
X228501Y395865D01*
Y394532D01*
X229167Y393866D01*
X229834D01*
X230500Y394532D01*
Y396532D01*
X229167Y374534D02*
X228501Y373868D01*
Y372535D01*
X229167Y371868D01*
X231833D01*
X232499Y372535D01*
Y373868D01*
X231833Y374534D01*
X232499Y378533D02*
Y375867D01*
X229834Y378533D01*
X229167D01*
X228501Y377867D01*
Y376534D01*
X229167Y375867D01*
Y379866D02*
X228501Y380532D01*
Y381865D01*
X229167Y382532D01*
X229834D01*
X230500Y381865D01*
X231166Y382532D01*
X231833D01*
X232499Y381865D01*
Y380532D01*
X231833Y379866D01*
X231166D01*
X230500Y380532D01*
X229834Y379866D01*
X229167D01*
X230500Y380532D02*
Y381865D01*
X187101Y409533D02*
X186434Y410199D01*
X185101D01*
X184435Y409533D01*
Y406867D01*
X185101Y406201D01*
X186434D01*
X187101Y406867D01*
X188434Y409533D02*
X189100Y410199D01*
X190433D01*
X191099Y409533D01*
Y408866D01*
X190433Y408200D01*
X189767D01*
X190433D01*
X191099Y407534D01*
Y406867D01*
X190433Y406201D01*
X189100D01*
X188434Y406867D01*
X192432Y406201D02*
X193765D01*
X193099D01*
Y410199D01*
X192432Y409533D01*
X187434Y402533D02*
X186768Y403199D01*
X185435D01*
X184768Y402533D01*
Y399867D01*
X185435Y399201D01*
X186768D01*
X187434Y399867D01*
X191433Y399201D02*
X188767D01*
X191433Y401866D01*
Y402533D01*
X190767Y403199D01*
X189434D01*
X188767Y402533D01*
X192766Y403199D02*
X195432D01*
Y402533D01*
X192766Y399867D01*
Y399201D01*
X154167Y363534D02*
X153501Y362868D01*
Y361535D01*
X154167Y360868D01*
X156833D01*
X157499Y361535D01*
Y362868D01*
X156833Y363534D01*
X157499Y367533D02*
Y364867D01*
X154833Y367533D01*
X154167D01*
X153501Y366866D01*
Y365534D01*
X154167Y364867D01*
X153501Y371532D02*
X154167Y370199D01*
X155500Y368866D01*
X156833D01*
X157499Y369532D01*
Y370865D01*
X156833Y371532D01*
X156167D01*
X155500Y370865D01*
Y368866D01*
X154167Y348296D02*
X153501Y347630D01*
Y346297D01*
X154167Y345631D01*
X156833D01*
X157499Y346297D01*
Y347630D01*
X156833Y348296D01*
X157499Y352295D02*
Y349629D01*
X154833Y352295D01*
X154167D01*
X153501Y351629D01*
Y350296D01*
X154167Y349629D01*
X153501Y356294D02*
Y353628D01*
X155500D01*
X154833Y354961D01*
Y355627D01*
X155500Y356294D01*
X156833D01*
X157499Y355627D01*
Y354294D01*
X156833Y353628D01*
X83734Y321433D02*
X83068Y322099D01*
X81735D01*
X81068Y321433D01*
Y318767D01*
X81735Y318101D01*
X83068D01*
X83734Y318767D01*
X85067Y321433D02*
X85734Y322099D01*
X87066D01*
X87733Y321433D01*
Y320766D01*
X87066Y320100D01*
X86400D01*
X87066D01*
X87733Y319434D01*
Y318767D01*
X87066Y318101D01*
X85734D01*
X85067Y318767D01*
X89066D02*
X89732Y318101D01*
X91065D01*
X91732Y318767D01*
Y321433D01*
X91065Y322099D01*
X89732D01*
X89066Y321433D01*
Y320766D01*
X89732Y320100D01*
X91732D01*
X141134Y258733D02*
X140468Y259399D01*
X139135D01*
X138468Y258733D01*
Y256067D01*
X139135Y255401D01*
X140468D01*
X141134Y256067D01*
X142467Y258733D02*
X143133Y259399D01*
X144466D01*
X145133Y258733D01*
Y258066D01*
X144466Y257400D01*
X143800D01*
X144466D01*
X145133Y256734D01*
Y256067D01*
X144466Y255401D01*
X143133D01*
X142467Y256067D01*
X149132Y259399D02*
X147799Y258733D01*
X146466Y257400D01*
Y256067D01*
X147132Y255401D01*
X148465D01*
X149132Y256067D01*
Y256734D01*
X148465Y257400D01*
X146466D01*
X145867Y304634D02*
X145201Y303968D01*
Y302635D01*
X145867Y301968D01*
X148533D01*
X149199Y302635D01*
Y303968D01*
X148533Y304634D01*
X145867Y305967D02*
X145201Y306634D01*
Y307966D01*
X145867Y308633D01*
X146534D01*
X147200Y307966D01*
Y307300D01*
Y307966D01*
X147866Y308633D01*
X148533D01*
X149199Y307966D01*
Y306634D01*
X148533Y305967D01*
X149199Y311965D02*
X145201D01*
X147200Y309966D01*
Y312632D01*
X162067Y312434D02*
X161401Y311768D01*
Y310435D01*
X162067Y309768D01*
X164733D01*
X165399Y310435D01*
Y311768D01*
X164733Y312434D01*
X165399Y316433D02*
Y313767D01*
X162733Y316433D01*
X162067D01*
X161401Y315767D01*
Y314434D01*
X162067Y313767D01*
X165399Y319765D02*
X161401D01*
X163400Y317766D01*
Y320432D01*
X188967Y312334D02*
X188301Y311668D01*
Y310335D01*
X188967Y309668D01*
X191633D01*
X192299Y310335D01*
Y311668D01*
X191633Y312334D01*
X192299Y316333D02*
Y313667D01*
X189634Y316333D01*
X188967D01*
X188301Y315667D01*
Y314334D01*
X188967Y313667D01*
Y317666D02*
X188301Y318332D01*
Y319665D01*
X188967Y320332D01*
X189634D01*
X190300Y319665D01*
Y318999D01*
Y319665D01*
X190966Y320332D01*
X191633D01*
X192299Y319665D01*
Y318332D01*
X191633Y317666D01*
X50667Y321334D02*
X50001Y320668D01*
Y319335D01*
X50667Y318668D01*
X53333D01*
X53999Y319335D01*
Y320668D01*
X53333Y321334D01*
X53999Y324666D02*
X50001D01*
X52000Y322667D01*
Y325333D01*
X50667Y326666D02*
X50001Y327332D01*
Y328665D01*
X50667Y329332D01*
X53333D01*
X53999Y328665D01*
Y327332D01*
X53333Y326666D01*
X50667D01*
X59585Y267633D02*
X58919Y268299D01*
X57586D01*
X56919Y267633D01*
Y264967D01*
X57586Y264301D01*
X58919D01*
X59585Y264967D01*
X60918Y267633D02*
X61585Y268299D01*
X62918D01*
X63584Y267633D01*
Y266966D01*
X62918Y266300D01*
X62251D01*
X62918D01*
X63584Y265634D01*
Y264967D01*
X62918Y264301D01*
X61585D01*
X60918Y264967D01*
X64917Y267633D02*
X65583Y268299D01*
X66916D01*
X67583Y267633D01*
Y266966D01*
X66916Y266300D01*
X67583Y265634D01*
Y264967D01*
X66916Y264301D01*
X65583D01*
X64917Y264967D01*
Y265634D01*
X65583Y266300D01*
X64917Y266966D01*
Y267633D01*
X65583Y266300D02*
X66916D01*
X139867Y220334D02*
X139201Y219668D01*
Y218335D01*
X139867Y217668D01*
X142533D01*
X143199Y218335D01*
Y219668D01*
X142533Y220334D01*
X139867Y221667D02*
X139201Y222334D01*
Y223667D01*
X139867Y224333D01*
X140533D01*
X141200Y223667D01*
Y223000D01*
Y223667D01*
X141866Y224333D01*
X142533D01*
X143199Y223667D01*
Y222334D01*
X142533Y221667D01*
X139201Y225666D02*
Y228332D01*
X139867D01*
X142533Y225666D01*
X143199D01*
X85167Y243734D02*
X84501Y243068D01*
Y241735D01*
X85167Y241068D01*
X87833D01*
X88499Y241735D01*
Y243068D01*
X87833Y243734D01*
X85167Y245067D02*
X84501Y245734D01*
Y247066D01*
X85167Y247733D01*
X85834D01*
X86500Y247066D01*
Y246400D01*
Y247066D01*
X87166Y247733D01*
X87833D01*
X88499Y247066D01*
Y245734D01*
X87833Y245067D01*
X84501Y251732D02*
Y249066D01*
X86500D01*
X85834Y250399D01*
Y251065D01*
X86500Y251732D01*
X87833D01*
X88499Y251065D01*
Y249732D01*
X87833Y249066D01*
X215534Y333733D02*
X214868Y334399D01*
X213535D01*
X212868Y333733D01*
Y331067D01*
X213535Y330401D01*
X214868D01*
X215534Y331067D01*
X216867Y333733D02*
X217534Y334399D01*
X218866D01*
X219533Y333733D01*
Y333066D01*
X218866Y332400D01*
X218200D01*
X218866D01*
X219533Y331734D01*
Y331067D01*
X218866Y330401D01*
X217534D01*
X216867Y331067D01*
X220866Y333733D02*
X221532Y334399D01*
X222865D01*
X223532Y333733D01*
Y333066D01*
X222865Y332400D01*
X222199D01*
X222865D01*
X223532Y331734D01*
Y331067D01*
X222865Y330401D01*
X221532D01*
X220866Y331067D01*
X170901Y307968D02*
X171567D01*
X172900Y309301D01*
X171567Y310634D01*
X170901D01*
X172900Y309301D02*
X174899D01*
Y314632D02*
Y311966D01*
X172233Y314632D01*
X171567D01*
X170901Y313966D01*
Y312633D01*
X171567Y311966D01*
X244334Y244999D02*
Y244333D01*
X245667Y243000D01*
X247000Y244333D01*
Y244999D01*
X245667Y243000D02*
Y241001D01*
X248333D02*
X249666D01*
X248999D01*
Y244999D01*
X248333Y244333D01*
X48019Y298899D02*
Y295567D01*
X48686Y294901D01*
X50019D01*
X50685Y295567D01*
Y298899D01*
X54684D02*
X52018D01*
Y296900D01*
X53351Y297566D01*
X54017D01*
X54684Y296900D01*
Y295567D01*
X54017Y294901D01*
X52684D01*
X52018Y295567D01*
X102616Y261848D02*
Y258516D01*
X103283Y257850D01*
X104615D01*
X105282Y258516D01*
Y261848D01*
X108614Y257850D02*
Y261848D01*
X106615Y259849D01*
X109281D01*
X210468Y402699D02*
Y399367D01*
X211134Y398701D01*
X212467D01*
X213134Y399367D01*
Y402699D01*
X214467Y402033D02*
X215133Y402699D01*
X216466D01*
X217132Y402033D01*
Y401366D01*
X216466Y400700D01*
X215799D01*
X216466D01*
X217132Y400034D01*
Y399367D01*
X216466Y398701D01*
X215133D01*
X214467Y399367D01*
X418402Y296699D02*
Y293367D01*
X419069Y292701D01*
X420402D01*
X421068Y293367D01*
Y296699D01*
X425067Y292701D02*
X422401D01*
X425067Y295366D01*
Y296033D01*
X424400Y296699D01*
X423067D01*
X422401Y296033D01*
X426400Y292701D02*
Y293367D01*
X427066D01*
Y292701D01*
X426400D01*
X431731D02*
Y296699D01*
X429732Y294700D01*
X432398D01*
X298918Y409590D02*
Y406257D01*
X299585Y405591D01*
X300917D01*
X301584Y406257D01*
Y409590D01*
X305582Y405591D02*
X302917D01*
X305582Y408257D01*
Y408923D01*
X304916Y409590D01*
X303583D01*
X302917Y408923D01*
X306915Y405591D02*
Y406257D01*
X307582D01*
Y405591D01*
X306915D01*
X310248Y408923D02*
X310914Y409590D01*
X312247D01*
X312913Y408923D01*
Y408257D01*
X312247Y407590D01*
X311581D01*
X312247D01*
X312913Y406924D01*
Y406257D01*
X312247Y405591D01*
X310914D01*
X310248Y406257D01*
X476013Y323615D02*
Y320283D01*
X476680Y319616D01*
X478013D01*
X478679Y320283D01*
Y323615D01*
X482678Y319616D02*
X480012D01*
X482678Y322282D01*
Y322949D01*
X482011Y323615D01*
X480678D01*
X480012Y322949D01*
X484011Y319616D02*
Y320283D01*
X484677D01*
Y319616D01*
X484011D01*
X490009D02*
X487343D01*
X490009Y322282D01*
Y322949D01*
X489342Y323615D01*
X488009D01*
X487343Y322949D01*
X303653Y211441D02*
Y208109D01*
X304319Y207442D01*
X305652D01*
X306319Y208109D01*
Y211441D01*
X310317Y207442D02*
X307652D01*
X310317Y210108D01*
Y210775D01*
X309651Y211441D01*
X308318D01*
X307652Y210775D01*
X311650Y207442D02*
Y208109D01*
X312317D01*
Y207442D01*
X311650D01*
X314983D02*
X316316D01*
X315649D01*
Y211441D01*
X314983Y210775D01*
X245434Y285899D02*
Y282567D01*
X246101Y281901D01*
X247434D01*
X248100Y282567D01*
Y285899D01*
X249433Y281901D02*
X250766D01*
X250099D01*
Y285899D01*
X249433Y285233D01*
X363540Y260599D02*
X366205D01*
X364872D01*
Y256601D01*
X367538D02*
X368871D01*
X368205D01*
Y260599D01*
X367538Y259933D01*
X117101Y292933D02*
X116434Y293599D01*
X115101D01*
X114435Y292933D01*
Y292266D01*
X115101Y291600D01*
X116434D01*
X117101Y290934D01*
Y290267D01*
X116434Y289601D01*
X115101D01*
X114435Y290267D01*
X118433Y293599D02*
Y289601D01*
X119766Y290934D01*
X121099Y289601D01*
Y293599D01*
X122432Y289601D02*
X123765D01*
X123099D01*
Y293599D01*
X122432Y292933D01*
X77468Y351201D02*
Y355199D01*
X79468D01*
X80134Y354533D01*
Y353200D01*
X79468Y352534D01*
X77468D01*
X78801D02*
X80134Y351201D01*
X81467Y354533D02*
X82134Y355199D01*
X83466D01*
X84133Y354533D01*
Y353866D01*
X83466Y353200D01*
X82800D01*
X83466D01*
X84133Y352534D01*
Y351867D01*
X83466Y351201D01*
X82134D01*
X81467Y351867D01*
X85466Y354533D02*
X86132Y355199D01*
X87465D01*
X88132Y354533D01*
Y351867D01*
X87465Y351201D01*
X86132D01*
X85466Y351867D01*
Y354533D01*
X43654Y311201D02*
Y315199D01*
X45653D01*
X46320Y314533D01*
Y313200D01*
X45653Y312534D01*
X43654D01*
X44987D02*
X46320Y311201D01*
X50319D02*
X47653D01*
X50319Y313866D01*
Y314533D01*
X49652Y315199D01*
X48319D01*
X47653Y314533D01*
X51652Y311867D02*
X52318Y311201D01*
X53651D01*
X54317Y311867D01*
Y314533D01*
X53651Y315199D01*
X52318D01*
X51652Y314533D01*
Y313866D01*
X52318Y313200D01*
X54317D01*
X79720Y311001D02*
Y314999D01*
X81719D01*
X82386Y314333D01*
Y313000D01*
X81719Y312334D01*
X79720D01*
X81053D02*
X82386Y311001D01*
X86384D02*
X83719D01*
X86384Y313666D01*
Y314333D01*
X85718Y314999D01*
X84385D01*
X83719Y314333D01*
X87717D02*
X88384Y314999D01*
X89717D01*
X90383Y314333D01*
Y313666D01*
X89717Y313000D01*
X90383Y312334D01*
Y311667D01*
X89717Y311001D01*
X88384D01*
X87717Y311667D01*
Y312334D01*
X88384Y313000D01*
X87717Y313666D01*
Y314333D01*
X88384Y313000D02*
X89717D01*
X135399Y255268D02*
X131401D01*
Y257268D01*
X132067Y257934D01*
X133400D01*
X134066Y257268D01*
Y255268D01*
Y256601D02*
X135399Y257934D01*
Y261933D02*
Y259267D01*
X132734Y261933D01*
X132067D01*
X131401Y261266D01*
Y259934D01*
X132067Y259267D01*
X131401Y263266D02*
Y265932D01*
X132067D01*
X134733Y263266D01*
X135399D01*
Y217468D02*
X131401D01*
Y219468D01*
X132067Y220134D01*
X133400D01*
X134066Y219468D01*
Y217468D01*
Y218801D02*
X135399Y220134D01*
Y224133D02*
Y221467D01*
X132734Y224133D01*
X132067D01*
X131401Y223466D01*
Y222134D01*
X132067Y221467D01*
X131401Y228132D02*
X132067Y226799D01*
X133400Y225466D01*
X134733D01*
X135399Y226132D01*
Y227465D01*
X134733Y228132D01*
X134066D01*
X133400Y227465D01*
Y225466D01*
X77213Y361301D02*
Y365299D01*
X79212D01*
X79878Y364633D01*
Y363300D01*
X79212Y362634D01*
X77213D01*
X78545D02*
X79878Y361301D01*
X83877D02*
X81211D01*
X83877Y363966D01*
Y364633D01*
X83210Y365299D01*
X81878D01*
X81211Y364633D01*
X87876Y365299D02*
X85210D01*
Y363300D01*
X86543Y363966D01*
X87209D01*
X87876Y363300D01*
Y361967D01*
X87209Y361301D01*
X85876D01*
X85210Y361967D01*
X77268Y371101D02*
Y375099D01*
X79268D01*
X79934Y374433D01*
Y373100D01*
X79268Y372434D01*
X77268D01*
X78601D02*
X79934Y371101D01*
X83933D02*
X81267D01*
X83933Y373766D01*
Y374433D01*
X83266Y375099D01*
X81934D01*
X81267Y374433D01*
X87265Y371101D02*
Y375099D01*
X85266Y373100D01*
X87932D01*
X56668Y404001D02*
Y407999D01*
X58668D01*
X59334Y407333D01*
Y406000D01*
X58668Y405334D01*
X56668D01*
X58001D02*
X59334Y404001D01*
X63333D02*
X60667D01*
X63333Y406666D01*
Y407333D01*
X62666Y407999D01*
X61334D01*
X60667Y407333D01*
X64666D02*
X65332Y407999D01*
X66665D01*
X67332Y407333D01*
Y406666D01*
X66665Y406000D01*
X65999D01*
X66665D01*
X67332Y405334D01*
Y404667D01*
X66665Y404001D01*
X65332D01*
X64666Y404667D01*
X93199Y411168D02*
X89201D01*
Y413168D01*
X89867Y413834D01*
X91200D01*
X91866Y413168D01*
Y411168D01*
Y412501D02*
X93199Y413834D01*
Y417833D02*
Y415167D01*
X90534Y417833D01*
X89867D01*
X89201Y417166D01*
Y415834D01*
X89867Y415167D01*
X93199Y421832D02*
Y419166D01*
X90534Y421832D01*
X89867D01*
X89201Y421165D01*
Y419832D01*
X89867Y419166D01*
X69199Y411591D02*
X65201D01*
Y413590D01*
X65867Y414256D01*
X67200D01*
X67866Y413590D01*
Y411591D01*
Y412924D02*
X69199Y414256D01*
Y418255D02*
Y415590D01*
X66534Y418255D01*
X65867D01*
X65201Y417589D01*
Y416256D01*
X65867Y415590D01*
X69199Y419588D02*
Y420921D01*
Y420255D01*
X65201D01*
X65867Y419588D01*
X91368Y397001D02*
Y400999D01*
X93368D01*
X94034Y400333D01*
Y399000D01*
X93368Y398334D01*
X91368D01*
X92701D02*
X94034Y397001D01*
X98033D02*
X95367D01*
X98033Y399666D01*
Y400333D01*
X97366Y400999D01*
X96034D01*
X95367Y400333D01*
X99366D02*
X100032Y400999D01*
X101365D01*
X102032Y400333D01*
Y397667D01*
X101365Y397001D01*
X100032D01*
X99366Y397667D01*
Y400333D01*
X450767Y254736D02*
X446768D01*
Y256735D01*
X447435Y257402D01*
X448768D01*
X449434Y256735D01*
Y254736D01*
Y256069D02*
X450767Y257402D01*
Y258735D02*
Y260068D01*
Y259401D01*
X446768D01*
X447435Y258735D01*
X450100Y262067D02*
X450767Y262734D01*
Y264067D01*
X450100Y264733D01*
X447435D01*
X446768Y264067D01*
Y262734D01*
X447435Y262067D01*
X448101D01*
X448768Y262734D01*
Y264733D01*
X450767Y266066D02*
X450100D01*
Y266732D01*
X450767D01*
Y266066D01*
Y271397D02*
X446768D01*
X448768Y269398D01*
Y272064D01*
X317220Y440511D02*
Y444510D01*
X319220D01*
X319886Y443843D01*
Y442510D01*
X319220Y441844D01*
X317220D01*
X318553D02*
X319886Y440511D01*
X321219D02*
X322552D01*
X321886D01*
Y444510D01*
X321219Y443843D01*
X324551Y441177D02*
X325218Y440511D01*
X326551D01*
X327217Y441177D01*
Y443843D01*
X326551Y444510D01*
X325218D01*
X324551Y443843D01*
Y443177D01*
X325218Y442510D01*
X327217D01*
X328550Y440511D02*
Y441177D01*
X329217D01*
Y440511D01*
X328550D01*
X331882Y443843D02*
X332549Y444510D01*
X333882D01*
X334548Y443843D01*
Y443177D01*
X333882Y442510D01*
X333215D01*
X333882D01*
X334548Y441844D01*
Y441177D01*
X333882Y440511D01*
X332549D01*
X331882Y441177D01*
X508199Y279236D02*
X504201D01*
Y281236D01*
X504867Y281902D01*
X506200D01*
X506866Y281236D01*
Y279236D01*
Y280569D02*
X508199Y281902D01*
Y283235D02*
Y284568D01*
Y283901D01*
X504201D01*
X504867Y283235D01*
X507533Y286567D02*
X508199Y287234D01*
Y288566D01*
X507533Y289233D01*
X504867D01*
X504201Y288566D01*
Y287234D01*
X504867Y286567D01*
X505534D01*
X506200Y287234D01*
Y289233D01*
X508199Y290566D02*
X507533D01*
Y291232D01*
X508199D01*
Y290566D01*
Y296564D02*
Y293898D01*
X505534Y296564D01*
X504867D01*
X504201Y295897D01*
Y294565D01*
X504867Y293898D01*
X283403Y173233D02*
Y177232D01*
X285402D01*
X286068Y176566D01*
Y175233D01*
X285402Y174566D01*
X283403D01*
X284735D02*
X286068Y173233D01*
X287401D02*
X288734D01*
X288068D01*
Y177232D01*
X287401Y176566D01*
X290734Y173900D02*
X291400Y173233D01*
X292733D01*
X293399Y173900D01*
Y176566D01*
X292733Y177232D01*
X291400D01*
X290734Y176566D01*
Y175899D01*
X291400Y175233D01*
X293399D01*
X294732Y173233D02*
Y173900D01*
X295399D01*
Y173233D01*
X294732D01*
X298064D02*
X299397D01*
X298731D01*
Y177232D01*
X298064Y176566D01*
X439136Y298701D02*
Y302699D01*
X441136D01*
X441802Y302033D01*
Y300700D01*
X441136Y300034D01*
X439136D01*
X440469D02*
X441802Y298701D01*
X443135D02*
X444468D01*
X443801D01*
Y302699D01*
X443135Y302033D01*
X446467D02*
X447134Y302699D01*
X448466D01*
X449133Y302033D01*
Y301366D01*
X448466Y300700D01*
X449133Y300034D01*
Y299367D01*
X448466Y298701D01*
X447134D01*
X446467Y299367D01*
Y300034D01*
X447134Y300700D01*
X446467Y301366D01*
Y302033D01*
X447134Y300700D02*
X448466D01*
X450466Y298701D02*
Y299367D01*
X451132D01*
Y298701D01*
X450466D01*
X455797D02*
Y302699D01*
X453798Y300700D01*
X456464D01*
X289699Y433936D02*
X285701D01*
Y435935D01*
X286367Y436602D01*
X287700D01*
X288366Y435935D01*
Y433936D01*
Y435269D02*
X289699Y436602D01*
Y437935D02*
Y439268D01*
Y438601D01*
X285701D01*
X286367Y437935D01*
Y441267D02*
X285701Y441934D01*
Y443266D01*
X286367Y443933D01*
X287034D01*
X287700Y443266D01*
X288366Y443933D01*
X289033D01*
X289699Y443266D01*
Y441934D01*
X289033Y441267D01*
X288366D01*
X287700Y441934D01*
X287034Y441267D01*
X286367D01*
X287700Y441934D02*
Y443266D01*
X289699Y445266D02*
X289033D01*
Y445932D01*
X289699D01*
Y445266D01*
X286367Y448598D02*
X285701Y449264D01*
Y450597D01*
X286367Y451264D01*
X287034D01*
X287700Y450597D01*
Y449931D01*
Y450597D01*
X288366Y451264D01*
X289033D01*
X289699Y450597D01*
Y449264D01*
X289033Y448598D01*
X499447Y324516D02*
Y328515D01*
X501446D01*
X502113Y327849D01*
Y326516D01*
X501446Y325849D01*
X499447D01*
X500780D02*
X502113Y324516D01*
X503446D02*
X504779D01*
X504112D01*
Y328515D01*
X503446Y327849D01*
X506778D02*
X507444Y328515D01*
X508777D01*
X509444Y327849D01*
Y327182D01*
X508777Y326516D01*
X509444Y325849D01*
Y325183D01*
X508777Y324516D01*
X507444D01*
X506778Y325183D01*
Y325849D01*
X507444Y326516D01*
X506778Y327182D01*
Y327849D01*
X507444Y326516D02*
X508777D01*
X510777Y324516D02*
Y325183D01*
X511443D01*
Y324516D01*
X510777D01*
X516775D02*
X514109D01*
X516775Y327182D01*
Y327849D01*
X516108Y328515D01*
X514775D01*
X514109Y327849D01*
X330199Y174403D02*
X326201D01*
Y176402D01*
X326867Y177068D01*
X328200D01*
X328866Y176402D01*
Y174403D01*
Y175735D02*
X330199Y177068D01*
Y178401D02*
Y179734D01*
Y179068D01*
X326201D01*
X326867Y178401D01*
Y181734D02*
X326201Y182400D01*
Y183733D01*
X326867Y184399D01*
X327534D01*
X328200Y183733D01*
X328866Y184399D01*
X329533D01*
X330199Y183733D01*
Y182400D01*
X329533Y181734D01*
X328866D01*
X328200Y182400D01*
X327534Y181734D01*
X326867D01*
X328200Y182400D02*
Y183733D01*
X330199Y185732D02*
X329533D01*
Y186399D01*
X330199D01*
Y185732D01*
Y189065D02*
Y190397D01*
Y189731D01*
X326201D01*
X326867Y189065D01*
X214502Y306201D02*
Y310199D01*
X216501D01*
X217167Y309533D01*
Y308200D01*
X216501Y307534D01*
X214502D01*
X215834D02*
X217167Y306201D01*
X218500D02*
X219833D01*
X219167D01*
Y310199D01*
X218500Y309533D01*
X221833Y310199D02*
X224498D01*
Y309533D01*
X221833Y306867D01*
Y306201D01*
X214502Y288201D02*
Y292199D01*
X216501D01*
X217167Y291533D01*
Y290200D01*
X216501Y289534D01*
X214502D01*
X215834D02*
X217167Y288201D01*
X218500D02*
X219833D01*
X219167D01*
Y292199D01*
X218500Y291533D01*
X224498Y292199D02*
X223165Y291533D01*
X221833Y290200D01*
Y288867D01*
X222499Y288201D01*
X223832D01*
X224498Y288867D01*
Y289534D01*
X223832Y290200D01*
X221833D01*
X214502Y300201D02*
Y304199D01*
X216501D01*
X217167Y303533D01*
Y302200D01*
X216501Y301534D01*
X214502D01*
X215834D02*
X217167Y300201D01*
X218500D02*
X219833D01*
X219167D01*
Y304199D01*
X218500Y303533D01*
X224498Y304199D02*
X221833D01*
Y302200D01*
X223165Y302866D01*
X223832D01*
X224498Y302200D01*
Y300867D01*
X223832Y300201D01*
X222499D01*
X221833Y300867D01*
X214502Y294201D02*
Y298199D01*
X216501D01*
X217167Y297533D01*
Y296200D01*
X216501Y295534D01*
X214502D01*
X215834D02*
X217167Y294201D01*
X218500D02*
X219833D01*
X219167D01*
Y298199D01*
X218500Y297533D01*
X223832Y294201D02*
Y298199D01*
X221833Y296200D01*
X224498D01*
X250002Y300470D02*
Y304469D01*
X252001D01*
X252667Y303803D01*
Y302470D01*
X252001Y301803D01*
X250002D01*
X251335D02*
X252667Y300470D01*
X254000D02*
X255333D01*
X254667D01*
Y304469D01*
X254000Y303803D01*
X257333D02*
X257999Y304469D01*
X259332D01*
X259998Y303803D01*
Y303136D01*
X259332Y302470D01*
X258665D01*
X259332D01*
X259998Y301803D01*
Y301137D01*
X259332Y300470D01*
X257999D01*
X257333Y301137D01*
X250002Y294240D02*
Y298239D01*
X252001D01*
X252667Y297573D01*
Y296240D01*
X252001Y295573D01*
X250002D01*
X251335D02*
X252667Y294240D01*
X254000D02*
X255333D01*
X254667D01*
Y298239D01*
X254000Y297573D01*
X259998Y294240D02*
X257333D01*
X259998Y296906D01*
Y297573D01*
X259332Y298239D01*
X257999D01*
X257333Y297573D01*
X342299Y260802D02*
X338301D01*
Y262801D01*
X338967Y263467D01*
X340300D01*
X340966Y262801D01*
Y260802D01*
Y262135D02*
X342299Y263467D01*
Y264800D02*
Y266133D01*
Y265467D01*
X338301D01*
X338967Y264800D01*
Y268133D02*
X338301Y268799D01*
Y270132D01*
X338967Y270798D01*
X341633D01*
X342299Y270132D01*
Y268799D01*
X341633Y268133D01*
X338967D01*
X228412Y273581D02*
Y277580D01*
X230411D01*
X231078Y276914D01*
Y275581D01*
X230411Y274914D01*
X228412D01*
X229745D02*
X231078Y273581D01*
X232411Y274248D02*
X233077Y273581D01*
X234410D01*
X235076Y274248D01*
Y276914D01*
X234410Y277580D01*
X233077D01*
X232411Y276914D01*
Y276247D01*
X233077Y275581D01*
X235076D01*
X228312Y267058D02*
Y271056D01*
X230311D01*
X230978Y270390D01*
Y269057D01*
X230311Y268391D01*
X228312D01*
X229645D02*
X230978Y267058D01*
X232311Y270390D02*
X232977Y271056D01*
X234310D01*
X234976Y270390D01*
Y269724D01*
X234310Y269057D01*
X234976Y268391D01*
Y267724D01*
X234310Y267058D01*
X232977D01*
X232311Y267724D01*
Y268391D01*
X232977Y269057D01*
X232311Y269724D01*
Y270390D01*
X232977Y269057D02*
X234310D01*
X228256Y260634D02*
Y264633D01*
X230255D01*
X230922Y263966D01*
Y262633D01*
X230255Y261967D01*
X228256D01*
X229589D02*
X230922Y260634D01*
X232255Y264633D02*
X234920D01*
Y263966D01*
X232255Y261300D01*
Y260634D01*
X195756Y280224D02*
Y284223D01*
X197755D01*
X198422Y283557D01*
Y282224D01*
X197755Y281557D01*
X195756D01*
X197089D02*
X198422Y280224D01*
X202420Y284223D02*
X201087Y283557D01*
X199755Y282224D01*
Y280891D01*
X200421Y280224D01*
X201754D01*
X202420Y280891D01*
Y281557D01*
X201754Y282224D01*
X199755D01*
X195956Y260734D02*
Y264733D01*
X197955D01*
X198622Y264066D01*
Y262733D01*
X197955Y262067D01*
X195956D01*
X197289D02*
X198622Y260734D01*
X202620Y264733D02*
X199955D01*
Y262733D01*
X201288Y263400D01*
X201954D01*
X202620Y262733D01*
Y261400D01*
X201954Y260734D01*
X200621D01*
X199955Y261400D01*
X278668Y272068D02*
Y276067D01*
X280667D01*
X281334Y275401D01*
Y274068D01*
X280667Y273401D01*
X278668D01*
X280001D02*
X281334Y272068D01*
X284666D02*
Y276067D01*
X282666Y274068D01*
X285332D01*
X296399Y331424D02*
X292401D01*
Y333423D01*
X293067Y334089D01*
X294400D01*
X295066Y333423D01*
Y331424D01*
Y332757D02*
X296399Y334089D01*
X293067Y335422D02*
X292401Y336089D01*
Y337422D01*
X293067Y338088D01*
X293734D01*
X294400Y337422D01*
Y336755D01*
Y337422D01*
X295066Y338088D01*
X295733D01*
X296399Y337422D01*
Y336089D01*
X295733Y335422D01*
X195600Y273781D02*
Y277780D01*
X197599D01*
X198266Y277114D01*
Y275781D01*
X197599Y275114D01*
X195600D01*
X196933D02*
X198266Y273781D01*
X202264D02*
X199599D01*
X202264Y276447D01*
Y277114D01*
X201598Y277780D01*
X200265D01*
X199599Y277114D01*
X197022Y267458D02*
Y271456D01*
X199022D01*
X199688Y270790D01*
Y269457D01*
X199022Y268791D01*
X197022D01*
X198355D02*
X199688Y267458D01*
X201021D02*
X202354D01*
X201688D01*
Y271456D01*
X201021Y270790D01*
X289601Y298768D02*
X293599D01*
Y301434D01*
Y305432D02*
Y302766D01*
X290934Y305432D01*
X290267D01*
X289601Y304766D01*
Y303433D01*
X290267Y302766D01*
X281101Y261234D02*
X285099D01*
Y263900D01*
Y265233D02*
Y266566D01*
Y265899D01*
X281101D01*
X281767Y265233D01*
X125167Y154399D02*
X123835D01*
X124501D01*
Y151067D01*
X123835Y150401D01*
X123168D01*
X122502Y151067D01*
X126500Y150401D02*
X127833D01*
X127167D01*
Y154399D01*
X126500Y153733D01*
X132498Y154399D02*
X129833D01*
Y152400D01*
X131166Y153067D01*
X131832D01*
X132498Y152400D01*
Y151067D01*
X131832Y150401D01*
X130499D01*
X129833Y151067D01*
X55167Y440499D02*
X53834D01*
X54501D01*
Y437167D01*
X53834Y436501D01*
X53168D01*
X52502Y437167D01*
X56500Y436501D02*
X57833D01*
X57167D01*
Y440499D01*
X56500Y439833D01*
X59833D02*
X60499Y440499D01*
X61832D01*
X62498Y439833D01*
Y439166D01*
X61832Y438500D01*
X61165D01*
X61832D01*
X62498Y437834D01*
Y437167D01*
X61832Y436501D01*
X60499D01*
X59833Y437167D01*
X160320Y441250D02*
X158987D01*
X159653D01*
Y437918D01*
X158987Y437252D01*
X158320D01*
X157654Y437918D01*
X161653Y437252D02*
X162986D01*
X162319D01*
Y441250D01*
X161653Y440584D01*
X167651Y437252D02*
X164985D01*
X167651Y439917D01*
Y440584D01*
X166984Y441250D01*
X165652D01*
X164985Y440584D01*
X261986Y441250D02*
X260653D01*
X261319D01*
Y437918D01*
X260653Y437252D01*
X259987D01*
X259320Y437918D01*
X263319Y437252D02*
X264652D01*
X263985D01*
Y441250D01*
X263319Y440584D01*
X266651Y437252D02*
X267984D01*
X267318D01*
Y441250D01*
X266651Y440584D01*
X360320Y441250D02*
X358987D01*
X359653D01*
Y437918D01*
X358987Y437252D01*
X358320D01*
X357654Y437918D01*
X361653Y437252D02*
X362986D01*
X362319D01*
Y441250D01*
X361653Y440584D01*
X364985D02*
X365651Y441250D01*
X366984D01*
X367651Y440584D01*
Y437918D01*
X366984Y437252D01*
X365651D01*
X364985Y437918D01*
Y440584D01*
X464485Y441250D02*
X463152D01*
X463819D01*
Y437918D01*
X463152Y437252D01*
X462486D01*
X461819Y437918D01*
X465818D02*
X466484Y437252D01*
X467817D01*
X468484Y437918D01*
Y440584D01*
X467817Y441250D01*
X466484D01*
X465818Y440584D01*
Y439917D01*
X466484Y439251D01*
X468484D01*
X504684Y453248D02*
X503352D01*
X504018D01*
Y449916D01*
X503352Y449249D01*
X502685D01*
X502019Y449916D01*
X506017Y452581D02*
X506684Y453248D01*
X508017D01*
X508683Y452581D01*
Y451915D01*
X508017Y451248D01*
X508683Y450582D01*
Y449916D01*
X508017Y449249D01*
X506684D01*
X506017Y449916D01*
Y450582D01*
X506684Y451248D01*
X506017Y451915D01*
Y452581D01*
X506684Y451248D02*
X508017D01*
X504684Y353248D02*
X503352D01*
X504018D01*
Y349916D01*
X503352Y349249D01*
X502685D01*
X502019Y349916D01*
X506017Y353248D02*
X508683D01*
Y352581D01*
X506017Y349916D01*
Y349249D01*
X504684Y253248D02*
X503352D01*
X504018D01*
Y249916D01*
X503352Y249249D01*
X502685D01*
X502019Y249916D01*
X508683Y253248D02*
X507350Y252581D01*
X506017Y251248D01*
Y249916D01*
X506684Y249249D01*
X508017D01*
X508683Y249916D01*
Y250582D01*
X508017Y251248D01*
X506017D01*
X504684Y153248D02*
X503352D01*
X504018D01*
Y149916D01*
X503352Y149249D01*
X502685D01*
X502019Y149916D01*
X508683Y153248D02*
X506017D01*
Y151248D01*
X507350Y151915D01*
X508017D01*
X508683Y151248D01*
Y149916D01*
X508017Y149249D01*
X506684D01*
X506017Y149916D01*
X447382Y182348D02*
X446049D01*
X446715D01*
Y179016D01*
X446049Y178350D01*
X445383D01*
X444716Y179016D01*
X450714Y178350D02*
Y182348D01*
X448715Y180349D01*
X451381D01*
X347382Y182348D02*
X346049D01*
X346715D01*
Y179016D01*
X346049Y178350D01*
X345383D01*
X344716Y179016D01*
X348715Y181682D02*
X349381Y182348D01*
X350714D01*
X351381Y181682D01*
Y181016D01*
X350714Y180349D01*
X350048D01*
X350714D01*
X351381Y179683D01*
Y179016D01*
X350714Y178350D01*
X349381D01*
X348715Y179016D01*
X247382Y182348D02*
X246049D01*
X246715D01*
Y179016D01*
X246049Y178350D01*
X245383D01*
X244716Y179016D01*
X251381Y178350D02*
X248715D01*
X251381Y181016D01*
Y181682D01*
X250714Y182348D01*
X249381D01*
X248715Y181682D01*
X147049Y182348D02*
X145716D01*
X146382D01*
Y179016D01*
X145716Y178350D01*
X145049D01*
X144383Y179016D01*
X148382Y178350D02*
X149715D01*
X149048D01*
Y182348D01*
X148382Y181682D01*
X265301Y238034D02*
Y235368D01*
X267300D01*
Y236701D01*
Y235368D01*
X269299D01*
X265301Y239367D02*
X269299D01*
Y241366D01*
X268633Y242033D01*
X267966D01*
X267300Y241366D01*
Y239367D01*
Y241366D01*
X266634Y242033D01*
X265967D01*
X265301Y241366D01*
Y239367D01*
X265967Y243366D02*
X265301Y244032D01*
Y245365D01*
X265967Y246032D01*
X266634D01*
X267300Y245365D01*
Y244699D01*
Y245365D01*
X267966Y246032D01*
X268633D01*
X269299Y245365D01*
Y244032D01*
X268633Y243366D01*
X251334Y230799D02*
X248668D01*
Y228800D01*
X250001D01*
X248668D01*
Y226801D01*
X252667Y230799D02*
Y226801D01*
X254666D01*
X255333Y227467D01*
Y228134D01*
X254666Y228800D01*
X252667D01*
X254666D01*
X255333Y229466D01*
Y230133D01*
X254666Y230799D01*
X252667D01*
X259332Y226801D02*
X256666D01*
X259332Y229466D01*
Y230133D01*
X258665Y230799D01*
X257332D01*
X256666Y230133D01*
X264445Y327263D02*
X261779D01*
Y325264D01*
X263112D01*
X261779D01*
Y323264D01*
X265778Y327263D02*
Y323264D01*
X267777D01*
X268443Y323931D01*
Y324597D01*
X267777Y325264D01*
X265778D01*
X267777D01*
X268443Y325930D01*
Y326596D01*
X267777Y327263D01*
X265778D01*
X269776Y323264D02*
X271109D01*
X270443D01*
Y327263D01*
X269776Y326596D01*
X40868Y355699D02*
Y351701D01*
X42867D01*
X43534Y352367D01*
Y355033D01*
X42867Y355699D01*
X40868D01*
X44866Y355033D02*
X45533Y355699D01*
X46866D01*
X47532Y355033D01*
Y354366D01*
X46866Y353700D01*
X46199D01*
X46866D01*
X47532Y353034D01*
Y352367D01*
X46866Y351701D01*
X45533D01*
X44866Y352367D01*
X40996Y365199D02*
Y361201D01*
X42995D01*
X43662Y361867D01*
Y364533D01*
X42995Y365199D01*
X40996D01*
X47661Y361201D02*
X44995D01*
X47661Y363866D01*
Y364533D01*
X46994Y365199D01*
X45661D01*
X44995Y364533D01*
X40734Y374999D02*
Y371001D01*
X42734D01*
X43400Y371667D01*
Y374333D01*
X42734Y374999D01*
X40734D01*
X44733Y371001D02*
X46066D01*
X45399D01*
Y374999D01*
X44733Y374333D01*
X266167Y257034D02*
X265501Y256367D01*
Y255034D01*
X266167Y254368D01*
X268833D01*
X269499Y255034D01*
Y256367D01*
X268833Y257034D01*
X269499Y260366D02*
X265501D01*
X267500Y258366D01*
Y261032D01*
D16*
X125494Y421113D02*
X144706D01*
Y392687D02*
Y421113D01*
X125494Y392687D02*
X144706D01*
X125494D02*
Y421113D01*
X65500Y474700D02*
X107500D01*
Y435200D02*
Y474700D01*
X65500Y435200D02*
Y474700D01*
Y435200D02*
X107500D01*
X114589Y331311D02*
X138211D01*
X114589Y307689D02*
Y331311D01*
Y307689D02*
X138211D01*
Y331311D01*
M02*
