G04*
G04 #@! TF.GenerationSoftware,Altium Limited,Altium Designer,23.2.1 (34)*
G04*
G04 Layer_Color=255*
%FSLAX25Y25*%
%MOIN*%
G70*
G04*
G04 #@! TF.SameCoordinates,DCD1C9D7-C552-47EB-8D17-ADC449AF66F1*
G04*
G04*
G04 #@! TF.FilePolarity,Positive*
G04*
G01*
G75*
%ADD78C,0.06400*%
%ADD79C,0.23622*%
%ADD80C,0.05504*%
%ADD81R,0.05504X0.05504*%
%ADD82R,0.08071X0.08071*%
%ADD83C,0.08071*%
%ADD84C,0.06000*%
%ADD85R,0.06000X0.06000*%
%ADD86C,0.07087*%
%ADD87R,0.07087X0.07087*%
%ADD88R,0.08071X0.08071*%
D78*
X405400Y267700D02*
D03*
X351000Y267800D02*
D03*
X405400Y288300D02*
D03*
X351200Y287700D02*
D03*
X294500Y381200D02*
D03*
Y351200D02*
D03*
X223750Y413400D02*
D03*
X329500Y366200D02*
D03*
X294500D02*
D03*
X329500Y381200D02*
D03*
X99500Y367950D02*
D03*
X68500Y245200D02*
D03*
Y222200D02*
D03*
X167547Y249146D02*
D03*
X77900Y334500D02*
D03*
X210000Y413400D02*
D03*
X237500D02*
D03*
X99500Y353400D02*
D03*
Y382500D02*
D03*
D79*
X488500Y458300D02*
D03*
X38200D02*
D03*
X488500Y166200D02*
D03*
X38200D02*
D03*
D80*
X140100Y406900D02*
D03*
Y396900D02*
D03*
X130100Y406900D02*
D03*
Y396900D02*
D03*
X140100Y416900D02*
D03*
D81*
X130100D02*
D03*
D82*
X356600Y159800D02*
D03*
X456600D02*
D03*
X156600D02*
D03*
X256600D02*
D03*
Y459800D02*
D03*
X156600D02*
D03*
X456600D02*
D03*
X356600D02*
D03*
D83*
X346600Y149800D02*
D03*
X366600D02*
D03*
Y169800D02*
D03*
X346600D02*
D03*
X446600Y149800D02*
D03*
X466600D02*
D03*
Y169800D02*
D03*
X446600D02*
D03*
X146600Y149800D02*
D03*
X166600D02*
D03*
Y169800D02*
D03*
X146600D02*
D03*
X246600Y149800D02*
D03*
X266600D02*
D03*
Y169800D02*
D03*
X246600D02*
D03*
X535900Y149800D02*
D03*
Y169800D02*
D03*
X515900D02*
D03*
Y149800D02*
D03*
X535900Y349800D02*
D03*
Y369800D02*
D03*
X515900D02*
D03*
Y349800D02*
D03*
X535900Y249800D02*
D03*
Y269800D02*
D03*
X515900D02*
D03*
Y249800D02*
D03*
X266600Y449800D02*
D03*
X246600D02*
D03*
Y469800D02*
D03*
X266600D02*
D03*
X166600Y449800D02*
D03*
X146600D02*
D03*
Y469800D02*
D03*
X166600D02*
D03*
X466600D02*
D03*
X446600D02*
D03*
Y449800D02*
D03*
X466600D02*
D03*
X366600Y469800D02*
D03*
X346600D02*
D03*
Y449800D02*
D03*
X366600D02*
D03*
X515900D02*
D03*
Y469800D02*
D03*
X535900D02*
D03*
Y449800D02*
D03*
D84*
X71500Y470200D02*
D03*
X81500D02*
D03*
X91500D02*
D03*
X71500Y440200D02*
D03*
X81500D02*
D03*
X91500D02*
D03*
D85*
X101500Y470200D02*
D03*
Y440200D02*
D03*
D86*
X106500Y179700D02*
D03*
D87*
X81500D02*
D03*
D88*
X525900Y159800D02*
D03*
Y359800D02*
D03*
Y259800D02*
D03*
Y459800D02*
D03*
M02*
