G04*
G04 #@! TF.GenerationSoftware,Altium Limited,Altium Designer,23.2.1 (34)*
G04*
G04 Layer_Color=32768*
%FSLAX25Y25*%
%MOIN*%
G70*
G04*
G04 #@! TF.SameCoordinates,DCD1C9D7-C552-47EB-8D17-ADC449AF66F1*
G04*
G04*
G04 #@! TF.FilePolarity,Positive*
G04*
G01*
G75*
%ADD14C,0.00787*%
%ADD90C,0.00394*%
%ADD91C,0.00197*%
D14*
X405400Y262011D02*
G03*
X405400Y273389I0J5689D01*
G01*
D02*
G03*
X405400Y262011I0J-5689D01*
G01*
X351000Y262111D02*
G03*
X351000Y273489I0J5689D01*
G01*
D02*
G03*
X351000Y262111I0J-5689D01*
G01*
X405400Y282611D02*
G03*
X405400Y293989I0J5689D01*
G01*
D02*
G03*
X405400Y282611I0J-5689D01*
G01*
X351200Y282011D02*
G03*
X351200Y293389I0J5689D01*
G01*
D02*
G03*
X351200Y282011I0J-5689D01*
G01*
X288811Y381200D02*
G03*
X300189Y381200I5689J0D01*
G01*
D02*
G03*
X288811Y381200I-5689J0D01*
G01*
X300189Y351200D02*
G03*
X288811Y351200I-5689J0D01*
G01*
D02*
G03*
X300189Y351200I5689J0D01*
G01*
X223750Y419089D02*
G03*
X223750Y407711I0J-5689D01*
G01*
D02*
G03*
X223750Y419089I0J5689D01*
G01*
X335189Y366200D02*
G03*
X323811Y366200I-5689J0D01*
G01*
D02*
G03*
X335189Y366200I5689J0D01*
G01*
X300189D02*
G03*
X288811Y366200I-5689J0D01*
G01*
D02*
G03*
X300189Y366200I5689J0D01*
G01*
X335189Y381200D02*
G03*
X323811Y381200I-5689J0D01*
G01*
D02*
G03*
X335189Y381200I5689J0D01*
G01*
X99500Y373639D02*
G03*
X99500Y362261I0J-5689D01*
G01*
D02*
G03*
X99500Y373639I0J5689D01*
G01*
X74189Y245200D02*
G03*
X62811Y245200I-5689J0D01*
G01*
D02*
G03*
X74189Y245200I5689J0D01*
G01*
Y222200D02*
G03*
X62811Y222200I-5689J0D01*
G01*
D02*
G03*
X74189Y222200I5689J0D01*
G01*
X167547Y254835D02*
G03*
X167547Y243457I0J-5689D01*
G01*
D02*
G03*
X167547Y254835I0J5689D01*
G01*
X77900Y340189D02*
G03*
X77900Y328811I0J-5689D01*
G01*
D02*
G03*
X77900Y340189I0J5689D01*
G01*
X210000Y419089D02*
G03*
X210000Y407711I0J-5689D01*
G01*
D02*
G03*
X210000Y419089I0J5689D01*
G01*
X237500D02*
G03*
X237500Y407711I0J-5689D01*
G01*
D02*
G03*
X237500Y419089I0J5689D01*
G01*
X99500Y359089D02*
G03*
X99500Y347711I0J-5689D01*
G01*
D02*
G03*
X99500Y359089I0J5689D01*
G01*
X105189Y382500D02*
G03*
X93811Y382500I-5689J0D01*
G01*
D02*
G03*
X105189Y382500I5689J0D01*
G01*
X319800Y265600D02*
X335800D01*
X319800D02*
Y288700D01*
X335800D01*
Y265600D02*
Y288700D01*
X280395Y232749D02*
Y240451D01*
Y232749D02*
X293805D01*
Y240451D01*
X280395D02*
X293805D01*
X261995Y304849D02*
Y312551D01*
Y304849D02*
X275405D01*
Y312551D01*
X261995D02*
X275405D01*
X289280Y318167D02*
Y329632D01*
X283720Y318167D02*
X289280D01*
X283720D02*
Y329632D01*
X289280D01*
X281205Y247580D02*
X292670D01*
Y242020D02*
Y247580D01*
X281205Y242020D02*
X292670D01*
X281205D02*
Y247580D01*
X281143Y254780D02*
X292608D01*
Y249220D02*
Y254780D01*
X281143Y249220D02*
X292608D01*
X281143D02*
Y254780D01*
X304580Y285097D02*
Y296562D01*
X299020Y285097D02*
X304580D01*
X299020D02*
Y296562D01*
X304580D01*
X52728Y371625D02*
Y374775D01*
Y371625D02*
X59815D01*
Y374775D01*
X52728D02*
X59815D01*
X304367Y431160D02*
Y436719D01*
Y431160D02*
X315832D01*
Y436719D01*
X304367D02*
X315832D01*
X209370Y338420D02*
Y343980D01*
X197905D02*
X209370D01*
X197905Y338420D02*
Y343980D01*
Y338420D02*
X209370D01*
X220720Y365795D02*
X226280D01*
X220720Y354330D02*
Y365795D01*
Y354330D02*
X226280D01*
Y365795D01*
X220720Y371467D02*
X226280D01*
Y382932D01*
X220720D02*
X226280D01*
X220720Y371467D02*
Y382932D01*
Y396933D02*
X226280D01*
X220720Y385468D02*
Y396933D01*
Y385468D02*
X226280D01*
Y396933D01*
X171368Y405420D02*
Y410980D01*
Y405420D02*
X182833D01*
Y410980D01*
X171368D02*
X182833D01*
X171368Y398420D02*
Y403980D01*
Y398420D02*
X182833D01*
Y403980D01*
X171368D02*
X182833D01*
X159720Y370486D02*
X165280D01*
X159720Y359021D02*
Y370486D01*
Y359021D02*
X165280D01*
Y370486D01*
X159720Y346368D02*
X165280D01*
Y357833D01*
X159720D02*
X165280D01*
X159720Y346368D02*
Y357833D01*
X161020Y334133D02*
X166580D01*
X161020Y322668D02*
Y334133D01*
Y322668D02*
X166580D01*
Y334133D01*
X187367Y322867D02*
X192927D01*
Y334332D01*
X187367D02*
X192927D01*
X187367Y322867D02*
Y334332D01*
X210205Y328749D02*
Y336451D01*
X196795D02*
X210205D01*
X196795Y328749D02*
Y336451D01*
Y328749D02*
X210205D01*
X168758Y316563D02*
X183718D01*
Y340185D01*
X168758D02*
X183718D01*
X168758Y316563D02*
Y340185D01*
X167306Y345906D02*
X218094D01*
Y396694D01*
X167306D02*
X218094D01*
X167306Y345906D02*
Y396694D01*
X138120Y230830D02*
X143680D01*
Y242295D01*
X138120D02*
X143680D01*
X138120Y230830D02*
Y242295D01*
X90749Y239495D02*
X98451D01*
Y252905D01*
X90749D02*
X98451D01*
X90749Y239495D02*
Y252905D01*
X313020Y271273D02*
X318580D01*
Y282738D01*
X313020D02*
X318580D01*
X313020Y271273D02*
Y282738D01*
X306020Y271335D02*
X311580D01*
Y282800D01*
X306020D02*
X311580D01*
X306020Y271335D02*
Y282800D01*
X298920Y282900D02*
X304480D01*
X298920Y271435D02*
Y282900D01*
Y271435D02*
X304480D01*
Y282900D01*
X78433Y317220D02*
Y322780D01*
X66967D02*
X78433D01*
X66967Y317220D02*
Y322780D01*
Y317220D02*
X78433D01*
X69256Y270049D02*
Y277751D01*
X55846D02*
X69256D01*
X55846Y270049D02*
Y277751D01*
Y270049D02*
X69256D01*
X306120Y258035D02*
X311680D01*
Y269500D01*
X306120D02*
X311680D01*
X306120Y258035D02*
Y269500D01*
X299405Y250788D02*
Y256347D01*
Y250788D02*
X310870D01*
Y256347D01*
X299405D02*
X310870D01*
X299268Y243988D02*
Y249548D01*
Y243988D02*
X310733D01*
Y249548D01*
X299268D02*
X310733D01*
X310257Y299220D02*
Y304780D01*
X298792D02*
X310257D01*
X298792Y299220D02*
Y304780D01*
Y299220D02*
X310257D01*
X235176Y247339D02*
X240736D01*
Y258804D01*
X235176D02*
X240736D01*
X235176Y247339D02*
Y258804D01*
X311733Y180620D02*
Y186180D01*
X300268D02*
X311733D01*
X300268Y180620D02*
Y186180D01*
Y180620D02*
X311733D01*
X276812Y251590D02*
Y260251D01*
X271300Y251590D02*
X276812D01*
X271300D02*
Y260251D01*
X276812D01*
X244730Y256826D02*
X253982D01*
Y249149D02*
Y256826D01*
X244730Y249149D02*
X253982D01*
X244730D02*
Y256826D01*
X151105Y244649D02*
Y252351D01*
X137695D02*
X151105D01*
X137695Y244649D02*
Y252351D01*
Y244649D02*
X151105D01*
X56249Y330505D02*
X63951D01*
X56249Y317095D02*
Y330505D01*
Y317095D02*
X63951D01*
Y330505D01*
X263068Y298054D02*
Y303613D01*
Y298054D02*
X274533D01*
Y303613D01*
X263068D02*
X274533D01*
X263068Y291306D02*
Y296866D01*
Y291306D02*
X274533D01*
Y296866D01*
X263068D02*
X274533D01*
X299020Y257973D02*
X304580D01*
Y269438D01*
X299020D02*
X304580D01*
X299020Y257973D02*
Y269438D01*
X306220Y296462D02*
X311780D01*
X306220Y284997D02*
Y296462D01*
Y284997D02*
X311780D01*
Y296462D01*
X310295Y306120D02*
Y311680D01*
X298830D02*
X310295D01*
X298830Y306120D02*
Y311680D01*
Y306120D02*
X310295D01*
X255776Y258842D02*
X261336D01*
X255776Y247377D02*
Y258842D01*
Y247377D02*
X261336D01*
Y258842D01*
X436720Y284433D02*
X442280D01*
X436720Y272968D02*
Y284433D01*
Y272968D02*
X442280D01*
Y284433D01*
X494320Y310232D02*
X499880D01*
X494320Y298767D02*
Y310232D01*
Y298767D02*
X499880D01*
Y310232D01*
X144120Y325833D02*
X149680D01*
X144120Y314368D02*
Y325833D01*
Y314368D02*
X149680D01*
Y325833D01*
X52857Y354875D02*
X59943D01*
Y351725D02*
Y354875D01*
X52857Y351725D02*
X59943D01*
X52857D02*
Y354875D01*
X52757Y364675D02*
X59843D01*
Y361525D02*
Y364675D01*
X52757Y361525D02*
X59843D01*
X52757D02*
Y364675D01*
D90*
X270616Y250184D02*
X278096D01*
X270616Y234436D02*
X278096D01*
Y250184D01*
X270616Y234436D02*
Y250184D01*
X274356Y240341D02*
Y244278D01*
X272387Y242310D02*
X276324D01*
X294500Y322128D02*
Y325672D01*
X292728Y323900D02*
X296272D01*
X291800Y278396D02*
Y281939D01*
X290028Y280168D02*
X293572D01*
X68728Y373200D02*
X72272D01*
X70500Y371428D02*
Y374972D01*
X82528Y415900D02*
X86072D01*
X84300Y414128D02*
Y417672D01*
Y397128D02*
Y400672D01*
X82528Y398900D02*
X86072D01*
X74300Y404128D02*
Y407672D01*
X72528Y405900D02*
X76072D01*
X74300Y414128D02*
Y417672D01*
X72528Y415900D02*
X76072D01*
X356600Y157832D02*
Y161768D01*
X354631Y159800D02*
X358569D01*
X456600Y157832D02*
Y161768D01*
X454632Y159800D02*
X458568D01*
X156600Y157832D02*
Y161768D01*
X154631Y159800D02*
X158569D01*
X256600Y157832D02*
Y161768D01*
X254631Y159800D02*
X258569D01*
X243256Y300717D02*
Y304261D01*
X241484Y302489D02*
X245028D01*
X92032Y179700D02*
X95969D01*
X94000Y177732D02*
Y181668D01*
X269756Y226341D02*
Y230278D01*
X267787Y228310D02*
X271724D01*
X261882Y232050D02*
X277630D01*
X261882Y224570D02*
X277630D01*
X261882D02*
Y232050D01*
X277630Y224570D02*
Y232050D01*
X523932Y159800D02*
X527869D01*
X525900Y157832D02*
Y161768D01*
X523932Y359800D02*
X527869D01*
X525900Y357832D02*
Y361769D01*
X67000Y291632D02*
Y295568D01*
X65031Y293600D02*
X68968D01*
X303447Y420326D02*
X307384D01*
X305416Y418357D02*
Y422294D01*
X308432Y197031D02*
X312368D01*
X310400Y195063D02*
Y199000D01*
X131728Y236200D02*
X135272D01*
X133500Y234428D02*
Y237972D01*
X72500Y311428D02*
Y314972D01*
X70728Y313200D02*
X74272D01*
X221500Y273728D02*
Y277272D01*
X219728Y275500D02*
X223272D01*
X221500Y261062D02*
Y264605D01*
X219728Y262833D02*
X223272D01*
X209944Y261062D02*
Y264605D01*
X208172Y262833D02*
X211716D01*
X209944Y267395D02*
Y270938D01*
X208172Y269167D02*
X211716D01*
X232422Y288438D02*
Y291981D01*
X230650Y290210D02*
X234193D01*
X243256Y294578D02*
Y298121D01*
X241484Y296349D02*
X245028D01*
X232422Y294578D02*
Y298121D01*
X230650Y296349D02*
X234193D01*
X307428Y442700D02*
X310972D01*
X309200Y440928D02*
Y444472D01*
X294616Y436762D02*
Y440306D01*
X292844Y438534D02*
X296387D01*
X305028Y175200D02*
X308572D01*
X306800Y173428D02*
Y176972D01*
X321300Y176696D02*
Y180239D01*
X319528Y178468D02*
X323072D01*
X268800Y315332D02*
Y319268D01*
X266831Y317300D02*
X270768D01*
X260926Y313560D02*
X276674D01*
X260926Y321040D02*
X276674D01*
Y313560D02*
Y321040D01*
X260926Y313560D02*
Y321040D01*
X523932Y259800D02*
X527869D01*
X525900Y257832D02*
Y261769D01*
X262287Y275810D02*
X266224D01*
X264256Y273841D02*
Y277778D01*
X112631Y242000D02*
X116569D01*
X114600Y240032D02*
Y243969D01*
X425869Y281532D02*
Y285469D01*
X423900Y283500D02*
X427837D01*
X483400Y307631D02*
Y311568D01*
X481431Y309600D02*
X485368D01*
X131728Y248200D02*
X135272D01*
X133500Y246428D02*
Y249972D01*
X61500Y311428D02*
Y314972D01*
X59728Y313200D02*
X63272D01*
X338228Y277600D02*
X341772D01*
X340000Y275828D02*
Y279372D01*
X221500Y267395D02*
Y270938D01*
X219728Y269167D02*
X223272D01*
X209944Y280062D02*
Y283605D01*
X208172Y281833D02*
X211716D01*
X291700Y272196D02*
Y275739D01*
X289928Y273968D02*
X293472D01*
X209944Y273728D02*
Y277272D01*
X208172Y275500D02*
X211716D01*
X232422Y306857D02*
Y310401D01*
X230650Y308629D02*
X234193D01*
X232422Y300717D02*
Y304261D01*
X230650Y302489D02*
X234193D01*
X448400Y277828D02*
Y281372D01*
X446628Y279600D02*
X450172D01*
X441761Y293700D02*
X445304D01*
X443533Y291928D02*
Y295472D01*
X506100Y303528D02*
Y307072D01*
X504328Y305300D02*
X507872D01*
X502128Y319300D02*
X505672D01*
X503900Y317528D02*
Y321072D01*
X254631Y459800D02*
X258569D01*
X256600Y457831D02*
Y461768D01*
X154631Y459800D02*
X158569D01*
X156600Y457831D02*
Y461768D01*
X456600Y457831D02*
Y461768D01*
X454632Y459800D02*
X458568D01*
X356600Y457831D02*
Y461768D01*
X354631Y459800D02*
X358569D01*
X70500Y351428D02*
Y354972D01*
X68728Y353200D02*
X72272D01*
X70500Y361428D02*
Y364972D01*
X68728Y363200D02*
X72272D01*
X525900Y457831D02*
Y461768D01*
X523932Y459800D02*
X527869D01*
D91*
X291744Y329018D02*
X297256D01*
X291744Y318782D02*
X297256D01*
Y329018D01*
X291744Y318782D02*
Y329018D01*
X286682Y282924D02*
X296918D01*
X286682Y277412D02*
X296918D01*
X286682D02*
Y282924D01*
X296918Y277412D02*
Y282924D01*
X65382Y370444D02*
Y375956D01*
X75618Y370444D02*
Y375956D01*
X65382D02*
X75618D01*
X65382Y370444D02*
X75618D01*
X124509Y422097D02*
X145691D01*
Y391703D02*
Y422097D01*
X124509Y391703D02*
X145691D01*
X124509D02*
Y422097D01*
X81544Y410782D02*
Y421018D01*
X87056Y410782D02*
Y421018D01*
X81544Y410782D02*
X87056D01*
X81544Y421018D02*
X87056D01*
X79182Y401656D02*
X89418D01*
X79182Y396144D02*
X89418D01*
X79182D02*
Y401656D01*
X89418Y396144D02*
Y401656D01*
X69182Y408656D02*
X79418D01*
X69182Y403144D02*
X79418D01*
X69182D02*
Y408656D01*
X79418Y403144D02*
Y408656D01*
X71544Y410782D02*
X77056D01*
X71544Y421018D02*
X77056D01*
X71544Y410782D02*
Y421018D01*
X77056Y410782D02*
Y421018D01*
X371029Y113639D02*
Y174229D01*
X342171D02*
X371029D01*
X342171Y113639D02*
X371029D01*
X342171D02*
Y174229D01*
X471029Y113639D02*
Y174229D01*
X442171D02*
X471029D01*
X442171Y113639D02*
X471029D01*
X442171D02*
Y174229D01*
X171029Y113639D02*
Y174229D01*
X142171D02*
X171029D01*
X142171Y113639D02*
X171029D01*
X142171D02*
Y174229D01*
X271029Y113639D02*
Y174229D01*
X242171D02*
X271029D01*
X242171Y113639D02*
X271029D01*
X242171D02*
Y174229D01*
X238138Y305245D02*
X248374D01*
X238138Y299733D02*
X248374D01*
X238138D02*
Y305245D01*
X248374Y299733D02*
Y305245D01*
X108500Y434200D02*
Y475700D01*
X64500D02*
X108500D01*
X64500Y434200D02*
X108500D01*
X64500D02*
Y475700D01*
X119394Y148205D02*
Y198204D01*
X66363Y148205D02*
X119394D01*
X66363D02*
Y198204D01*
X119394D01*
X511471Y174229D02*
X572061D01*
X511471Y145371D02*
Y174229D01*
X572061Y145371D02*
Y174229D01*
X511471Y145371D02*
X572061D01*
X511471Y374229D02*
X572061D01*
X511471Y345371D02*
Y374229D01*
X572061Y345371D02*
Y374229D01*
X511471Y345371D02*
X572061D01*
X56173Y279033D02*
X77827D01*
X56173Y308167D02*
X77827D01*
X56173Y279033D02*
Y308167D01*
X77827Y279033D02*
Y308167D01*
X297247Y412156D02*
Y428495D01*
X313585Y412156D02*
Y428495D01*
X297247Y412156D02*
X313585D01*
X297247Y428495D02*
X313585D01*
X318569Y188862D02*
Y205201D01*
X302231Y188862D02*
Y205201D01*
X318569D01*
X302231Y188862D02*
X318569D01*
X130744Y231082D02*
Y241318D01*
X136256Y231082D02*
Y241318D01*
X130744Y231082D02*
X136256D01*
X130744Y241318D02*
X136256D01*
X67382Y310444D02*
X77618D01*
X67382Y315956D02*
X77618D01*
Y310444D02*
Y315956D01*
X67382Y310444D02*
Y315956D01*
X216382Y278256D02*
X226618D01*
X216382Y272744D02*
X226618D01*
X216382D02*
Y278256D01*
X226618Y272744D02*
Y278256D01*
X216382Y265589D02*
X226618D01*
X216382Y260077D02*
X226618D01*
X216382D02*
Y265589D01*
X226618Y260077D02*
Y265589D01*
X204826Y260077D02*
X215062D01*
X204826Y265589D02*
X215062D01*
Y260077D02*
Y265589D01*
X204826Y260077D02*
Y265589D01*
X204826Y271923D02*
X215062D01*
X204826Y266411D02*
X215062D01*
X204826D02*
Y271923D01*
X215062Y266411D02*
Y271923D01*
X227304Y292966D02*
X237540D01*
X227304Y287454D02*
X237540D01*
X227304D02*
Y292966D01*
X237540Y287454D02*
Y292966D01*
X238138Y299105D02*
X248374D01*
X238138Y293594D02*
X248374D01*
X238138D02*
Y299105D01*
X248374Y293594D02*
Y299105D01*
X227304Y293594D02*
X237540D01*
X227304Y299105D02*
X237540D01*
Y293594D02*
Y299105D01*
X227304Y293594D02*
Y299105D01*
X304082Y439944D02*
Y445456D01*
X314318Y439944D02*
Y445456D01*
X304082D02*
X314318D01*
X304082Y439944D02*
X314318D01*
X291860Y433416D02*
X297372D01*
X291860Y443652D02*
X297372D01*
X291860Y433416D02*
Y443652D01*
X297372Y433416D02*
Y443652D01*
X311918Y172444D02*
Y177956D01*
X301682Y172444D02*
Y177956D01*
Y172444D02*
X311918D01*
X301682Y177956D02*
X311918D01*
X318544Y183586D02*
X324056D01*
X318544Y173349D02*
X324056D01*
Y183586D01*
X318544Y173349D02*
Y183586D01*
X289732Y263634D02*
X293669D01*
X291700Y261665D02*
Y265602D01*
X296818Y256941D02*
Y270327D01*
X286582Y256941D02*
X296818D01*
X286582D02*
Y270327D01*
X296818D01*
X511471Y274229D02*
X572061D01*
X511471Y245371D02*
Y274229D01*
X572061Y245371D02*
Y274229D01*
X511471Y245371D02*
X572061D01*
X276559Y263507D02*
Y288113D01*
X251953Y263507D02*
Y288113D01*
Y263507D02*
X276559D01*
X251953Y288113D02*
X276559D01*
X100033Y231173D02*
Y252827D01*
X129167Y231173D02*
Y252827D01*
X100033D02*
X129167D01*
X100033Y231173D02*
X129167D01*
X417699Y291669D02*
X434038D01*
X417699Y275331D02*
X434038D01*
X417699D02*
Y291669D01*
X434038Y275331D02*
Y291669D01*
X475231Y317769D02*
X491569D01*
X475231Y301431D02*
X491569D01*
X475231D02*
Y317769D01*
X491569Y301431D02*
Y317769D01*
X130744Y243082D02*
Y253318D01*
X136256Y243082D02*
Y253318D01*
X130744Y243082D02*
X136256D01*
X130744Y253318D02*
X136256D01*
X56382Y310444D02*
X66618D01*
X56382Y315956D02*
X66618D01*
Y310444D02*
Y315956D01*
X56382Y310444D02*
Y315956D01*
X289932Y290634D02*
X293868D01*
X291900Y288665D02*
Y292602D01*
X286782Y283941D02*
Y297327D01*
X297018D01*
Y283941D02*
Y297327D01*
X286782Y283941D02*
X297018D01*
X337244Y272482D02*
Y282718D01*
X342756Y272482D02*
Y282718D01*
X337244Y272482D02*
X342756D01*
X337244Y282718D02*
X342756D01*
X216382Y271923D02*
X226618D01*
X216382Y266411D02*
X226618D01*
X216382D02*
Y271923D01*
X226618Y266411D02*
Y271923D01*
X204826Y279077D02*
X215062D01*
X204826Y284589D02*
X215062D01*
Y279077D02*
Y284589D01*
X204826Y279077D02*
Y284589D01*
X286582Y276724D02*
X296818D01*
X286582Y271212D02*
X296818D01*
X286582D02*
Y276724D01*
X296818Y271212D02*
Y276724D01*
X204826Y278256D02*
X215062D01*
X204826Y272744D02*
X215062D01*
X204826D02*
Y278256D01*
X215062Y272744D02*
Y278256D01*
X227304Y311385D02*
X237540D01*
X227304Y305873D02*
X237540D01*
X227304D02*
Y311385D01*
X237540Y305873D02*
Y311385D01*
X227304Y299733D02*
X237540D01*
X227304Y305245D02*
X237540D01*
Y299733D02*
Y305245D01*
X227304Y299733D02*
Y305245D01*
X445644Y284718D02*
X451156D01*
X445644Y274482D02*
X451156D01*
Y284718D01*
X445644Y274482D02*
Y284718D01*
X438414Y290944D02*
Y296456D01*
X448651Y290944D02*
Y296456D01*
X438414D02*
X448651D01*
X438414Y290944D02*
X448651D01*
X503344Y310418D02*
X508856D01*
X503344Y300182D02*
X508856D01*
Y310418D01*
X503344Y300182D02*
Y310418D01*
X498782Y316544D02*
Y322056D01*
X509018Y316544D02*
Y322056D01*
X498782D02*
X509018D01*
X498782Y316544D02*
X509018D01*
X271029Y445371D02*
Y505961D01*
X242171D02*
X271029D01*
X242171Y445371D02*
X271029D01*
X242171D02*
Y505961D01*
X171029Y445371D02*
Y505961D01*
X142171D02*
X171029D01*
X142171Y445371D02*
X171029D01*
X142171D02*
Y505961D01*
X442171Y445371D02*
Y505961D01*
Y445371D02*
X471029D01*
X442171Y505961D02*
X471029D01*
Y445371D02*
Y505961D01*
X342171Y445371D02*
Y505961D01*
Y445371D02*
X371029D01*
X342171Y505961D02*
X371029D01*
Y445371D02*
Y505961D01*
X113605Y342531D02*
X139195D01*
X113605Y296468D02*
Y342531D01*
Y296468D02*
X139195D01*
Y342531D01*
X65382Y350444D02*
X75618D01*
X65382Y355956D02*
X75618D01*
Y350444D02*
Y355956D01*
X65382Y350444D02*
Y355956D01*
Y360444D02*
X75618D01*
X65382Y365956D02*
X75618D01*
Y360444D02*
Y365956D01*
X65382Y360444D02*
Y365956D01*
X511471Y445371D02*
X572061D01*
Y474229D01*
X511471Y445371D02*
Y474229D01*
X572061D01*
M02*
