G04*
G04 #@! TF.GenerationSoftware,Altium Limited,Altium Designer,23.2.1 (34)*
G04*
G04 Layer_Color=8388736*
%FSLAX25Y25*%
%MOIN*%
G70*
G04*
G04 #@! TF.SameCoordinates,DCD1C9D7-C552-47EB-8D17-ADC449AF66F1*
G04*
G04*
G04 #@! TF.FilePolarity,Negative*
G04*
G01*
G75*
%ADD17R,0.03591X0.03772*%
%ADD20R,0.04940X0.05733*%
%ADD23R,0.03772X0.03591*%
%ADD25R,0.02756X0.01968*%
%ADD26R,0.04724X0.07087*%
%ADD27R,0.04724X0.01181*%
%ADD28R,0.01181X0.04724*%
%ADD29R,0.05733X0.04940*%
%ADD35C,0.01417*%
%ADD41R,0.03445X0.03051*%
%ADD44R,0.05811X0.03842*%
%ADD45R,0.10299X0.06799*%
%ADD46R,0.04236X0.04827*%
%ADD47R,0.03842X0.03055*%
%ADD48R,0.03055X0.03842*%
%ADD49R,0.04827X0.04236*%
%ADD50R,0.02661X0.06008*%
%ADD51R,0.06992X0.06992*%
%ADD52R,0.03449X0.01284*%
%ADD53R,0.01284X0.03449*%
%ADD54R,0.08961X0.03842*%
%ADD55R,0.13882X0.13882*%
%ADD56R,0.02661X0.01480*%
%ADD57R,0.01480X0.02661*%
%ADD58R,0.06008X0.02661*%
%ADD59R,0.06992X0.06992*%
%ADD60R,0.05811X0.08567*%
%ADD61C,0.06699*%
%ADD62C,0.23921*%
%ADD63C,0.05803*%
%ADD64R,0.05803X0.05803*%
%ADD65R,0.08370X0.08370*%
%ADD66C,0.08370*%
%ADD67C,0.06299*%
%ADD68R,0.06299X0.06299*%
%ADD69C,0.07386*%
%ADD70R,0.07386X0.07386*%
%ADD71R,0.08370X0.08370*%
%ADD72C,0.02071*%
G36*
X274843Y258479D02*
X274646Y258283D01*
X273465D01*
X273269Y258479D01*
Y259858D01*
X274843D01*
Y258479D01*
D02*
G37*
G36*
X276418Y254346D02*
X275040D01*
X274843Y254542D01*
Y257298D01*
X275040Y257495D01*
X276418D01*
Y254346D01*
D02*
G37*
G36*
X273269Y257298D02*
Y254542D01*
X273072Y254346D01*
X271694D01*
Y257495D01*
X273072D01*
X273269Y257298D01*
D02*
G37*
G36*
X274843Y253361D02*
Y251983D01*
X273269D01*
Y253361D01*
X273465Y253558D01*
X274646D01*
X274843Y253361D01*
D02*
G37*
D17*
X315800Y279868D02*
D03*
X286500Y326762D02*
D03*
Y321038D02*
D03*
X301800Y293692D02*
D03*
Y287968D02*
D03*
X223500Y357200D02*
D03*
Y362924D02*
D03*
Y380062D02*
D03*
Y374338D02*
D03*
Y388338D02*
D03*
Y394062D02*
D03*
X162500Y361891D02*
D03*
Y367616D02*
D03*
Y354962D02*
D03*
Y349238D02*
D03*
X163800Y325538D02*
D03*
Y331262D02*
D03*
X190147Y331462D02*
D03*
Y325738D02*
D03*
X140900Y239424D02*
D03*
Y233700D02*
D03*
X315800Y274143D02*
D03*
X308800Y279930D02*
D03*
Y274205D02*
D03*
X301700Y274306D02*
D03*
Y280030D02*
D03*
X308900Y266630D02*
D03*
Y260906D02*
D03*
X237956Y255934D02*
D03*
Y250210D02*
D03*
X301800Y266568D02*
D03*
Y260843D02*
D03*
X309000Y287868D02*
D03*
Y293592D02*
D03*
X258556Y250248D02*
D03*
Y255972D02*
D03*
X439500Y275838D02*
D03*
Y281562D02*
D03*
X497100Y301638D02*
D03*
Y307362D02*
D03*
X146900Y317238D02*
D03*
Y322962D02*
D03*
D20*
X290351Y236600D02*
D03*
X283849D02*
D03*
X271951Y308700D02*
D03*
X265449D02*
D03*
X200249Y332600D02*
D03*
X206751D02*
D03*
X59300Y273900D02*
D03*
X65802D02*
D03*
X141149Y248500D02*
D03*
X147651D02*
D03*
D23*
X284076Y244800D02*
D03*
X289800D02*
D03*
X284014Y252000D02*
D03*
X289738D02*
D03*
X312962Y433940D02*
D03*
X307238D02*
D03*
X200776Y341200D02*
D03*
X206500D02*
D03*
X179962Y408200D02*
D03*
X174238D02*
D03*
X179962Y401200D02*
D03*
X174238D02*
D03*
X69838Y320000D02*
D03*
X75562D02*
D03*
X308000Y253568D02*
D03*
X302276D02*
D03*
X307862Y246768D02*
D03*
X302138D02*
D03*
X301662Y302000D02*
D03*
X307386D02*
D03*
X303138Y183400D02*
D03*
X308862D02*
D03*
X271662Y300834D02*
D03*
X265938D02*
D03*
X271662Y294086D02*
D03*
X265938D02*
D03*
X301700Y308900D02*
D03*
X307424D02*
D03*
D25*
X58043Y373200D02*
D03*
X54500D02*
D03*
X54628Y353300D02*
D03*
X58172D02*
D03*
X54528Y363100D02*
D03*
X58072D02*
D03*
D26*
X171514Y320500D02*
D03*
Y336248D02*
D03*
X180963D02*
D03*
Y320500D02*
D03*
D27*
X170062Y356536D02*
D03*
Y358505D02*
D03*
Y360473D02*
D03*
Y362442D02*
D03*
Y364410D02*
D03*
Y366379D02*
D03*
Y368347D02*
D03*
Y370316D02*
D03*
Y372284D02*
D03*
Y374253D02*
D03*
Y376221D02*
D03*
Y378190D02*
D03*
Y380158D02*
D03*
Y382127D02*
D03*
Y384095D02*
D03*
Y386064D02*
D03*
X215338D02*
D03*
Y384095D02*
D03*
Y382127D02*
D03*
Y380158D02*
D03*
Y378190D02*
D03*
Y376221D02*
D03*
Y374253D02*
D03*
Y372284D02*
D03*
Y370316D02*
D03*
Y368347D02*
D03*
Y366379D02*
D03*
Y364410D02*
D03*
Y362442D02*
D03*
Y360473D02*
D03*
Y358505D02*
D03*
Y356536D02*
D03*
D28*
X177936Y393938D02*
D03*
X179905D02*
D03*
X181873D02*
D03*
X183842D02*
D03*
X185810D02*
D03*
X187779D02*
D03*
X189747D02*
D03*
X191716D02*
D03*
X193684D02*
D03*
X195653D02*
D03*
X197621D02*
D03*
X199590D02*
D03*
X201558D02*
D03*
X203527D02*
D03*
X205495D02*
D03*
X207464D02*
D03*
Y348662D02*
D03*
X205495D02*
D03*
X203527D02*
D03*
X201558D02*
D03*
X199590D02*
D03*
X197621D02*
D03*
X195653D02*
D03*
X193684D02*
D03*
X191716D02*
D03*
X189747D02*
D03*
X187779D02*
D03*
X185810D02*
D03*
X183842D02*
D03*
X181873D02*
D03*
X179905D02*
D03*
X177936D02*
D03*
D29*
X94600Y249451D02*
D03*
Y242949D02*
D03*
X60100Y320549D02*
D03*
Y327051D02*
D03*
D35*
X274056Y259070D02*
D03*
Y252771D02*
D03*
X275631Y255921D02*
D03*
X272481D02*
D03*
D41*
X246846Y254907D02*
D03*
X251866D02*
D03*
Y251068D02*
D03*
X246846D02*
D03*
D44*
X327800Y284877D02*
D03*
Y269523D02*
D03*
D45*
X388205Y287800D02*
D03*
Y277800D02*
D03*
Y267800D02*
D03*
X368205Y287800D02*
D03*
Y277800D02*
D03*
Y267800D02*
D03*
D46*
X274356Y246936D02*
D03*
Y237684D02*
D03*
D47*
X294500Y326656D02*
D03*
Y321144D02*
D03*
X84300Y413144D02*
D03*
Y418656D02*
D03*
X74300Y413144D02*
D03*
Y418656D02*
D03*
X133500Y233444D02*
D03*
Y238956D02*
D03*
X294616Y435778D02*
D03*
Y441290D02*
D03*
X321300Y181223D02*
D03*
Y175712D02*
D03*
X133500Y245444D02*
D03*
Y250956D02*
D03*
X340000Y274844D02*
D03*
Y280356D02*
D03*
X448400Y282356D02*
D03*
Y276844D02*
D03*
X506100Y308056D02*
D03*
Y302544D02*
D03*
D48*
X289044Y280168D02*
D03*
X294556D02*
D03*
X67744Y373200D02*
D03*
X73256D02*
D03*
X81544Y398900D02*
D03*
X87056D02*
D03*
X71544Y405900D02*
D03*
X77056D02*
D03*
X240500Y302489D02*
D03*
X246012D02*
D03*
X75256Y313200D02*
D03*
X69744D02*
D03*
X218744Y275500D02*
D03*
X224256D02*
D03*
X218744Y262833D02*
D03*
X224256D02*
D03*
X212700D02*
D03*
X207188D02*
D03*
X207188Y269167D02*
D03*
X212700D02*
D03*
X229666Y290210D02*
D03*
X235178D02*
D03*
X240500Y296349D02*
D03*
X246012D02*
D03*
X235178D02*
D03*
X229666D02*
D03*
X306444Y442700D02*
D03*
X311956D02*
D03*
X309556Y175200D02*
D03*
X304044D02*
D03*
X64256Y313200D02*
D03*
X58744D02*
D03*
X218744Y269167D02*
D03*
X224256D02*
D03*
X212700Y281833D02*
D03*
X207188D02*
D03*
X288944Y273968D02*
D03*
X294456D02*
D03*
X207188Y275500D02*
D03*
X212700D02*
D03*
X229666Y308629D02*
D03*
X235178D02*
D03*
X235178Y302489D02*
D03*
X229666D02*
D03*
X440777Y293700D02*
D03*
X446288D02*
D03*
X501144Y319300D02*
D03*
X506656D02*
D03*
X73256Y353200D02*
D03*
X67744D02*
D03*
X73256Y363200D02*
D03*
X67744D02*
D03*
D49*
X265130Y228310D02*
D03*
X274382D02*
D03*
X273426Y317300D02*
D03*
X264174D02*
D03*
D50*
X59500Y282872D02*
D03*
X64500D02*
D03*
X69500D02*
D03*
X74500D02*
D03*
X59500Y304328D02*
D03*
X64500D02*
D03*
X69500D02*
D03*
X74500D02*
D03*
D51*
X305416Y420326D02*
D03*
X310400Y197031D02*
D03*
D52*
X311026Y423279D02*
D03*
Y421310D02*
D03*
Y419342D02*
D03*
Y417373D02*
D03*
X299805D02*
D03*
Y419342D02*
D03*
Y421310D02*
D03*
Y423279D02*
D03*
X304790Y194079D02*
D03*
Y196047D02*
D03*
Y198016D02*
D03*
Y199984D02*
D03*
X316010D02*
D03*
Y198016D02*
D03*
Y196047D02*
D03*
Y194079D02*
D03*
X420258Y280547D02*
D03*
Y282516D02*
D03*
Y284484D02*
D03*
Y286453D02*
D03*
X431479D02*
D03*
Y284484D02*
D03*
Y282516D02*
D03*
Y280547D02*
D03*
X477790Y306647D02*
D03*
Y308616D02*
D03*
Y310584D02*
D03*
Y312553D02*
D03*
X489010D02*
D03*
Y310584D02*
D03*
Y308616D02*
D03*
Y306647D02*
D03*
D53*
X308368Y414715D02*
D03*
X306400D02*
D03*
X304432D02*
D03*
X302463D02*
D03*
Y425936D02*
D03*
X304432D02*
D03*
X306400D02*
D03*
X308368D02*
D03*
X307447Y202642D02*
D03*
X309416D02*
D03*
X311384D02*
D03*
X313353D02*
D03*
Y191421D02*
D03*
X311384D02*
D03*
X309416D02*
D03*
X307447D02*
D03*
X428821Y277890D02*
D03*
X426853D02*
D03*
X424884D02*
D03*
X422916D02*
D03*
Y289110D02*
D03*
X424884D02*
D03*
X426853D02*
D03*
X428821D02*
D03*
X486353Y303990D02*
D03*
X484384D02*
D03*
X482416D02*
D03*
X480447D02*
D03*
Y315210D02*
D03*
X482416D02*
D03*
X484384D02*
D03*
X486353D02*
D03*
D54*
X291700Y267768D02*
D03*
Y259500D02*
D03*
X291900Y286500D02*
D03*
Y294768D02*
D03*
D55*
X264256Y275810D02*
D03*
D56*
X273508Y282699D02*
D03*
Y280731D02*
D03*
Y278762D02*
D03*
Y276794D02*
D03*
Y274825D02*
D03*
Y272857D02*
D03*
Y270888D02*
D03*
Y268920D02*
D03*
X255004Y270888D02*
D03*
Y268920D02*
D03*
Y282699D02*
D03*
Y280731D02*
D03*
Y278762D02*
D03*
Y276794D02*
D03*
Y274825D02*
D03*
Y272857D02*
D03*
D57*
X257366Y285062D02*
D03*
X259335D02*
D03*
X261303D02*
D03*
X271146D02*
D03*
X265240D02*
D03*
X263272D02*
D03*
X269177D02*
D03*
X267209D02*
D03*
X269177Y266558D02*
D03*
X271146D02*
D03*
X257366D02*
D03*
X263272D02*
D03*
X259335D02*
D03*
X261303D02*
D03*
X265240D02*
D03*
X267209D02*
D03*
D58*
X103872Y249500D02*
D03*
Y244500D02*
D03*
Y239500D02*
D03*
Y234500D02*
D03*
X125328Y249500D02*
D03*
Y244500D02*
D03*
Y239500D02*
D03*
Y234500D02*
D03*
D59*
X425869Y283500D02*
D03*
X483400Y309600D02*
D03*
D60*
X117542Y337413D02*
D03*
X135258D02*
D03*
Y301587D02*
D03*
X117542D02*
D03*
D61*
X405400Y267700D02*
D03*
X351000Y267800D02*
D03*
X405400Y288300D02*
D03*
X351200Y287700D02*
D03*
X294500Y381200D02*
D03*
Y351200D02*
D03*
X223750Y413400D02*
D03*
X329500Y366200D02*
D03*
X294500D02*
D03*
X329500Y381200D02*
D03*
X99500Y367950D02*
D03*
X68500Y245200D02*
D03*
Y222200D02*
D03*
X167547Y249146D02*
D03*
X77900Y334500D02*
D03*
X210000Y413400D02*
D03*
X237500D02*
D03*
X99500Y353400D02*
D03*
Y382500D02*
D03*
D62*
X488500Y458300D02*
D03*
X38200D02*
D03*
X488500Y166200D02*
D03*
X38200D02*
D03*
D63*
X140100Y406900D02*
D03*
Y396900D02*
D03*
X130100Y406900D02*
D03*
Y396900D02*
D03*
X140100Y416900D02*
D03*
D64*
X130100D02*
D03*
D65*
X356600Y159800D02*
D03*
X456600D02*
D03*
X156600D02*
D03*
X256600D02*
D03*
Y459800D02*
D03*
X156600D02*
D03*
X456600D02*
D03*
X356600D02*
D03*
D66*
X346600Y149800D02*
D03*
X366600D02*
D03*
Y169800D02*
D03*
X346600D02*
D03*
X446600Y149800D02*
D03*
X466600D02*
D03*
Y169800D02*
D03*
X446600D02*
D03*
X146600Y149800D02*
D03*
X166600D02*
D03*
Y169800D02*
D03*
X146600D02*
D03*
X246600Y149800D02*
D03*
X266600D02*
D03*
Y169800D02*
D03*
X246600D02*
D03*
X535900Y149800D02*
D03*
Y169800D02*
D03*
X515900D02*
D03*
Y149800D02*
D03*
X535900Y349800D02*
D03*
Y369800D02*
D03*
X515900D02*
D03*
Y349800D02*
D03*
X535900Y249800D02*
D03*
Y269800D02*
D03*
X515900D02*
D03*
Y249800D02*
D03*
X266600Y449800D02*
D03*
X246600D02*
D03*
Y469800D02*
D03*
X266600D02*
D03*
X166600Y449800D02*
D03*
X146600D02*
D03*
Y469800D02*
D03*
X166600D02*
D03*
X466600D02*
D03*
X446600D02*
D03*
Y449800D02*
D03*
X466600D02*
D03*
X366600Y469800D02*
D03*
X346600D02*
D03*
Y449800D02*
D03*
X366600D02*
D03*
X515900D02*
D03*
Y469800D02*
D03*
X535900D02*
D03*
Y449800D02*
D03*
D67*
X71500Y470200D02*
D03*
X81500D02*
D03*
X91500D02*
D03*
X71500Y440200D02*
D03*
X81500D02*
D03*
X91500D02*
D03*
D68*
X101500Y470200D02*
D03*
Y440200D02*
D03*
D69*
X106500Y179700D02*
D03*
D70*
X81500D02*
D03*
D71*
X525900Y159800D02*
D03*
Y359800D02*
D03*
Y259800D02*
D03*
Y459800D02*
D03*
D72*
X266152Y288759D02*
D03*
X270069Y288784D02*
D03*
X274700Y285300D02*
D03*
X260200Y289800D02*
D03*
X151900Y233700D02*
D03*
X276873Y270933D02*
D03*
X443000Y275900D02*
D03*
X500600Y301900D02*
D03*
X270400Y262400D02*
D03*
X174581Y366379D02*
D03*
X192100Y343000D02*
D03*
X220900Y368800D02*
D03*
X205108Y399100D02*
D03*
X204400Y388300D02*
D03*
X201700Y399600D02*
D03*
X199621Y387966D02*
D03*
X196111Y400074D02*
D03*
X306500Y207400D02*
D03*
X319000Y192400D02*
D03*
X322600Y197407D02*
D03*
X294400Y420200D02*
D03*
X296995Y426420D02*
D03*
X303220Y410713D02*
D03*
X416972Y279628D02*
D03*
X415800Y285100D02*
D03*
X489500Y317900D02*
D03*
X496698Y311807D02*
D03*
X506000Y299400D02*
D03*
X276600Y308700D02*
D03*
X294600Y236600D02*
D03*
X394905Y288000D02*
D03*
X311024Y301932D02*
D03*
X311500Y253500D02*
D03*
X361305Y277900D02*
D03*
X374805Y277800D02*
D03*
X283300Y284400D02*
D03*
X286500Y315800D02*
D03*
Y330300D02*
D03*
X254840Y266649D02*
D03*
X252000Y268900D02*
D03*
X275200Y297300D02*
D03*
Y300800D02*
D03*
Y304300D02*
D03*
X293682Y248190D02*
D03*
Y244690D02*
D03*
Y241190D02*
D03*
X148600Y233700D02*
D03*
X293682Y251690D02*
D03*
X59300Y269200D02*
D03*
X252000Y272100D02*
D03*
X204000Y262700D02*
D03*
X203900Y275600D02*
D03*
X204000Y269300D02*
D03*
X203800Y281800D02*
D03*
X218700Y259300D02*
D03*
X301100Y175200D02*
D03*
X321300Y172500D02*
D03*
X448500Y274100D02*
D03*
X449200Y293700D02*
D03*
X509400Y319200D02*
D03*
X315000Y442800D02*
D03*
X294700Y444200D02*
D03*
X50600Y373000D02*
D03*
X50500Y363200D02*
D03*
Y353200D02*
D03*
X309700Y412000D02*
D03*
X312700Y205800D02*
D03*
X179800Y411700D02*
D03*
X174200Y412000D02*
D03*
X158700Y367600D02*
D03*
X158600Y362000D02*
D03*
X158700Y355000D02*
D03*
Y349200D02*
D03*
X200200Y328100D02*
D03*
X206900D02*
D03*
X226900Y394000D02*
D03*
Y388500D02*
D03*
X227200Y374500D02*
D03*
Y379900D02*
D03*
Y357300D02*
D03*
X226900Y363000D02*
D03*
X248000Y258000D02*
D03*
X307200Y437700D02*
D03*
X313000Y437800D02*
D03*
X500600Y307300D02*
D03*
X443000Y281400D02*
D03*
X309000Y180100D02*
D03*
X303200Y180000D02*
D03*
X265200Y232800D02*
D03*
X277500Y317300D02*
D03*
X226400Y308700D02*
D03*
Y302500D02*
D03*
X226300Y296300D02*
D03*
X226200Y290200D02*
D03*
X238000Y259400D02*
D03*
X258600Y246800D02*
D03*
X190200Y335000D02*
D03*
X163800Y321700D02*
D03*
X146900Y313400D02*
D03*
X117600Y330800D02*
D03*
Y308900D02*
D03*
X55400Y320300D02*
D03*
X90100Y249400D02*
D03*
X145300Y233700D02*
D03*
X147700Y252800D02*
D03*
X141100Y252900D02*
D03*
X65700Y269300D02*
D03*
X242800Y307600D02*
D03*
X243900Y292000D02*
D03*
X208200Y380000D02*
D03*
X317800Y187400D02*
D03*
X195700Y344000D02*
D03*
X313700Y185700D02*
D03*
X436101Y286144D02*
D03*
X438500Y289300D02*
D03*
X207400Y386200D02*
D03*
X496100Y315200D02*
D03*
X300300Y432800D02*
D03*
X303800Y430100D02*
D03*
X248000Y333900D02*
D03*
X239950Y326150D02*
D03*
X243900Y337800D02*
D03*
X233450Y327250D02*
D03*
X240200Y341700D02*
D03*
X226800Y328400D02*
D03*
X135400Y344600D02*
D03*
X87200Y288100D02*
D03*
X106000Y285000D02*
D03*
X55700Y327000D02*
D03*
X75562Y323762D02*
D03*
X90100Y243000D02*
D03*
M02*
