G04*
G04 #@! TF.GenerationSoftware,Altium Limited,Altium Designer,23.2.1 (34)*
G04*
G04 Layer_Color=2752767*
%FSLAX25Y25*%
%MOIN*%
G70*
G04*
G04 #@! TF.SameCoordinates,DCD1C9D7-C552-47EB-8D17-ADC449AF66F1*
G04*
G04*
G04 #@! TF.FilePolarity,Positive*
G04*
G01*
G75*
%ADD16C,0.00500*%
%ADD92C,0.00667*%
D16*
X403400Y265700D02*
X404400Y267700D01*
X403400Y269700D01*
X405400Y268700D01*
X407400Y269700D01*
X406400Y267700D01*
X407400Y265700D01*
X405400Y266700D01*
X403400Y265700D01*
X349000Y265800D02*
X350000Y267800D01*
X349000Y269800D01*
X351000Y268800D01*
X353000Y269800D01*
X352000Y267800D01*
X353000Y265800D01*
X351000Y266800D01*
X349000Y265800D01*
X403400Y286300D02*
X404400Y288300D01*
X403400Y290300D01*
X405400Y289300D01*
X407400Y290300D01*
X406400Y288300D01*
X407400Y286300D01*
X405400Y287300D01*
X403400Y286300D01*
X349200Y285700D02*
X350200Y287700D01*
X349200Y289700D01*
X351200Y288700D01*
X353200Y289700D01*
X352200Y287700D01*
X353200Y285700D01*
X351200Y286700D01*
X349200Y285700D01*
X486500Y456300D02*
X487500D01*
X488500Y457300D01*
X489500Y456300D01*
X490500D01*
Y457300D01*
X489500Y458300D01*
X490500Y459300D01*
Y460300D01*
X489500D01*
X488500Y459300D01*
X487500Y460300D01*
X486500D01*
Y459300D01*
X487500Y458300D01*
X486500Y457300D01*
Y456300D01*
X36200D02*
X37200D01*
X38200Y457300D01*
X39200Y456300D01*
X40200D01*
Y457300D01*
X39200Y458300D01*
X40200Y459300D01*
Y460300D01*
X39200D01*
X38200Y459300D01*
X37200Y460300D01*
X36200D01*
Y459300D01*
X37200Y458300D01*
X36200Y457300D01*
Y456300D01*
X486500Y164200D02*
X487500D01*
X488500Y165200D01*
X489500Y164200D01*
X490500D01*
Y165200D01*
X489500Y166200D01*
X490500Y167200D01*
Y168200D01*
X489500D01*
X488500Y167200D01*
X487500Y168200D01*
X486500D01*
Y167200D01*
X487500Y166200D01*
X486500Y165200D01*
Y164200D01*
X36200D02*
X37200D01*
X38200Y165200D01*
X39200Y164200D01*
X40200D01*
Y165200D01*
X39200Y166200D01*
X40200Y167200D01*
Y168200D01*
X39200D01*
X38200Y167200D01*
X37200Y168200D01*
X36200D01*
Y167200D01*
X37200Y166200D01*
X36200Y165200D01*
Y164200D01*
X292500Y379200D02*
X293500Y381200D01*
X292500Y383200D01*
X294500Y382200D01*
X296500Y383200D01*
X295500Y381200D01*
X296500Y379200D01*
X294500Y380200D01*
X292500Y379200D01*
X140100Y404900D02*
X138100Y408900D01*
X142100D01*
X140100Y404900D01*
Y394900D02*
X138100Y398900D01*
X142100D01*
X140100Y394900D01*
X130100Y414900D02*
X128100Y418900D01*
X132100D01*
X130100Y414900D01*
Y404900D02*
X128100Y408900D01*
X132100D01*
X130100Y404900D01*
Y394900D02*
X128100Y398900D01*
X132100D01*
X130100Y394900D01*
X140100Y414900D02*
X138100Y418900D01*
X142100D01*
X140100Y414900D01*
X292500Y349200D02*
X293500Y351200D01*
X292500Y353200D01*
X294500Y352200D01*
X296500Y353200D01*
X295500Y351200D01*
X296500Y349200D01*
X294500Y350200D01*
X292500Y349200D01*
X221750Y411400D02*
X222750Y413400D01*
X221750Y415400D01*
X223750Y414400D01*
X225750Y415400D01*
X224750Y413400D01*
X225750Y411400D01*
X223750Y412400D01*
X221750Y411400D01*
X356600Y157800D02*
X357600Y158800D01*
X358600D01*
X357600Y159800D01*
X358600Y160800D01*
X357600D01*
X356600Y161800D01*
X355600Y160800D01*
X354600D01*
X355600Y159800D01*
X354600Y158800D01*
X355600D01*
X356600Y157800D01*
X346600Y147800D02*
X347600Y148800D01*
X348600D01*
X347600Y149800D01*
X348600Y150800D01*
X347600D01*
X346600Y151800D01*
X345600Y150800D01*
X344600D01*
X345600Y149800D01*
X344600Y148800D01*
X345600D01*
X346600Y147800D01*
X366600D02*
X367600Y148800D01*
X368600D01*
X367600Y149800D01*
X368600Y150800D01*
X367600D01*
X366600Y151800D01*
X365600Y150800D01*
X364600D01*
X365600Y149800D01*
X364600Y148800D01*
X365600D01*
X366600Y147800D01*
Y167800D02*
X367600Y168800D01*
X368600D01*
X367600Y169800D01*
X368600Y170800D01*
X367600D01*
X366600Y171800D01*
X365600Y170800D01*
X364600D01*
X365600Y169800D01*
X364600Y168800D01*
X365600D01*
X366600Y167800D01*
X346600D02*
X347600Y168800D01*
X348600D01*
X347600Y169800D01*
X348600Y170800D01*
X347600D01*
X346600Y171800D01*
X345600Y170800D01*
X344600D01*
X345600Y169800D01*
X344600Y168800D01*
X345600D01*
X346600Y167800D01*
X456600Y157800D02*
X457600Y158800D01*
X458600D01*
X457600Y159800D01*
X458600Y160800D01*
X457600D01*
X456600Y161800D01*
X455600Y160800D01*
X454600D01*
X455600Y159800D01*
X454600Y158800D01*
X455600D01*
X456600Y157800D01*
X446600Y147800D02*
X447600Y148800D01*
X448600D01*
X447600Y149800D01*
X448600Y150800D01*
X447600D01*
X446600Y151800D01*
X445600Y150800D01*
X444600D01*
X445600Y149800D01*
X444600Y148800D01*
X445600D01*
X446600Y147800D01*
X466600D02*
X467600Y148800D01*
X468600D01*
X467600Y149800D01*
X468600Y150800D01*
X467600D01*
X466600Y151800D01*
X465600Y150800D01*
X464600D01*
X465600Y149800D01*
X464600Y148800D01*
X465600D01*
X466600Y147800D01*
Y167800D02*
X467600Y168800D01*
X468600D01*
X467600Y169800D01*
X468600Y170800D01*
X467600D01*
X466600Y171800D01*
X465600Y170800D01*
X464600D01*
X465600Y169800D01*
X464600Y168800D01*
X465600D01*
X466600Y167800D01*
X446600D02*
X447600Y168800D01*
X448600D01*
X447600Y169800D01*
X448600Y170800D01*
X447600D01*
X446600Y171800D01*
X445600Y170800D01*
X444600D01*
X445600Y169800D01*
X444600Y168800D01*
X445600D01*
X446600Y167800D01*
X156600Y157800D02*
X157600Y158800D01*
X158600D01*
X157600Y159800D01*
X158600Y160800D01*
X157600D01*
X156600Y161800D01*
X155600Y160800D01*
X154600D01*
X155600Y159800D01*
X154600Y158800D01*
X155600D01*
X156600Y157800D01*
X146600Y147800D02*
X147600Y148800D01*
X148600D01*
X147600Y149800D01*
X148600Y150800D01*
X147600D01*
X146600Y151800D01*
X145600Y150800D01*
X144600D01*
X145600Y149800D01*
X144600Y148800D01*
X145600D01*
X146600Y147800D01*
X166600D02*
X167600Y148800D01*
X168600D01*
X167600Y149800D01*
X168600Y150800D01*
X167600D01*
X166600Y151800D01*
X165600Y150800D01*
X164600D01*
X165600Y149800D01*
X164600Y148800D01*
X165600D01*
X166600Y147800D01*
Y167800D02*
X167600Y168800D01*
X168600D01*
X167600Y169800D01*
X168600Y170800D01*
X167600D01*
X166600Y171800D01*
X165600Y170800D01*
X164600D01*
X165600Y169800D01*
X164600Y168800D01*
X165600D01*
X166600Y167800D01*
X146600D02*
X147600Y168800D01*
X148600D01*
X147600Y169800D01*
X148600Y170800D01*
X147600D01*
X146600Y171800D01*
X145600Y170800D01*
X144600D01*
X145600Y169800D01*
X144600Y168800D01*
X145600D01*
X146600Y167800D01*
X256600Y157800D02*
X257600Y158800D01*
X258600D01*
X257600Y159800D01*
X258600Y160800D01*
X257600D01*
X256600Y161800D01*
X255600Y160800D01*
X254600D01*
X255600Y159800D01*
X254600Y158800D01*
X255600D01*
X256600Y157800D01*
X246600Y147800D02*
X247600Y148800D01*
X248600D01*
X247600Y149800D01*
X248600Y150800D01*
X247600D01*
X246600Y151800D01*
X245600Y150800D01*
X244600D01*
X245600Y149800D01*
X244600Y148800D01*
X245600D01*
X246600Y147800D01*
X266600D02*
X267600Y148800D01*
X268600D01*
X267600Y149800D01*
X268600Y150800D01*
X267600D01*
X266600Y151800D01*
X265600Y150800D01*
X264600D01*
X265600Y149800D01*
X264600Y148800D01*
X265600D01*
X266600Y147800D01*
Y167800D02*
X267600Y168800D01*
X268600D01*
X267600Y169800D01*
X268600Y170800D01*
X267600D01*
X266600Y171800D01*
X265600Y170800D01*
X264600D01*
X265600Y169800D01*
X264600Y168800D01*
X265600D01*
X266600Y167800D01*
X246600D02*
X247600Y168800D01*
X248600D01*
X247600Y169800D01*
X248600Y170800D01*
X247600D01*
X246600Y171800D01*
X245600Y170800D01*
X244600D01*
X245600Y169800D01*
X244600Y168800D01*
X245600D01*
X246600Y167800D01*
X327500Y364200D02*
X328500Y366200D01*
X327500Y368200D01*
X329500Y367200D01*
X331500Y368200D01*
X330500Y366200D01*
X331500Y364200D01*
X329500Y365200D01*
X327500Y364200D01*
X292500D02*
X293500Y366200D01*
X292500Y368200D01*
X294500Y367200D01*
X296500Y368200D01*
X295500Y366200D01*
X296500Y364200D01*
X294500Y365200D01*
X292500Y364200D01*
X327500Y379200D02*
X328500Y381200D01*
X327500Y383200D01*
X329500Y382200D01*
X331500Y383200D01*
X330500Y381200D01*
X331500Y379200D01*
X329500Y380200D01*
X327500Y379200D01*
X97500Y365950D02*
X98500Y367950D01*
X97500Y369950D01*
X99500Y368950D01*
X101500Y369950D01*
X100500Y367950D01*
X101500Y365950D01*
X99500Y366950D01*
X97500Y365950D01*
X66500Y243200D02*
X67500Y245200D01*
X66500Y247200D01*
X68500Y246200D01*
X70500Y247200D01*
X69500Y245200D01*
X70500Y243200D01*
X68500Y244200D01*
X66500Y243200D01*
Y220200D02*
X67500Y222200D01*
X66500Y224200D01*
X68500Y223200D01*
X70500Y224200D01*
X69500Y222200D01*
X70500Y220200D01*
X68500Y221200D01*
X66500Y220200D01*
X165547Y247146D02*
X166547Y249146D01*
X165547Y251146D01*
X167547Y250146D01*
X169547Y251146D01*
X168547Y249146D01*
X169547Y247146D01*
X167547Y248146D01*
X165547Y247146D01*
X75900Y332500D02*
X76900Y334500D01*
X75900Y336500D01*
X77900Y335500D01*
X79900Y336500D01*
X78900Y334500D01*
X79900Y332500D01*
X77900Y333500D01*
X75900Y332500D01*
X208000Y411400D02*
X209000Y413400D01*
X208000Y415400D01*
X210000Y414400D01*
X212000Y415400D01*
X211000Y413400D01*
X212000Y411400D01*
X210000Y412400D01*
X208000Y411400D01*
X235500D02*
X236500Y413400D01*
X235500Y415400D01*
X237500Y414400D01*
X239500Y415400D01*
X238500Y413400D01*
X239500Y411400D01*
X237500Y412400D01*
X235500Y411400D01*
X97500Y351400D02*
X98500Y353400D01*
X97500Y355400D01*
X99500Y354400D01*
X101500Y355400D01*
X100500Y353400D01*
X101500Y351400D01*
X99500Y352400D01*
X97500Y351400D01*
Y380500D02*
X98500Y382500D01*
X97500Y384500D01*
X99500Y383500D01*
X101500Y384500D01*
X100500Y382500D01*
X101500Y380500D01*
X99500Y381500D01*
X97500Y380500D01*
X104500Y177700D02*
Y181700D01*
X108500D01*
Y177700D01*
X104500D01*
X79500D02*
Y181700D01*
X83500D01*
Y177700D01*
X79500D01*
X525900Y157800D02*
X526900Y158800D01*
X527900D01*
X526900Y159800D01*
X527900Y160800D01*
X526900D01*
X525900Y161800D01*
X524900Y160800D01*
X523900D01*
X524900Y159800D01*
X523900Y158800D01*
X524900D01*
X525900Y157800D01*
X535900Y147800D02*
X536900Y148800D01*
X537900D01*
X536900Y149800D01*
X537900Y150800D01*
X536900D01*
X535900Y151800D01*
X534900Y150800D01*
X533900D01*
X534900Y149800D01*
X533900Y148800D01*
X534900D01*
X535900Y147800D01*
Y167800D02*
X536900Y168800D01*
X537900D01*
X536900Y169800D01*
X537900Y170800D01*
X536900D01*
X535900Y171800D01*
X534900Y170800D01*
X533900D01*
X534900Y169800D01*
X533900Y168800D01*
X534900D01*
X535900Y167800D01*
X515900D02*
X516900Y168800D01*
X517900D01*
X516900Y169800D01*
X517900Y170800D01*
X516900D01*
X515900Y171800D01*
X514900Y170800D01*
X513900D01*
X514900Y169800D01*
X513900Y168800D01*
X514900D01*
X515900Y167800D01*
Y147800D02*
X516900Y148800D01*
X517900D01*
X516900Y149800D01*
X517900Y150800D01*
X516900D01*
X515900Y151800D01*
X514900Y150800D01*
X513900D01*
X514900Y149800D01*
X513900Y148800D01*
X514900D01*
X515900Y147800D01*
X525900Y357800D02*
X526900Y358800D01*
X527900D01*
X526900Y359800D01*
X527900Y360800D01*
X526900D01*
X525900Y361800D01*
X524900Y360800D01*
X523900D01*
X524900Y359800D01*
X523900Y358800D01*
X524900D01*
X525900Y357800D01*
X535900Y347800D02*
X536900Y348800D01*
X537900D01*
X536900Y349800D01*
X537900Y350800D01*
X536900D01*
X535900Y351800D01*
X534900Y350800D01*
X533900D01*
X534900Y349800D01*
X533900Y348800D01*
X534900D01*
X535900Y347800D01*
Y367800D02*
X536900Y368800D01*
X537900D01*
X536900Y369800D01*
X537900Y370800D01*
X536900D01*
X535900Y371800D01*
X534900Y370800D01*
X533900D01*
X534900Y369800D01*
X533900Y368800D01*
X534900D01*
X535900Y367800D01*
X515900D02*
X516900Y368800D01*
X517900D01*
X516900Y369800D01*
X517900Y370800D01*
X516900D01*
X515900Y371800D01*
X514900Y370800D01*
X513900D01*
X514900Y369800D01*
X513900Y368800D01*
X514900D01*
X515900Y367800D01*
Y347800D02*
X516900Y348800D01*
X517900D01*
X516900Y349800D01*
X517900Y350800D01*
X516900D01*
X515900Y351800D01*
X514900Y350800D01*
X513900D01*
X514900Y349800D01*
X513900Y348800D01*
X514900D01*
X515900Y347800D01*
X525900Y257800D02*
X526900Y258800D01*
X527900D01*
X526900Y259800D01*
X527900Y260800D01*
X526900D01*
X525900Y261800D01*
X524900Y260800D01*
X523900D01*
X524900Y259800D01*
X523900Y258800D01*
X524900D01*
X525900Y257800D01*
X535900Y247800D02*
X536900Y248800D01*
X537900D01*
X536900Y249800D01*
X537900Y250800D01*
X536900D01*
X535900Y251800D01*
X534900Y250800D01*
X533900D01*
X534900Y249800D01*
X533900Y248800D01*
X534900D01*
X535900Y247800D01*
Y267800D02*
X536900Y268800D01*
X537900D01*
X536900Y269800D01*
X537900Y270800D01*
X536900D01*
X535900Y271800D01*
X534900Y270800D01*
X533900D01*
X534900Y269800D01*
X533900Y268800D01*
X534900D01*
X535900Y267800D01*
X515900D02*
X516900Y268800D01*
X517900D01*
X516900Y269800D01*
X517900Y270800D01*
X516900D01*
X515900Y271800D01*
X514900Y270800D01*
X513900D01*
X514900Y269800D01*
X513900Y268800D01*
X514900D01*
X515900Y267800D01*
Y247800D02*
X516900Y248800D01*
X517900D01*
X516900Y249800D01*
X517900Y250800D01*
X516900D01*
X515900Y251800D01*
X514900Y250800D01*
X513900D01*
X514900Y249800D01*
X513900Y248800D01*
X514900D01*
X515900Y247800D01*
X266600Y447800D02*
X267600Y448800D01*
X268600D01*
X267600Y449800D01*
X268600Y450800D01*
X267600D01*
X266600Y451800D01*
X265600Y450800D01*
X264600D01*
X265600Y449800D01*
X264600Y448800D01*
X265600D01*
X266600Y447800D01*
X246600D02*
X247600Y448800D01*
X248600D01*
X247600Y449800D01*
X248600Y450800D01*
X247600D01*
X246600Y451800D01*
X245600Y450800D01*
X244600D01*
X245600Y449800D01*
X244600Y448800D01*
X245600D01*
X246600Y447800D01*
Y467800D02*
X247600Y468800D01*
X248600D01*
X247600Y469800D01*
X248600Y470800D01*
X247600D01*
X246600Y471800D01*
X245600Y470800D01*
X244600D01*
X245600Y469800D01*
X244600Y468800D01*
X245600D01*
X246600Y467800D01*
X266600D02*
X267600Y468800D01*
X268600D01*
X267600Y469800D01*
X268600Y470800D01*
X267600D01*
X266600Y471800D01*
X265600Y470800D01*
X264600D01*
X265600Y469800D01*
X264600Y468800D01*
X265600D01*
X266600Y467800D01*
X256600Y457800D02*
X257600Y458800D01*
X258600D01*
X257600Y459800D01*
X258600Y460800D01*
X257600D01*
X256600Y461800D01*
X255600Y460800D01*
X254600D01*
X255600Y459800D01*
X254600Y458800D01*
X255600D01*
X256600Y457800D01*
X166600Y447800D02*
X167600Y448800D01*
X168600D01*
X167600Y449800D01*
X168600Y450800D01*
X167600D01*
X166600Y451800D01*
X165600Y450800D01*
X164600D01*
X165600Y449800D01*
X164600Y448800D01*
X165600D01*
X166600Y447800D01*
X146600D02*
X147600Y448800D01*
X148600D01*
X147600Y449800D01*
X148600Y450800D01*
X147600D01*
X146600Y451800D01*
X145600Y450800D01*
X144600D01*
X145600Y449800D01*
X144600Y448800D01*
X145600D01*
X146600Y447800D01*
Y467800D02*
X147600Y468800D01*
X148600D01*
X147600Y469800D01*
X148600Y470800D01*
X147600D01*
X146600Y471800D01*
X145600Y470800D01*
X144600D01*
X145600Y469800D01*
X144600Y468800D01*
X145600D01*
X146600Y467800D01*
X166600D02*
X167600Y468800D01*
X168600D01*
X167600Y469800D01*
X168600Y470800D01*
X167600D01*
X166600Y471800D01*
X165600Y470800D01*
X164600D01*
X165600Y469800D01*
X164600Y468800D01*
X165600D01*
X166600Y467800D01*
X156600Y457800D02*
X157600Y458800D01*
X158600D01*
X157600Y459800D01*
X158600Y460800D01*
X157600D01*
X156600Y461800D01*
X155600Y460800D01*
X154600D01*
X155600Y459800D01*
X154600Y458800D01*
X155600D01*
X156600Y457800D01*
X456600D02*
X457600Y458800D01*
X458600D01*
X457600Y459800D01*
X458600Y460800D01*
X457600D01*
X456600Y461800D01*
X455600Y460800D01*
X454600D01*
X455600Y459800D01*
X454600Y458800D01*
X455600D01*
X456600Y457800D01*
X466600Y467800D02*
X467600Y468800D01*
X468600D01*
X467600Y469800D01*
X468600Y470800D01*
X467600D01*
X466600Y471800D01*
X465600Y470800D01*
X464600D01*
X465600Y469800D01*
X464600Y468800D01*
X465600D01*
X466600Y467800D01*
X446600D02*
X447600Y468800D01*
X448600D01*
X447600Y469800D01*
X448600Y470800D01*
X447600D01*
X446600Y471800D01*
X445600Y470800D01*
X444600D01*
X445600Y469800D01*
X444600Y468800D01*
X445600D01*
X446600Y467800D01*
Y447800D02*
X447600Y448800D01*
X448600D01*
X447600Y449800D01*
X448600Y450800D01*
X447600D01*
X446600Y451800D01*
X445600Y450800D01*
X444600D01*
X445600Y449800D01*
X444600Y448800D01*
X445600D01*
X446600Y447800D01*
X466600D02*
X467600Y448800D01*
X468600D01*
X467600Y449800D01*
X468600Y450800D01*
X467600D01*
X466600Y451800D01*
X465600Y450800D01*
X464600D01*
X465600Y449800D01*
X464600Y448800D01*
X465600D01*
X466600Y447800D01*
X356600Y457800D02*
X357600Y458800D01*
X358600D01*
X357600Y459800D01*
X358600Y460800D01*
X357600D01*
X356600Y461800D01*
X355600Y460800D01*
X354600D01*
X355600Y459800D01*
X354600Y458800D01*
X355600D01*
X356600Y457800D01*
X366600Y467800D02*
X367600Y468800D01*
X368600D01*
X367600Y469800D01*
X368600Y470800D01*
X367600D01*
X366600Y471800D01*
X365600Y470800D01*
X364600D01*
X365600Y469800D01*
X364600Y468800D01*
X365600D01*
X366600Y467800D01*
X346600D02*
X347600Y468800D01*
X348600D01*
X347600Y469800D01*
X348600Y470800D01*
X347600D01*
X346600Y471800D01*
X345600Y470800D01*
X344600D01*
X345600Y469800D01*
X344600Y468800D01*
X345600D01*
X346600Y467800D01*
Y447800D02*
X347600Y448800D01*
X348600D01*
X347600Y449800D01*
X348600Y450800D01*
X347600D01*
X346600Y451800D01*
X345600Y450800D01*
X344600D01*
X345600Y449800D01*
X344600Y448800D01*
X345600D01*
X346600Y447800D01*
X366600D02*
X367600Y448800D01*
X368600D01*
X367600Y449800D01*
X368600Y450800D01*
X367600D01*
X366600Y451800D01*
X365600Y450800D01*
X364600D01*
X365600Y449800D01*
X364600Y448800D01*
X365600D01*
X366600Y447800D01*
X515900D02*
X516900Y448800D01*
X517900D01*
X516900Y449800D01*
X517900Y450800D01*
X516900D01*
X515900Y451800D01*
X514900Y450800D01*
X513900D01*
X514900Y449800D01*
X513900Y448800D01*
X514900D01*
X515900Y447800D01*
Y467800D02*
X516900Y468800D01*
X517900D01*
X516900Y469800D01*
X517900Y470800D01*
X516900D01*
X515900Y471800D01*
X514900Y470800D01*
X513900D01*
X514900Y469800D01*
X513900Y468800D01*
X514900D01*
X515900Y467800D01*
X535900D02*
X536900Y468800D01*
X537900D01*
X536900Y469800D01*
X537900Y470800D01*
X536900D01*
X535900Y471800D01*
X534900Y470800D01*
X533900D01*
X534900Y469800D01*
X533900Y468800D01*
X534900D01*
X535900Y467800D01*
Y447800D02*
X536900Y448800D01*
X537900D01*
X536900Y449800D01*
X537900Y450800D01*
X536900D01*
X535900Y451800D01*
X534900Y450800D01*
X533900D01*
X534900Y449800D01*
X533900Y448800D01*
X534900D01*
X535900Y447800D01*
X525900Y457800D02*
X526900Y458800D01*
X527900D01*
X526900Y459800D01*
X527900Y460800D01*
X526900D01*
X525900Y461800D01*
X524900Y460800D01*
X523900D01*
X524900Y459800D01*
X523900Y458800D01*
X524900D01*
X525900Y457800D01*
X265152Y287759D02*
Y286759D01*
X267152D01*
Y287759D01*
X268152D01*
Y289759D01*
X267152D01*
Y290759D01*
X265152D01*
Y289759D01*
X264152D01*
Y287759D01*
X265152D01*
X269069Y287784D02*
Y286784D01*
X271069D01*
Y287784D01*
X272069D01*
Y289784D01*
X271069D01*
Y290784D01*
X269069D01*
Y289784D01*
X268069D01*
Y287784D01*
X269069D01*
X273700Y284300D02*
Y283300D01*
X275700D01*
Y284300D01*
X276700D01*
Y286300D01*
X275700D01*
Y287300D01*
X273700D01*
Y286300D01*
X272700D01*
Y284300D01*
X273700D01*
X259200Y288800D02*
Y287800D01*
X261200D01*
Y288800D01*
X262200D01*
Y290800D01*
X261200D01*
Y291800D01*
X259200D01*
Y290800D01*
X258200D01*
Y288800D01*
X259200D01*
X150900Y232700D02*
Y231700D01*
X152900D01*
Y232700D01*
X153900D01*
Y234700D01*
X152900D01*
Y235700D01*
X150900D01*
Y234700D01*
X149900D01*
Y232700D01*
X150900D01*
X275873Y269933D02*
Y268933D01*
X277873D01*
Y269933D01*
X278873D01*
Y271933D01*
X277873D01*
Y272933D01*
X275873D01*
Y271933D01*
X274873D01*
Y269933D01*
X275873D01*
X442000Y274900D02*
Y273900D01*
X444000D01*
Y274900D01*
X445000D01*
Y276900D01*
X444000D01*
Y277900D01*
X442000D01*
Y276900D01*
X441000D01*
Y274900D01*
X442000D01*
X499600Y300900D02*
Y299900D01*
X501600D01*
Y300900D01*
X502600D01*
Y302900D01*
X501600D01*
Y303900D01*
X499600D01*
Y302900D01*
X498600D01*
Y300900D01*
X499600D01*
X269400Y261400D02*
Y260400D01*
X271400D01*
Y261400D01*
X272400D01*
Y263400D01*
X271400D01*
Y264400D01*
X269400D01*
Y263400D01*
X268400D01*
Y261400D01*
X269400D01*
X173581Y365379D02*
Y364379D01*
X175581D01*
Y365379D01*
X176581D01*
Y367379D01*
X175581D01*
Y368379D01*
X173581D01*
Y367379D01*
X172581D01*
Y365379D01*
X173581D01*
X191100Y342000D02*
Y341000D01*
X193100D01*
Y342000D01*
X194100D01*
Y344000D01*
X193100D01*
Y345000D01*
X191100D01*
Y344000D01*
X190100D01*
Y342000D01*
X191100D01*
X219900Y367800D02*
Y366800D01*
X221900D01*
Y367800D01*
X222900D01*
Y369800D01*
X221900D01*
Y370800D01*
X219900D01*
Y369800D01*
X218900D01*
Y367800D01*
X219900D01*
X204108Y398100D02*
Y397100D01*
X206108D01*
Y398100D01*
X207108D01*
Y400100D01*
X206108D01*
Y401100D01*
X204108D01*
Y400100D01*
X203108D01*
Y398100D01*
X204108D01*
X203400Y387300D02*
Y386300D01*
X205400D01*
Y387300D01*
X206400D01*
Y389300D01*
X205400D01*
Y390300D01*
X203400D01*
Y389300D01*
X202400D01*
Y387300D01*
X203400D01*
X200700Y398600D02*
Y397600D01*
X202700D01*
Y398600D01*
X203700D01*
Y400600D01*
X202700D01*
Y401600D01*
X200700D01*
Y400600D01*
X199700D01*
Y398600D01*
X200700D01*
X198621Y386966D02*
Y385966D01*
X200621D01*
Y386966D01*
X201621D01*
Y388966D01*
X200621D01*
Y389967D01*
X198621D01*
Y388966D01*
X197621D01*
Y386966D01*
X198621D01*
X195111Y399074D02*
Y398074D01*
X197111D01*
Y399074D01*
X198111D01*
Y401074D01*
X197111D01*
Y402074D01*
X195111D01*
Y401074D01*
X194111D01*
Y399074D01*
X195111D01*
X305500Y206400D02*
Y205400D01*
X307500D01*
Y206400D01*
X308500D01*
Y208400D01*
X307500D01*
Y209400D01*
X305500D01*
Y208400D01*
X304500D01*
Y206400D01*
X305500D01*
X318000Y191400D02*
Y190400D01*
X320000D01*
Y191400D01*
X321000D01*
Y193400D01*
X320000D01*
Y194400D01*
X318000D01*
Y193400D01*
X317000D01*
Y191400D01*
X318000D01*
X321600Y196407D02*
Y195407D01*
X323600D01*
Y196407D01*
X324600D01*
Y198407D01*
X323600D01*
Y199407D01*
X321600D01*
Y198407D01*
X320600D01*
Y196407D01*
X321600D01*
X293400Y419200D02*
Y418200D01*
X295400D01*
Y419200D01*
X296400D01*
Y421200D01*
X295400D01*
Y422200D01*
X293400D01*
Y421200D01*
X292400D01*
Y419200D01*
X293400D01*
X295995Y425420D02*
Y424420D01*
X297995D01*
Y425420D01*
X298995D01*
Y427420D01*
X297995D01*
Y428420D01*
X295995D01*
Y427420D01*
X294995D01*
Y425420D01*
X295995D01*
X302220Y409713D02*
Y408713D01*
X304220D01*
Y409713D01*
X305220D01*
Y411713D01*
X304220D01*
Y412713D01*
X302220D01*
Y411713D01*
X301220D01*
Y409713D01*
X302220D01*
X415972Y278628D02*
Y277628D01*
X417972D01*
Y278628D01*
X418972D01*
Y280628D01*
X417972D01*
Y281628D01*
X415972D01*
Y280628D01*
X414972D01*
Y278628D01*
X415972D01*
X414800Y284100D02*
Y283100D01*
X416800D01*
Y284100D01*
X417800D01*
Y286100D01*
X416800D01*
Y287100D01*
X414800D01*
Y286100D01*
X413800D01*
Y284100D01*
X414800D01*
X488500Y316900D02*
Y315900D01*
X490500D01*
Y316900D01*
X491500D01*
Y318900D01*
X490500D01*
Y319900D01*
X488500D01*
Y318900D01*
X487500D01*
Y316900D01*
X488500D01*
X495697Y310807D02*
Y309807D01*
X497697D01*
Y310807D01*
X498698D01*
Y312807D01*
X497697D01*
Y313807D01*
X495697D01*
Y312807D01*
X494698D01*
Y310807D01*
X495697D01*
X505000Y298400D02*
Y297400D01*
X507000D01*
Y298400D01*
X508000D01*
Y300400D01*
X507000D01*
Y301400D01*
X505000D01*
Y300400D01*
X504000D01*
Y298400D01*
X505000D01*
X275600Y307700D02*
Y306700D01*
X277600D01*
Y307700D01*
X278600D01*
Y309700D01*
X277600D01*
Y310700D01*
X275600D01*
Y309700D01*
X274600D01*
Y307700D01*
X275600D01*
X293600Y235600D02*
Y234600D01*
X295600D01*
Y235600D01*
X296600D01*
Y237600D01*
X295600D01*
Y238600D01*
X293600D01*
Y237600D01*
X292600D01*
Y235600D01*
X293600D01*
X393905Y287000D02*
Y286000D01*
X395905D01*
Y287000D01*
X396905D01*
Y289000D01*
X395905D01*
Y290000D01*
X393905D01*
Y289000D01*
X392905D01*
Y287000D01*
X393905D01*
X310024Y300932D02*
Y299932D01*
X312024D01*
Y300932D01*
X313024D01*
Y302932D01*
X312024D01*
Y303932D01*
X310024D01*
Y302932D01*
X309024D01*
Y300932D01*
X310024D01*
X310500Y252500D02*
Y251500D01*
X312500D01*
Y252500D01*
X313500D01*
Y254500D01*
X312500D01*
Y255500D01*
X310500D01*
Y254500D01*
X309500D01*
Y252500D01*
X310500D01*
X360305Y276900D02*
Y275900D01*
X362305D01*
Y276900D01*
X363305D01*
Y278900D01*
X362305D01*
Y279900D01*
X360305D01*
Y278900D01*
X359305D01*
Y276900D01*
X360305D01*
X373805Y276800D02*
Y275800D01*
X375805D01*
Y276800D01*
X376805D01*
Y278800D01*
X375805D01*
Y279800D01*
X373805D01*
Y278800D01*
X372805D01*
Y276800D01*
X373805D01*
X282300Y283400D02*
Y282400D01*
X284300D01*
Y283400D01*
X285300D01*
Y285400D01*
X284300D01*
Y286400D01*
X282300D01*
Y285400D01*
X281300D01*
Y283400D01*
X282300D01*
X285500Y314800D02*
Y313800D01*
X287500D01*
Y314800D01*
X288500D01*
Y316800D01*
X287500D01*
Y317800D01*
X285500D01*
Y316800D01*
X284500D01*
Y314800D01*
X285500D01*
Y329300D02*
Y328300D01*
X287500D01*
Y329300D01*
X288500D01*
Y331300D01*
X287500D01*
Y332300D01*
X285500D01*
Y331300D01*
X284500D01*
Y329300D01*
X285500D01*
X253840Y265649D02*
Y264649D01*
X255840D01*
Y265649D01*
X256840D01*
Y267649D01*
X255840D01*
Y268649D01*
X253840D01*
Y267649D01*
X252840D01*
Y265649D01*
X253840D01*
X251000Y267900D02*
Y266900D01*
X253000D01*
Y267900D01*
X254000D01*
Y269900D01*
X253000D01*
Y270900D01*
X251000D01*
Y269900D01*
X250000D01*
Y267900D01*
X251000D01*
X274200Y296300D02*
Y295300D01*
X276200D01*
Y296300D01*
X277200D01*
Y298300D01*
X276200D01*
Y299300D01*
X274200D01*
Y298300D01*
X273200D01*
Y296300D01*
X274200D01*
Y299800D02*
Y298800D01*
X276200D01*
Y299800D01*
X277200D01*
Y301800D01*
X276200D01*
Y302800D01*
X274200D01*
Y301800D01*
X273200D01*
Y299800D01*
X274200D01*
Y303300D02*
Y302300D01*
X276200D01*
Y303300D01*
X277200D01*
Y305300D01*
X276200D01*
Y306300D01*
X274200D01*
Y305300D01*
X273200D01*
Y303300D01*
X274200D01*
X292682Y247190D02*
Y246190D01*
X294682D01*
Y247190D01*
X295682D01*
Y249190D01*
X294682D01*
Y250190D01*
X292682D01*
Y249190D01*
X291682D01*
Y247190D01*
X292682D01*
Y243690D02*
Y242690D01*
X294682D01*
Y243690D01*
X295682D01*
Y245690D01*
X294682D01*
Y246690D01*
X292682D01*
Y245690D01*
X291682D01*
Y243690D01*
X292682D01*
Y240190D02*
Y239190D01*
X294682D01*
Y240190D01*
X295682D01*
Y242190D01*
X294682D01*
Y243190D01*
X292682D01*
Y242190D01*
X291682D01*
Y240190D01*
X292682D01*
X147600Y232700D02*
Y231700D01*
X149600D01*
Y232700D01*
X150600D01*
Y234700D01*
X149600D01*
Y235700D01*
X147600D01*
Y234700D01*
X146600D01*
Y232700D01*
X147600D01*
X292682Y250690D02*
Y249690D01*
X294682D01*
Y250690D01*
X295682D01*
Y252690D01*
X294682D01*
Y253690D01*
X292682D01*
Y252690D01*
X291682D01*
Y250690D01*
X292682D01*
X58300Y268200D02*
Y267200D01*
X60300D01*
Y268200D01*
X61300D01*
Y270200D01*
X60300D01*
Y271200D01*
X58300D01*
Y270200D01*
X57300D01*
Y268200D01*
X58300D01*
X251000Y271100D02*
Y270100D01*
X253000D01*
Y271100D01*
X254000D01*
Y273100D01*
X253000D01*
Y274100D01*
X251000D01*
Y273100D01*
X250000D01*
Y271100D01*
X251000D01*
X203000Y261700D02*
Y260700D01*
X205000D01*
Y261700D01*
X206000D01*
Y263700D01*
X205000D01*
Y264700D01*
X203000D01*
Y263700D01*
X202000D01*
Y261700D01*
X203000D01*
X202900Y274600D02*
Y273600D01*
X204900D01*
Y274600D01*
X205900D01*
Y276600D01*
X204900D01*
Y277600D01*
X202900D01*
Y276600D01*
X201900D01*
Y274600D01*
X202900D01*
X203000Y268300D02*
Y267300D01*
X205000D01*
Y268300D01*
X206000D01*
Y270300D01*
X205000D01*
Y271300D01*
X203000D01*
Y270300D01*
X202000D01*
Y268300D01*
X203000D01*
X202800Y280800D02*
Y279800D01*
X204800D01*
Y280800D01*
X205800D01*
Y282800D01*
X204800D01*
Y283800D01*
X202800D01*
Y282800D01*
X201800D01*
Y280800D01*
X202800D01*
X217700Y258300D02*
Y257300D01*
X219700D01*
Y258300D01*
X220700D01*
Y260300D01*
X219700D01*
Y261300D01*
X217700D01*
Y260300D01*
X216700D01*
Y258300D01*
X217700D01*
X300100Y174200D02*
Y173200D01*
X302100D01*
Y174200D01*
X303100D01*
Y176200D01*
X302100D01*
Y177200D01*
X300100D01*
Y176200D01*
X299100D01*
Y174200D01*
X300100D01*
X320300Y171500D02*
Y170500D01*
X322300D01*
Y171500D01*
X323300D01*
Y173500D01*
X322300D01*
Y174500D01*
X320300D01*
Y173500D01*
X319300D01*
Y171500D01*
X320300D01*
X447500Y273100D02*
Y272100D01*
X449500D01*
Y273100D01*
X450500D01*
Y275100D01*
X449500D01*
Y276100D01*
X447500D01*
Y275100D01*
X446500D01*
Y273100D01*
X447500D01*
X448200Y292700D02*
Y291700D01*
X450200D01*
Y292700D01*
X451200D01*
Y294700D01*
X450200D01*
Y295700D01*
X448200D01*
Y294700D01*
X447200D01*
Y292700D01*
X448200D01*
X508400Y318200D02*
Y317200D01*
X510400D01*
Y318200D01*
X511400D01*
Y320200D01*
X510400D01*
Y321200D01*
X508400D01*
Y320200D01*
X507400D01*
Y318200D01*
X508400D01*
X314000Y441800D02*
Y440800D01*
X316000D01*
Y441800D01*
X317000D01*
Y443800D01*
X316000D01*
Y444800D01*
X314000D01*
Y443800D01*
X313000D01*
Y441800D01*
X314000D01*
X293700Y443200D02*
Y442200D01*
X295700D01*
Y443200D01*
X296700D01*
Y445200D01*
X295700D01*
Y446200D01*
X293700D01*
Y445200D01*
X292700D01*
Y443200D01*
X293700D01*
X49600Y372000D02*
Y371000D01*
X51600D01*
Y372000D01*
X52600D01*
Y374000D01*
X51600D01*
Y375000D01*
X49600D01*
Y374000D01*
X48600D01*
Y372000D01*
X49600D01*
X49500Y362200D02*
Y361200D01*
X51500D01*
Y362200D01*
X52500D01*
Y364200D01*
X51500D01*
Y365200D01*
X49500D01*
Y364200D01*
X48500D01*
Y362200D01*
X49500D01*
Y352200D02*
Y351200D01*
X51500D01*
Y352200D01*
X52500D01*
Y354200D01*
X51500D01*
Y355200D01*
X49500D01*
Y354200D01*
X48500D01*
Y352200D01*
X49500D01*
X308700Y411000D02*
Y410000D01*
X310700D01*
Y411000D01*
X311700D01*
Y413000D01*
X310700D01*
Y414000D01*
X308700D01*
Y413000D01*
X307700D01*
Y411000D01*
X308700D01*
X311700Y204800D02*
Y203800D01*
X313700D01*
Y204800D01*
X314700D01*
Y206800D01*
X313700D01*
Y207800D01*
X311700D01*
Y206800D01*
X310700D01*
Y204800D01*
X311700D01*
X178800Y410700D02*
Y409700D01*
X180800D01*
Y410700D01*
X181800D01*
Y412700D01*
X180800D01*
Y413700D01*
X178800D01*
Y412700D01*
X177800D01*
Y410700D01*
X178800D01*
X173200Y411000D02*
Y410000D01*
X175200D01*
Y411000D01*
X176200D01*
Y413000D01*
X175200D01*
Y414000D01*
X173200D01*
Y413000D01*
X172200D01*
Y411000D01*
X173200D01*
X157700Y366600D02*
Y365600D01*
X159700D01*
Y366600D01*
X160700D01*
Y368600D01*
X159700D01*
Y369600D01*
X157700D01*
Y368600D01*
X156700D01*
Y366600D01*
X157700D01*
X157600Y361000D02*
Y360000D01*
X159600D01*
Y361000D01*
X160600D01*
Y363000D01*
X159600D01*
Y364000D01*
X157600D01*
Y363000D01*
X156600D01*
Y361000D01*
X157600D01*
X157700Y354000D02*
Y353000D01*
X159700D01*
Y354000D01*
X160700D01*
Y356000D01*
X159700D01*
Y357000D01*
X157700D01*
Y356000D01*
X156700D01*
Y354000D01*
X157700D01*
Y348200D02*
Y347200D01*
X159700D01*
Y348200D01*
X160700D01*
Y350200D01*
X159700D01*
Y351200D01*
X157700D01*
Y350200D01*
X156700D01*
Y348200D01*
X157700D01*
X199200Y327100D02*
Y326100D01*
X201200D01*
Y327100D01*
X202200D01*
Y329100D01*
X201200D01*
Y330100D01*
X199200D01*
Y329100D01*
X198200D01*
Y327100D01*
X199200D01*
X205900D02*
Y326100D01*
X207900D01*
Y327100D01*
X208900D01*
Y329100D01*
X207900D01*
Y330100D01*
X205900D01*
Y329100D01*
X204900D01*
Y327100D01*
X205900D01*
X225900Y393000D02*
Y392000D01*
X227900D01*
Y393000D01*
X228900D01*
Y395000D01*
X227900D01*
Y396000D01*
X225900D01*
Y395000D01*
X224900D01*
Y393000D01*
X225900D01*
Y387500D02*
Y386500D01*
X227900D01*
Y387500D01*
X228900D01*
Y389500D01*
X227900D01*
Y390500D01*
X225900D01*
Y389500D01*
X224900D01*
Y387500D01*
X225900D01*
X226200Y373500D02*
Y372500D01*
X228200D01*
Y373500D01*
X229200D01*
Y375500D01*
X228200D01*
Y376500D01*
X226200D01*
Y375500D01*
X225200D01*
Y373500D01*
X226200D01*
Y378900D02*
Y377900D01*
X228200D01*
Y378900D01*
X229200D01*
Y380900D01*
X228200D01*
Y381900D01*
X226200D01*
Y380900D01*
X225200D01*
Y378900D01*
X226200D01*
Y356300D02*
Y355300D01*
X228200D01*
Y356300D01*
X229200D01*
Y358300D01*
X228200D01*
Y359300D01*
X226200D01*
Y358300D01*
X225200D01*
Y356300D01*
X226200D01*
X225900Y362000D02*
Y361000D01*
X227900D01*
Y362000D01*
X228900D01*
Y364000D01*
X227900D01*
Y365000D01*
X225900D01*
Y364000D01*
X224900D01*
Y362000D01*
X225900D01*
X247000Y257000D02*
Y256000D01*
X249000D01*
Y257000D01*
X250000D01*
Y259000D01*
X249000D01*
Y260000D01*
X247000D01*
Y259000D01*
X246000D01*
Y257000D01*
X247000D01*
X306200Y436700D02*
Y435700D01*
X308200D01*
Y436700D01*
X309200D01*
Y438700D01*
X308200D01*
Y439700D01*
X306200D01*
Y438700D01*
X305200D01*
Y436700D01*
X306200D01*
X312000Y436800D02*
Y435800D01*
X314000D01*
Y436800D01*
X315000D01*
Y438800D01*
X314000D01*
Y439800D01*
X312000D01*
Y438800D01*
X311000D01*
Y436800D01*
X312000D01*
X499600Y306300D02*
Y305300D01*
X501600D01*
Y306300D01*
X502600D01*
Y308300D01*
X501600D01*
Y309300D01*
X499600D01*
Y308300D01*
X498600D01*
Y306300D01*
X499600D01*
X442000Y280400D02*
Y279400D01*
X444000D01*
Y280400D01*
X445000D01*
Y282400D01*
X444000D01*
Y283400D01*
X442000D01*
Y282400D01*
X441000D01*
Y280400D01*
X442000D01*
X308000Y179100D02*
Y178100D01*
X310000D01*
Y179100D01*
X311000D01*
Y181100D01*
X310000D01*
Y182100D01*
X308000D01*
Y181100D01*
X307000D01*
Y179100D01*
X308000D01*
X302200Y179000D02*
Y178000D01*
X304200D01*
Y179000D01*
X305200D01*
Y181000D01*
X304200D01*
Y182000D01*
X302200D01*
Y181000D01*
X301200D01*
Y179000D01*
X302200D01*
X264200Y231800D02*
Y230800D01*
X266200D01*
Y231800D01*
X267200D01*
Y233800D01*
X266200D01*
Y234800D01*
X264200D01*
Y233800D01*
X263200D01*
Y231800D01*
X264200D01*
X276500Y316300D02*
Y315300D01*
X278500D01*
Y316300D01*
X279500D01*
Y318300D01*
X278500D01*
Y319300D01*
X276500D01*
Y318300D01*
X275500D01*
Y316300D01*
X276500D01*
X225400Y307700D02*
Y306700D01*
X227400D01*
Y307700D01*
X228400D01*
Y309700D01*
X227400D01*
Y310700D01*
X225400D01*
Y309700D01*
X224400D01*
Y307700D01*
X225400D01*
Y301500D02*
Y300500D01*
X227400D01*
Y301500D01*
X228400D01*
Y303500D01*
X227400D01*
Y304500D01*
X225400D01*
Y303500D01*
X224400D01*
Y301500D01*
X225400D01*
X225300Y295300D02*
Y294300D01*
X227300D01*
Y295300D01*
X228300D01*
Y297300D01*
X227300D01*
Y298300D01*
X225300D01*
Y297300D01*
X224300D01*
Y295300D01*
X225300D01*
X225200Y289200D02*
Y288200D01*
X227200D01*
Y289200D01*
X228200D01*
Y291200D01*
X227200D01*
Y292200D01*
X225200D01*
Y291200D01*
X224200D01*
Y289200D01*
X225200D01*
X237000Y258400D02*
Y257400D01*
X239000D01*
Y258400D01*
X240000D01*
Y260400D01*
X239000D01*
Y261400D01*
X237000D01*
Y260400D01*
X236000D01*
Y258400D01*
X237000D01*
X257600Y245800D02*
Y244800D01*
X259600D01*
Y245800D01*
X260600D01*
Y247800D01*
X259600D01*
Y248800D01*
X257600D01*
Y247800D01*
X256600D01*
Y245800D01*
X257600D01*
X189200Y334000D02*
Y333000D01*
X191200D01*
Y334000D01*
X192200D01*
Y336000D01*
X191200D01*
Y337000D01*
X189200D01*
Y336000D01*
X188200D01*
Y334000D01*
X189200D01*
X162800Y320700D02*
Y319700D01*
X164800D01*
Y320700D01*
X165800D01*
Y322700D01*
X164800D01*
Y323700D01*
X162800D01*
Y322700D01*
X161800D01*
Y320700D01*
X162800D01*
X145900Y312400D02*
Y311400D01*
X147900D01*
Y312400D01*
X148900D01*
Y314400D01*
X147900D01*
Y315400D01*
X145900D01*
Y314400D01*
X144900D01*
Y312400D01*
X145900D01*
X116600Y329800D02*
Y328800D01*
X118600D01*
Y329800D01*
X119600D01*
Y331800D01*
X118600D01*
Y332800D01*
X116600D01*
Y331800D01*
X115600D01*
Y329800D01*
X116600D01*
Y307900D02*
Y306900D01*
X118600D01*
Y307900D01*
X119600D01*
Y309900D01*
X118600D01*
Y310900D01*
X116600D01*
Y309900D01*
X115600D01*
Y307900D01*
X116600D01*
X54400Y319300D02*
Y318300D01*
X56400D01*
Y319300D01*
X57400D01*
Y321300D01*
X56400D01*
Y322300D01*
X54400D01*
Y321300D01*
X53400D01*
Y319300D01*
X54400D01*
X89100Y248400D02*
Y247400D01*
X91100D01*
Y248400D01*
X92100D01*
Y250400D01*
X91100D01*
Y251400D01*
X89100D01*
Y250400D01*
X88100D01*
Y248400D01*
X89100D01*
X144300Y232700D02*
Y231700D01*
X146300D01*
Y232700D01*
X147300D01*
Y234700D01*
X146300D01*
Y235700D01*
X144300D01*
Y234700D01*
X143300D01*
Y232700D01*
X144300D01*
X146700Y251800D02*
Y250800D01*
X148700D01*
Y251800D01*
X149700D01*
Y253800D01*
X148700D01*
Y254800D01*
X146700D01*
Y253800D01*
X145700D01*
Y251800D01*
X146700D01*
X140100Y251900D02*
Y250900D01*
X142100D01*
Y251900D01*
X143100D01*
Y253900D01*
X142100D01*
Y254900D01*
X140100D01*
Y253900D01*
X139100D01*
Y251900D01*
X140100D01*
X64700Y268300D02*
Y267300D01*
X66700D01*
Y268300D01*
X67700D01*
Y270300D01*
X66700D01*
Y271300D01*
X64700D01*
Y270300D01*
X63700D01*
Y268300D01*
X64700D01*
X241800Y306600D02*
Y305600D01*
X243800D01*
Y306600D01*
X244800D01*
Y308600D01*
X243800D01*
Y309600D01*
X241800D01*
Y308600D01*
X240800D01*
Y306600D01*
X241800D01*
X242900Y291000D02*
Y290000D01*
X244900D01*
Y291000D01*
X245900D01*
Y293000D01*
X244900D01*
Y294000D01*
X242900D01*
Y293000D01*
X241900D01*
Y291000D01*
X242900D01*
X207200Y379000D02*
Y378000D01*
X209200D01*
Y379000D01*
X210200D01*
Y381000D01*
X209200D01*
Y382000D01*
X207200D01*
Y381000D01*
X206200D01*
Y379000D01*
X207200D01*
X316800Y186400D02*
Y185400D01*
X318800D01*
Y186400D01*
X319800D01*
Y188400D01*
X318800D01*
Y189400D01*
X316800D01*
Y188400D01*
X315800D01*
Y186400D01*
X316800D01*
X194700Y343000D02*
Y342000D01*
X196700D01*
Y343000D01*
X197700D01*
Y345000D01*
X196700D01*
Y346000D01*
X194700D01*
Y345000D01*
X193700D01*
Y343000D01*
X194700D01*
X312700Y184700D02*
Y183700D01*
X314700D01*
Y184700D01*
X315700D01*
Y186700D01*
X314700D01*
Y187700D01*
X312700D01*
Y186700D01*
X311700D01*
Y184700D01*
X312700D01*
X435101Y285144D02*
Y284144D01*
X437101D01*
Y285144D01*
X438101D01*
Y287144D01*
X437101D01*
Y288144D01*
X435101D01*
Y287144D01*
X434101D01*
Y285144D01*
X435101D01*
X437500Y288300D02*
Y287300D01*
X439500D01*
Y288300D01*
X440500D01*
Y290300D01*
X439500D01*
Y291300D01*
X437500D01*
Y290300D01*
X436500D01*
Y288300D01*
X437500D01*
X206400Y385200D02*
Y384200D01*
X208400D01*
Y385200D01*
X209400D01*
Y387200D01*
X208400D01*
Y388200D01*
X206400D01*
Y387200D01*
X205400D01*
Y385200D01*
X206400D01*
X495100Y314200D02*
Y313200D01*
X497100D01*
Y314200D01*
X498100D01*
Y316200D01*
X497100D01*
Y317200D01*
X495100D01*
Y316200D01*
X494100D01*
Y314200D01*
X495100D01*
X299300Y431800D02*
Y430800D01*
X301300D01*
Y431800D01*
X302300D01*
Y433800D01*
X301300D01*
Y434800D01*
X299300D01*
Y433800D01*
X298300D01*
Y431800D01*
X299300D01*
X302800Y429100D02*
Y428100D01*
X304800D01*
Y429100D01*
X305800D01*
Y431100D01*
X304800D01*
Y432100D01*
X302800D01*
Y431100D01*
X301800D01*
Y429100D01*
X302800D01*
X247000Y332900D02*
Y331900D01*
X249000D01*
Y332900D01*
X250000D01*
Y334900D01*
X249000D01*
Y335900D01*
X247000D01*
Y334900D01*
X246000D01*
Y332900D01*
X247000D01*
X238950Y325150D02*
Y324150D01*
X240950D01*
Y325150D01*
X241950D01*
Y327150D01*
X240950D01*
Y328150D01*
X238950D01*
Y327150D01*
X237950D01*
Y325150D01*
X238950D01*
X242900Y336800D02*
Y335800D01*
X244900D01*
Y336800D01*
X245900D01*
Y338800D01*
X244900D01*
Y339800D01*
X242900D01*
Y338800D01*
X241900D01*
Y336800D01*
X242900D01*
X232450Y326250D02*
Y325250D01*
X234450D01*
Y326250D01*
X235450D01*
Y328250D01*
X234450D01*
Y329250D01*
X232450D01*
Y328250D01*
X231450D01*
Y326250D01*
X232450D01*
X239200Y340700D02*
Y339700D01*
X241200D01*
Y340700D01*
X242200D01*
Y342700D01*
X241200D01*
Y343700D01*
X239200D01*
Y342700D01*
X238200D01*
Y340700D01*
X239200D01*
X225800Y327400D02*
Y326400D01*
X227800D01*
Y327400D01*
X228800D01*
Y329400D01*
X227800D01*
Y330400D01*
X225800D01*
Y329400D01*
X224800D01*
Y327400D01*
X225800D01*
X134400Y343600D02*
Y342600D01*
X136400D01*
Y343600D01*
X137400D01*
Y345600D01*
X136400D01*
Y346600D01*
X134400D01*
Y345600D01*
X133400D01*
Y343600D01*
X134400D01*
X86200Y287100D02*
Y286100D01*
X88200D01*
Y287100D01*
X89200D01*
Y289100D01*
X88200D01*
Y290100D01*
X86200D01*
Y289100D01*
X85200D01*
Y287100D01*
X86200D01*
X105000Y284000D02*
Y283000D01*
X107000D01*
Y284000D01*
X108000D01*
Y286000D01*
X107000D01*
Y287000D01*
X105000D01*
Y286000D01*
X104000D01*
Y284000D01*
X105000D01*
X54700Y326000D02*
Y325000D01*
X56700D01*
Y326000D01*
X57700D01*
Y328000D01*
X56700D01*
Y329000D01*
X54700D01*
Y328000D01*
X53700D01*
Y326000D01*
X54700D01*
X74562Y322762D02*
Y321762D01*
X76562D01*
Y322762D01*
X77562D01*
Y324762D01*
X76562D01*
Y325762D01*
X74562D01*
Y324762D01*
X73562D01*
Y322762D01*
X74562D01*
X89100Y242000D02*
Y241000D01*
X91100D01*
Y242000D01*
X92100D01*
Y244000D01*
X91100D01*
Y245000D01*
X89100D01*
Y244000D01*
X88100D01*
Y242000D01*
X89100D01*
D92*
X73500Y470200D02*
G03*
X73500Y470200I-2000J0D01*
G01*
X83500D02*
G03*
X83500Y470200I-2000J0D01*
G01*
X93500D02*
G03*
X93500Y470200I-2000J0D01*
G01*
X103500D02*
G03*
X103500Y470200I-2000J0D01*
G01*
X73500Y440200D02*
G03*
X73500Y440200I-2000J0D01*
G01*
X83500D02*
G03*
X83500Y440200I-2000J0D01*
G01*
X93500D02*
G03*
X93500Y440200I-2000J0D01*
G01*
X103500D02*
G03*
X103500Y440200I-2000J0D01*
G01*
M02*
