M48
;Layer_Color=9474304
;FILE_FORMAT=2:4
INCH,LZ
;TYPE=PLATED
T1F00S00C0.0118
T2F00S00C0.0350
T3F00S00C0.0400
T4F00S00C0.0512
T5F00S00C0.0606
T6F00S00C0.1890
%
T01
X05006Y03019
Y03073
X04967Y031181
X0506Y02994
X04492Y02937
X04385Y02893
X04361Y028614
X0443Y02814
Y02759
X04485Y02741
X041697Y027963
X04158Y02851
X039491Y0288
X037481Y02778
X036131Y02779
X03226Y019741
X0319Y01924
X03178Y01874
X03137Y01857
X03213Y01725
X03127Y02058
X03065Y02074
X0309Y01801
X03032Y018
X03011Y01752
X02946Y02366
X029368Y024119
Y024469
Y024819
Y025169
X03115Y02535
X031102Y030193
X02752Y03008
Y02973
Y03043
X02766Y03087
X02747Y02853
X027007Y028878
X026615Y028876
X02602Y02898
X02439Y0292
X02428Y03076
X02264Y03087
Y03025
X02263Y02963
X02262Y02902
X02038Y02818
X02039Y02756
X0204Y02693
Y02627
X02187Y02593
X0238Y02594
X0248Y0258
X0252Y02689
Y02721
X025484Y026665
X02704Y02624
X027687Y027093
X02833Y02844
X02586Y02468
X02652Y02328
X01519Y02337
X01486
X01453
X01477Y02528
X01411Y02529
X00901Y02494
Y0243
X00872Y02881
X0106Y0285
X01176Y03089
X00657Y02693
X00593Y02692
X00554Y03203
X00557Y0327
X007556Y032376
X01176Y03308
X01354Y03446
X01469Y03134
X00505Y03532
Y03632
X00506Y0373
X01587Y03676
X01586Y0362
X01587Y0355
Y03492
X01638Y03217
X01902Y0335
X01921Y0343
X01957Y0344
X02002Y03281
X02069
X02268Y03284
X023345Y032725
X023995Y032615
X02439Y03378
X02402Y03417
X0248Y03339
X02865Y03303
Y03158
X02775Y03173
X02272Y03573
X02269Y0363
X02209Y03688
X02272Y03745
Y03799
X02269Y03885
Y0394
X020511Y03991
X02017Y03996
X019611Y040007
X019962Y038797
X02044Y03883
X02074Y03862
X02082Y038
X017458Y036638
X01742Y0412
X01798Y04117
X02944Y04202
X0297Y042642
X03003Y04328
X03038Y04301
X03072Y04377
X02947Y04442
X030322Y041071
X03097Y0412
X0313Y04378
X0315Y04428
X04895Y03179
X04961Y03152
X05094Y03192
T02
X00715Y04402
X00815
X00915
X01015
X01301Y04169
Y04069
X01401
Y03969
X01301
X01401Y04169
X01015Y04702
X00915
X00815
X00715
T03
X0351Y02678
X03512Y02877
X04054Y02883
Y02677
X016755Y024915
X00685Y02452
Y02222
X00779Y03345
X00995Y03534
Y036795
Y03825
X021Y04134
X022375
X02375
X02945Y03812
Y03662
Y03512
X03295Y03662
Y03812
T04
X00815Y01797
X01065
T05
X01466Y01498
X01666
X02466
X02666
X03466
X03666
X04466
X04666
X05159
X05359
X05259Y01598
X05359Y01698
X05159
Y02498
X05259Y02598
X05359Y02498
Y02698
X05159
X04666Y01698
X04566Y01598
X04466Y01698
X03666
X03566Y01598
X03466Y01698
X02666
X02566Y01598
X02466Y01698
X01666
X01566Y01598
X01466Y01698
Y04498
X01666
X01566Y04598
X02466Y04498
X02666
X02566Y04598
X03566
X03466Y04498
X03666
X04466
X04566Y04598
X04666Y04498
X05159
X05359
X05259Y04598
Y03598
X05359Y03498
Y03698
X05159
Y03498
Y04698
X05359
X04666
X04466
X03666
X03466
X02666
X02466
X01666
X01466
T06
X04885Y01662
X00382
Y04583
X04885
M30
