G04*
G04 #@! TF.GenerationSoftware,Altium Limited,Altium Designer,23.2.1 (34)*
G04*
G04 Layer_Color=128*
%FSLAX25Y25*%
%MOIN*%
G70*
G04*
G04 #@! TF.SameCoordinates,DCD1C9D7-C552-47EB-8D17-ADC449AF66F1*
G04*
G04*
G04 #@! TF.FilePolarity,Positive*
G04*
G01*
G75*
%ADD16C,0.00500*%
D16*
X403400Y267700D02*
X407400D01*
X405400Y265700D02*
Y269700D01*
X349000Y267800D02*
X353000D01*
X351000Y265800D02*
Y269800D01*
X403400Y288300D02*
X407400D01*
X405400Y286300D02*
Y290300D01*
X349200Y287700D02*
X353200D01*
X351200Y285700D02*
Y289700D01*
X479051Y458300D02*
X497949D01*
X488500Y448851D02*
Y467749D01*
X28751Y458300D02*
X47649D01*
X38200Y448851D02*
Y467749D01*
X479051Y166200D02*
X497949D01*
X488500Y156751D02*
Y175649D01*
X28751Y166200D02*
X47649D01*
X38200Y156751D02*
Y175649D01*
X292500Y381200D02*
X296500D01*
X294500Y379200D02*
Y383200D01*
X138348Y406900D02*
X141852D01*
X140100Y405148D02*
Y408652D01*
X138348Y396900D02*
X141852D01*
X140100Y395148D02*
Y398652D01*
X128348Y416900D02*
X131852D01*
X130100Y415148D02*
Y418652D01*
X128348Y406900D02*
X131852D01*
X130100Y405148D02*
Y408652D01*
X128348Y396900D02*
X131852D01*
X130100Y395148D02*
Y398652D01*
X138348Y416900D02*
X141852D01*
X140100Y415148D02*
Y418652D01*
X292500Y351200D02*
X296500D01*
X294500Y349200D02*
Y353200D01*
X221750Y413400D02*
X225750D01*
X223750Y411400D02*
Y415400D01*
X353569Y159800D02*
X359631D01*
X356600Y156769D02*
Y162831D01*
X343568Y149800D02*
X349632D01*
X346600Y146768D02*
Y152831D01*
X363568Y149800D02*
X369632D01*
X366600Y146768D02*
Y152831D01*
X363568Y169800D02*
X369632D01*
X366600Y166769D02*
Y172831D01*
X343568Y169800D02*
X349632D01*
X346600Y166769D02*
Y172831D01*
X453569Y159800D02*
X459631D01*
X456600Y156769D02*
Y162831D01*
X443569Y149800D02*
X449632D01*
X446600Y146768D02*
Y152831D01*
X463568Y149800D02*
X469631D01*
X466600Y146768D02*
Y152831D01*
X463568Y169800D02*
X469631D01*
X466600Y166769D02*
Y172831D01*
X443569Y169800D02*
X449632D01*
X446600Y166769D02*
Y172831D01*
X153568Y159800D02*
X159632D01*
X156600Y156769D02*
Y162831D01*
X143569Y149800D02*
X149632D01*
X146600Y146768D02*
Y152831D01*
X163568Y149800D02*
X169632D01*
X166600Y146768D02*
Y152831D01*
X163568Y169800D02*
X169632D01*
X166600Y166769D02*
Y172831D01*
X143569Y169800D02*
X149632D01*
X146600Y166769D02*
Y172831D01*
X253569Y159800D02*
X259631D01*
X256600Y156769D02*
Y162831D01*
X243568Y149800D02*
X249632D01*
X246600Y146768D02*
Y152831D01*
X263568Y149800D02*
X269632D01*
X266600Y146768D02*
Y152831D01*
X263568Y169800D02*
X269632D01*
X266600Y166769D02*
Y172831D01*
X243568Y169800D02*
X249632D01*
X246600Y166769D02*
Y172831D01*
X327500Y366200D02*
X331500D01*
X329500Y364200D02*
Y368200D01*
X292500Y366200D02*
X296500D01*
X294500Y364200D02*
Y368200D01*
X327500Y381200D02*
X331500D01*
X329500Y379200D02*
Y383200D01*
X97500Y367950D02*
X101500D01*
X99500Y365950D02*
Y369950D01*
X66500Y245200D02*
X70500D01*
X68500Y243200D02*
Y247200D01*
X66500Y222200D02*
X70500D01*
X68500Y220200D02*
Y224200D01*
X165547Y249146D02*
X169547D01*
X167547Y247146D02*
Y251146D01*
X75900Y334500D02*
X79900D01*
X77900Y332500D02*
Y336500D01*
X208000Y413400D02*
X212000D01*
X210000Y411400D02*
Y415400D01*
X235500Y413400D02*
X239500D01*
X237500Y411400D02*
Y415400D01*
X97500Y353400D02*
X101500D01*
X99500Y351400D02*
Y355400D01*
X97500Y382500D02*
X101500D01*
X99500Y380500D02*
Y384500D01*
X69750Y470200D02*
X73250D01*
X71500Y468450D02*
Y471950D01*
X79750Y470200D02*
X83250D01*
X81500Y468450D02*
Y471950D01*
X89750Y470200D02*
X93250D01*
X91500Y468450D02*
Y471950D01*
X99750Y470200D02*
X103250D01*
X101500Y468450D02*
Y471950D01*
X69750Y440200D02*
X73250D01*
X71500Y438450D02*
Y441950D01*
X79750Y440200D02*
X83250D01*
X81500Y438450D02*
Y441950D01*
X89750Y440200D02*
X93250D01*
X91500Y438450D02*
Y441950D01*
X99750Y440200D02*
X103250D01*
X101500Y438450D02*
Y441950D01*
X103941Y179700D02*
X109059D01*
X106500Y177141D02*
Y182259D01*
X78941Y179700D02*
X84059D01*
X81500Y177141D02*
Y182259D01*
X522868Y159800D02*
X528932D01*
X525900Y156769D02*
Y162831D01*
X532868Y149800D02*
X538932D01*
X535900Y146768D02*
Y152831D01*
X532868Y169800D02*
X538932D01*
X535900Y166769D02*
Y172831D01*
X512868Y169800D02*
X518931D01*
X515900Y166769D02*
Y172831D01*
X512868Y149800D02*
X518931D01*
X515900Y146768D02*
Y152831D01*
X522868Y359800D02*
X528932D01*
X525900Y356768D02*
Y362831D01*
X532868Y349800D02*
X538932D01*
X535900Y346768D02*
Y352832D01*
X532868Y369800D02*
X538932D01*
X535900Y366769D02*
Y372832D01*
X512868Y369800D02*
X518931D01*
X515900Y366769D02*
Y372832D01*
X512868Y349800D02*
X518931D01*
X515900Y346768D02*
Y352832D01*
X522868Y259800D02*
X528932D01*
X525900Y256768D02*
Y262831D01*
X532868Y249800D02*
X538932D01*
X535900Y246768D02*
Y252832D01*
X532868Y269800D02*
X538932D01*
X535900Y266769D02*
Y272832D01*
X512868Y269800D02*
X518931D01*
X515900Y266769D02*
Y272832D01*
X512868Y249800D02*
X518931D01*
X515900Y246768D02*
Y252832D01*
X263568Y449800D02*
X269632D01*
X266600Y446769D02*
Y452832D01*
X243568Y449800D02*
X249632D01*
X246600Y446769D02*
Y452832D01*
X243568Y469800D02*
X249632D01*
X246600Y466769D02*
Y472831D01*
X263568Y469800D02*
X269632D01*
X266600Y466769D02*
Y472831D01*
X253569Y459800D02*
X259631D01*
X256600Y456769D02*
Y462831D01*
X163568Y449800D02*
X169632D01*
X166600Y446769D02*
Y452832D01*
X143569Y449800D02*
X149632D01*
X146600Y446769D02*
Y452832D01*
X143569Y469800D02*
X149632D01*
X146600Y466769D02*
Y472831D01*
X163568Y469800D02*
X169632D01*
X166600Y466769D02*
Y472831D01*
X153568Y459800D02*
X159632D01*
X156600Y456769D02*
Y462831D01*
X453569Y459800D02*
X459631D01*
X456600Y456769D02*
Y462831D01*
X463568Y469800D02*
X469631D01*
X466600Y466769D02*
Y472831D01*
X443569Y469800D02*
X449632D01*
X446600Y466769D02*
Y472831D01*
X443569Y449800D02*
X449632D01*
X446600Y446769D02*
Y452832D01*
X463568Y449800D02*
X469631D01*
X466600Y446769D02*
Y452832D01*
X353569Y459800D02*
X359631D01*
X356600Y456769D02*
Y462831D01*
X363568Y469800D02*
X369632D01*
X366600Y466769D02*
Y472831D01*
X343568Y469800D02*
X349632D01*
X346600Y466769D02*
Y472831D01*
X343568Y449800D02*
X349632D01*
X346600Y446769D02*
Y452832D01*
X363568Y449800D02*
X369632D01*
X366600Y446769D02*
Y452832D01*
X512868Y449800D02*
X518931D01*
X515900Y446769D02*
Y452832D01*
X512868Y469800D02*
X518931D01*
X515900Y466769D02*
Y472831D01*
X532868Y469800D02*
X538932D01*
X535900Y466769D02*
Y472831D01*
X532868Y449800D02*
X538932D01*
X535900Y446769D02*
Y452832D01*
X522868Y459800D02*
X528932D01*
X525900Y456769D02*
Y462831D01*
X265562Y288759D02*
X266743D01*
X266152Y288168D02*
Y289350D01*
X269479Y288784D02*
X270660D01*
X270069Y288193D02*
Y289374D01*
X274110Y285300D02*
X275290D01*
X274700Y284710D02*
Y285891D01*
X259610Y289800D02*
X260790D01*
X260200Y289210D02*
Y290390D01*
X151309Y233700D02*
X152491D01*
X151900Y233109D02*
Y234291D01*
X276283Y270933D02*
X277464D01*
X276873Y270343D02*
Y271524D01*
X442410Y275900D02*
X443590D01*
X443000Y275309D02*
Y276490D01*
X500009Y301900D02*
X501191D01*
X500600Y301309D02*
Y302490D01*
X269810Y262400D02*
X270990D01*
X270400Y261809D02*
Y262990D01*
X173990Y366379D02*
X175171D01*
X174581Y365788D02*
Y366969D01*
X191509Y343000D02*
X192691D01*
X192100Y342409D02*
Y343590D01*
X220309Y368800D02*
X221491D01*
X220900Y368210D02*
Y369391D01*
X204518Y399100D02*
X205699D01*
X205108Y398510D02*
Y399691D01*
X203809Y388300D02*
X204991D01*
X204400Y387709D02*
Y388891D01*
X201109Y399600D02*
X202291D01*
X201700Y399009D02*
Y400190D01*
X199030Y387966D02*
X200211D01*
X199621Y387376D02*
Y388557D01*
X195520Y400074D02*
X196701D01*
X196111Y399483D02*
Y400664D01*
X305909Y207400D02*
X307090D01*
X306500Y206809D02*
Y207991D01*
X318409Y192400D02*
X319590D01*
X319000Y191809D02*
Y192991D01*
X322009Y197407D02*
X323190D01*
X322600Y196816D02*
Y197997D01*
X293810Y420200D02*
X294990D01*
X294400Y419609D02*
Y420790D01*
X296405Y426420D02*
X297586D01*
X296995Y425830D02*
Y427011D01*
X302630Y410713D02*
X303811D01*
X303220Y410122D02*
Y411303D01*
X416382Y279628D02*
X417563D01*
X416972Y279037D02*
Y280218D01*
X415209Y285100D02*
X416391D01*
X415800Y284509D02*
Y285690D01*
X488909Y317900D02*
X490091D01*
X489500Y317309D02*
Y318491D01*
X496107Y311807D02*
X497288D01*
X496698Y311217D02*
Y312398D01*
X505409Y299400D02*
X506591D01*
X506000Y298810D02*
Y299991D01*
X276009Y308700D02*
X277190D01*
X276600Y308109D02*
Y309291D01*
X294009Y236600D02*
X295191D01*
X294600Y236010D02*
Y237191D01*
X394315Y288000D02*
X395496D01*
X394905Y287409D02*
Y288591D01*
X310434Y301932D02*
X311615D01*
X311024Y301342D02*
Y302523D01*
X310910Y253500D02*
X312090D01*
X311500Y252909D02*
Y254090D01*
X360715Y277900D02*
X361896D01*
X361305Y277309D02*
Y278490D01*
X374215Y277800D02*
X375396D01*
X374805Y277209D02*
Y278391D01*
X282710Y284400D02*
X283891D01*
X283300Y283809D02*
Y284991D01*
X285910Y315800D02*
X287090D01*
X286500Y315210D02*
Y316390D01*
X285910Y330300D02*
X287090D01*
X286500Y329710D02*
Y330890D01*
X254249Y266649D02*
X255431D01*
X254840Y266058D02*
Y267239D01*
X251410Y268900D02*
X252590D01*
X252000Y268309D02*
Y269491D01*
X274609Y297300D02*
X275791D01*
X275200Y296709D02*
Y297890D01*
X274609Y300800D02*
X275791D01*
X275200Y300209D02*
Y301391D01*
X274609Y304300D02*
X275791D01*
X275200Y303710D02*
Y304890D01*
X293091Y248190D02*
X294272D01*
X293682Y247600D02*
Y248781D01*
X293091Y244690D02*
X294272D01*
X293682Y244100D02*
Y245281D01*
X293091Y241190D02*
X294272D01*
X293682Y240600D02*
Y241781D01*
X148009Y233700D02*
X149191D01*
X148600Y233109D02*
Y234291D01*
X293091Y251690D02*
X294272D01*
X293682Y251100D02*
Y252281D01*
X58710Y269200D02*
X59891D01*
X59300Y268609D02*
Y269791D01*
X251410Y272100D02*
X252590D01*
X252000Y271510D02*
Y272691D01*
X203409Y262700D02*
X204591D01*
X204000Y262109D02*
Y263291D01*
X203309Y275600D02*
X204491D01*
X203900Y275009D02*
Y276190D01*
X203409Y269300D02*
X204591D01*
X204000Y268709D02*
Y269890D01*
X203209Y281800D02*
X204391D01*
X203800Y281209D02*
Y282390D01*
X218109Y259300D02*
X219290D01*
X218700Y258710D02*
Y259891D01*
X300510Y175200D02*
X301691D01*
X301100Y174609D02*
Y175791D01*
X320709Y172500D02*
X321890D01*
X321300Y171909D02*
Y173091D01*
X447909Y274100D02*
X449090D01*
X448500Y273510D02*
Y274691D01*
X448609Y293700D02*
X449790D01*
X449200Y293109D02*
Y294290D01*
X508810Y319200D02*
X509991D01*
X509400Y318609D02*
Y319791D01*
X314409Y442800D02*
X315591D01*
X315000Y442209D02*
Y443391D01*
X294110Y444200D02*
X295290D01*
X294700Y443610D02*
Y444791D01*
X50009Y373000D02*
X51191D01*
X50600Y372410D02*
Y373590D01*
X49909Y363200D02*
X51091D01*
X50500Y362610D02*
Y363790D01*
X49909Y353200D02*
X51091D01*
X50500Y352609D02*
Y353790D01*
X309109Y412000D02*
X310291D01*
X309700Y411410D02*
Y412591D01*
X312109Y205800D02*
X313291D01*
X312700Y205209D02*
Y206391D01*
X179209Y411700D02*
X180391D01*
X179800Y411109D02*
Y412290D01*
X173609Y412000D02*
X174791D01*
X174200Y411410D02*
Y412591D01*
X158109Y367600D02*
X159291D01*
X158700Y367009D02*
Y368191D01*
X158009Y362000D02*
X159191D01*
X158600Y361409D02*
Y362591D01*
X158109Y355000D02*
X159291D01*
X158700Y354410D02*
Y355591D01*
X158109Y349200D02*
X159291D01*
X158700Y348609D02*
Y349791D01*
X199609Y328100D02*
X200791D01*
X200200Y327509D02*
Y328691D01*
X206310Y328100D02*
X207490D01*
X206900Y327509D02*
Y328691D01*
X226309Y394000D02*
X227490D01*
X226900Y393409D02*
Y394590D01*
X226309Y388500D02*
X227490D01*
X226900Y387910D02*
Y389090D01*
X226609Y374500D02*
X227790D01*
X227200Y373909D02*
Y375091D01*
X226609Y379900D02*
X227790D01*
X227200Y379310D02*
Y380490D01*
X226609Y357300D02*
X227790D01*
X227200Y356710D02*
Y357891D01*
X226309Y363000D02*
X227490D01*
X226900Y362409D02*
Y363591D01*
X247410Y258000D02*
X248590D01*
X248000Y257410D02*
Y258591D01*
X306610Y437700D02*
X307790D01*
X307200Y437110D02*
Y438291D01*
X312409Y437800D02*
X313591D01*
X313000Y437210D02*
Y438390D01*
X500009Y307300D02*
X501191D01*
X500600Y306710D02*
Y307891D01*
X442410Y281400D02*
X443590D01*
X443000Y280809D02*
Y281991D01*
X308410Y180100D02*
X309591D01*
X309000Y179509D02*
Y180691D01*
X302609Y180000D02*
X303790D01*
X303200Y179409D02*
Y180591D01*
X264610Y232800D02*
X265791D01*
X265200Y232209D02*
Y233390D01*
X276909Y317300D02*
X278091D01*
X277500Y316709D02*
Y317891D01*
X225810Y308700D02*
X226991D01*
X226400Y308109D02*
Y309291D01*
X225810Y302500D02*
X226991D01*
X226400Y301909D02*
Y303091D01*
X225710Y296300D02*
X226890D01*
X226300Y295709D02*
Y296890D01*
X225609Y290200D02*
X226790D01*
X226200Y289610D02*
Y290791D01*
X237409Y259400D02*
X238591D01*
X238000Y258809D02*
Y259991D01*
X258010Y246800D02*
X259191D01*
X258600Y246210D02*
Y247391D01*
X189609Y335000D02*
X190791D01*
X190200Y334409D02*
Y335591D01*
X163209Y321700D02*
X164391D01*
X163800Y321110D02*
Y322290D01*
X146309Y313400D02*
X147491D01*
X146900Y312809D02*
Y313990D01*
X117009Y330800D02*
X118191D01*
X117600Y330209D02*
Y331391D01*
X117009Y308900D02*
X118191D01*
X117600Y308310D02*
Y309490D01*
X54809Y320300D02*
X55990D01*
X55400Y319709D02*
Y320890D01*
X89509Y249400D02*
X90690D01*
X90100Y248810D02*
Y249991D01*
X144709Y233700D02*
X145891D01*
X145300Y233109D02*
Y234291D01*
X147109Y252800D02*
X148291D01*
X147700Y252209D02*
Y253391D01*
X140509Y252900D02*
X141691D01*
X141100Y252309D02*
Y253490D01*
X65109Y269300D02*
X66290D01*
X65700Y268709D02*
Y269890D01*
X242210Y307600D02*
X243390D01*
X242800Y307010D02*
Y308190D01*
X243309Y292000D02*
X244491D01*
X243900Y291409D02*
Y292590D01*
X207610Y380000D02*
X208790D01*
X208200Y379410D02*
Y380591D01*
X317210Y187400D02*
X318390D01*
X317800Y186809D02*
Y187991D01*
X195109Y344000D02*
X196291D01*
X195700Y343409D02*
Y344590D01*
X313109Y185700D02*
X314290D01*
X313700Y185109D02*
Y186291D01*
X435510Y286144D02*
X436691D01*
X436101Y285554D02*
Y286735D01*
X437910Y289300D02*
X439090D01*
X438500Y288709D02*
Y289891D01*
X206809Y386200D02*
X207991D01*
X207400Y385610D02*
Y386790D01*
X495509Y315200D02*
X496691D01*
X496100Y314610D02*
Y315791D01*
X299710Y432800D02*
X300890D01*
X300300Y432209D02*
Y433391D01*
X303209Y430100D02*
X304391D01*
X303800Y429509D02*
Y430690D01*
X247410Y333900D02*
X248590D01*
X248000Y333310D02*
Y334490D01*
X239359Y326150D02*
X240541D01*
X239950Y325559D02*
Y326741D01*
X243309Y337800D02*
X244491D01*
X243900Y337210D02*
Y338390D01*
X232859Y327250D02*
X234040D01*
X233450Y326659D02*
Y327840D01*
X239610Y341700D02*
X240791D01*
X240200Y341109D02*
Y342290D01*
X226209Y328400D02*
X227391D01*
X226800Y327810D02*
Y328991D01*
X134809Y344600D02*
X135991D01*
X135400Y344009D02*
Y345191D01*
X86610Y288100D02*
X87791D01*
X87200Y287509D02*
Y288690D01*
X105409Y285000D02*
X106591D01*
X106000Y284409D02*
Y285591D01*
X55110Y327000D02*
X56291D01*
X55700Y326410D02*
Y327590D01*
X74972Y323762D02*
X76153D01*
X75562Y323172D02*
Y324353D01*
X89509Y243000D02*
X90690D01*
X90100Y242409D02*
Y243590D01*
M02*
