G04*
G04 #@! TF.GenerationSoftware,Altium Limited,Altium Designer,23.2.1 (34)*
G04*
G04 Layer_Color=16711935*
%FSLAX25Y25*%
%MOIN*%
G70*
G04*
G04 #@! TF.SameCoordinates,DCD1C9D7-C552-47EB-8D17-ADC449AF66F1*
G04*
G04*
G04 #@! TF.FilePolarity,Positive*
G04*
G01*
G75*
%ADD14C,0.00787*%
%ADD90C,0.00394*%
D14*
X280395Y232749D02*
Y240451D01*
Y232749D02*
X293805D01*
Y240451D01*
X280395D02*
X293805D01*
X261995Y304849D02*
Y312551D01*
Y304849D02*
X275405D01*
Y312551D01*
X261995D02*
X275405D01*
X289280Y318167D02*
Y329632D01*
X283720Y318167D02*
X289280D01*
X283720D02*
Y329632D01*
X289280D01*
X281205Y247580D02*
X292670D01*
Y242020D02*
Y247580D01*
X281205Y242020D02*
X292670D01*
X281205D02*
Y247580D01*
X281143Y254780D02*
X292608D01*
Y249220D02*
Y254780D01*
X281143Y249220D02*
X292608D01*
X281143D02*
Y254780D01*
X304580Y285097D02*
Y296562D01*
X299020Y285097D02*
X304580D01*
X299020D02*
Y296562D01*
X304580D01*
X52728Y371625D02*
Y374775D01*
Y371625D02*
X59815D01*
Y374775D01*
X52728D02*
X59815D01*
X304367Y431160D02*
Y436719D01*
Y431160D02*
X315832D01*
Y436719D01*
X304367D02*
X315832D01*
X209370Y338420D02*
Y343980D01*
X197905D02*
X209370D01*
X197905Y338420D02*
Y343980D01*
Y338420D02*
X209370D01*
X220720Y365795D02*
X226280D01*
X220720Y354330D02*
Y365795D01*
Y354330D02*
X226280D01*
Y365795D01*
X220720Y371467D02*
X226280D01*
Y382932D01*
X220720D02*
X226280D01*
X220720Y371467D02*
Y382932D01*
Y396933D02*
X226280D01*
X220720Y385468D02*
Y396933D01*
Y385468D02*
X226280D01*
Y396933D01*
X171368Y405420D02*
Y410980D01*
Y405420D02*
X182833D01*
Y410980D01*
X171368D02*
X182833D01*
X171368Y398420D02*
Y403980D01*
Y398420D02*
X182833D01*
Y403980D01*
X171368D02*
X182833D01*
X159720Y370486D02*
X165280D01*
X159720Y359021D02*
Y370486D01*
Y359021D02*
X165280D01*
Y370486D01*
X159720Y346368D02*
X165280D01*
Y357833D01*
X159720D02*
X165280D01*
X159720Y346368D02*
Y357833D01*
X161020Y334133D02*
X166580D01*
X161020Y322668D02*
Y334133D01*
Y322668D02*
X166580D01*
Y334133D01*
X187367Y322867D02*
X192927D01*
Y334332D01*
X187367D02*
X192927D01*
X187367Y322867D02*
Y334332D01*
X210205Y328749D02*
Y336451D01*
X196795D02*
X210205D01*
X196795Y328749D02*
Y336451D01*
Y328749D02*
X210205D01*
X168758Y316563D02*
X183718D01*
Y340185D01*
X168758D02*
X183718D01*
X168758Y316563D02*
Y340185D01*
X167306Y345906D02*
X218094D01*
Y396694D01*
X167306D02*
X218094D01*
X167306Y345906D02*
Y396694D01*
X138120Y230830D02*
X143680D01*
Y242295D01*
X138120D02*
X143680D01*
X138120Y230830D02*
Y242295D01*
X90749Y239495D02*
X98451D01*
Y252905D01*
X90749D02*
X98451D01*
X90749Y239495D02*
Y252905D01*
X313020Y271273D02*
X318580D01*
Y282738D01*
X313020D02*
X318580D01*
X313020Y271273D02*
Y282738D01*
X306020Y271335D02*
X311580D01*
Y282800D01*
X306020D02*
X311580D01*
X306020Y271335D02*
Y282800D01*
X298920Y282900D02*
X304480D01*
X298920Y271435D02*
Y282900D01*
Y271435D02*
X304480D01*
Y282900D01*
X78433Y317220D02*
Y322780D01*
X66967D02*
X78433D01*
X66967Y317220D02*
Y322780D01*
Y317220D02*
X78433D01*
X69256Y270049D02*
Y277751D01*
X55846D02*
X69256D01*
X55846Y270049D02*
Y277751D01*
Y270049D02*
X69256D01*
X306120Y258035D02*
X311680D01*
Y269500D01*
X306120D02*
X311680D01*
X306120Y258035D02*
Y269500D01*
X299405Y250788D02*
Y256347D01*
Y250788D02*
X310870D01*
Y256347D01*
X299405D02*
X310870D01*
X299268Y243988D02*
Y249548D01*
Y243988D02*
X310733D01*
Y249548D01*
X299268D02*
X310733D01*
X310257Y299220D02*
Y304780D01*
X298792D02*
X310257D01*
X298792Y299220D02*
Y304780D01*
Y299220D02*
X310257D01*
X235176Y247339D02*
X240736D01*
Y258804D01*
X235176D02*
X240736D01*
X235176Y247339D02*
Y258804D01*
X311733Y180620D02*
Y186180D01*
X300268D02*
X311733D01*
X300268Y180620D02*
Y186180D01*
Y180620D02*
X311733D01*
X276812Y251590D02*
Y260251D01*
X271300Y251590D02*
X276812D01*
X271300D02*
Y260251D01*
X276812D01*
X244730Y256826D02*
X253982D01*
Y249149D02*
Y256826D01*
X244730Y249149D02*
X253982D01*
X244730D02*
Y256826D01*
X151105Y244649D02*
Y252351D01*
X137695D02*
X151105D01*
X137695Y244649D02*
Y252351D01*
Y244649D02*
X151105D01*
X56249Y330505D02*
X63951D01*
X56249Y317095D02*
Y330505D01*
Y317095D02*
X63951D01*
Y330505D01*
X263068Y298054D02*
Y303613D01*
Y298054D02*
X274533D01*
Y303613D01*
X263068D02*
X274533D01*
X263068Y291306D02*
Y296866D01*
Y291306D02*
X274533D01*
Y296866D01*
X263068D02*
X274533D01*
X299020Y257973D02*
X304580D01*
Y269438D01*
X299020D02*
X304580D01*
X299020Y257973D02*
Y269438D01*
X306220Y296462D02*
X311780D01*
X306220Y284997D02*
Y296462D01*
Y284997D02*
X311780D01*
Y296462D01*
X310295Y306120D02*
Y311680D01*
X298830D02*
X310295D01*
X298830Y306120D02*
Y311680D01*
Y306120D02*
X310295D01*
X255776Y258842D02*
X261336D01*
X255776Y247377D02*
Y258842D01*
Y247377D02*
X261336D01*
Y258842D01*
X436720Y284433D02*
X442280D01*
X436720Y272968D02*
Y284433D01*
Y272968D02*
X442280D01*
Y284433D01*
X494320Y310232D02*
X499880D01*
X494320Y298767D02*
Y310232D01*
Y298767D02*
X499880D01*
Y310232D01*
X144120Y325833D02*
X149680D01*
X144120Y314368D02*
Y325833D01*
Y314368D02*
X149680D01*
Y325833D01*
X52857Y354875D02*
X59943D01*
Y351725D02*
Y354875D01*
X52857Y351725D02*
X59943D01*
X52857D02*
Y354875D01*
X52757Y364675D02*
X59843D01*
Y361525D02*
Y364675D01*
X52757Y361525D02*
X59843D01*
X52757D02*
Y364675D01*
D90*
X62669Y289269D02*
G03*
X62669Y289269I-1969J0D01*
G01*
X309747Y422688D02*
G03*
X309747Y422688I-1969J0D01*
G01*
X310006Y194669D02*
G03*
X310006Y194669I-1969J0D01*
G01*
X272819Y269215D02*
G03*
X272819Y269215I-1969J0D01*
G01*
X112238Y248299D02*
G03*
X112238Y248299I-1969J0D01*
G01*
X430199Y281138D02*
G03*
X430199Y281138I-1969J0D01*
G01*
X487731Y307238D02*
G03*
X487731Y307238I-1969J0D01*
G01*
X57157Y285726D02*
X76842D01*
X57157Y301474D02*
X76842D01*
X57157Y285726D02*
Y301474D01*
X76842Y285726D02*
Y301474D01*
X299510Y414420D02*
Y426231D01*
X311321Y414420D02*
Y426231D01*
X299510Y414420D02*
X311321D01*
X299510Y426231D02*
X311321D01*
X316305Y191126D02*
Y202937D01*
X304495Y191126D02*
Y202937D01*
X316305D01*
X304495Y191126D02*
X316305D01*
X274394Y265672D02*
Y285947D01*
X254118Y265672D02*
Y285947D01*
Y265672D02*
X274394D01*
X254118Y285947D02*
X274394D01*
X106726Y232157D02*
Y251842D01*
X122474Y232157D02*
Y251842D01*
X106726D02*
X122474D01*
X106726Y232157D02*
X122474D01*
X419963Y289405D02*
X431774D01*
X419963Y277594D02*
X431774D01*
X419963D02*
Y289405D01*
X431774Y277594D02*
Y289405D01*
X477494Y315506D02*
X489305D01*
X477494Y303695D02*
X489305D01*
X477494D02*
Y315506D01*
X489305Y303695D02*
Y315506D01*
M02*
